<svg fill="#FFF" xmlns="http://www.w3.org/2000/svg" viewBox="0 0 800 530.72"><path d="m173.68,275.85l-42.96,42.96-42.96-42.96h85.92m15.86-6.57h-117.65l58.82,58.82,58.82-58.82h0Z"/><path d="m130.72,490.99l33.15,33.15h-66.31s33.16-33.15,33.16-33.15m0-9.29l-49.02,49.02h49.02s49.02,0,49.02,0l-49.02-49.02h0Z"/><polygon points="616.99 321.57 616.99 321.57 617 321.57 616.99 321.57"/><path d="m254.87,189.51v56.07l-22.53-22.53c9.23-10.14,16.79-21.43,22.53-33.54m6.57-58.79c0,36.1-14.63,68.78-38.29,92.43l38.29,38.29v-130.72h0Z"/><path d="m254.87,15.86v56.07c-5.74-12.11-13.3-23.4-22.53-33.54l22.53-22.53M261.44,0l-38.29,38.29c23.66,23.66,38.29,56.34,38.29,92.43V0h0Z"/><path d="m185.97,84.76c10.75,12.88,16.61,28.97,16.61,45.96s-5.85,33.07-16.61,45.96l-45.96-45.96,45.96-45.96m.21-9.5l-55.46,55.46,55.46,55.46c14.19-14.19,22.97-33.8,22.97-55.46s-8.78-41.27-22.97-55.46h0Z"/><path d="m400,269.28c-72.19,0-130.72,58.52-130.72,130.72s58.52,130.72,130.72,130.72,130.72-58.52,130.72-130.72-58.52-130.72-130.72-130.72Zm0,209.15c-43.32,0-78.43-35.11-78.43-78.43s35.11-78.43,78.43-78.43,78.43,35.11,78.43,78.43-35.11,78.43-78.43,78.43Z"/><path d="m130.72,209.15c-21.66,0-41.27-8.78-55.46-22.97-14.19-14.19-22.97-33.8-22.97-55.46s8.78-41.27,22.97-55.46c14.19-14.19,33.8-22.97,55.46-22.97s41.27,8.78,55.46,22.97l36.97-36.97C199.5,14.63,166.82,0,130.72,0S61.94,14.63,38.29,38.29C14.63,61.94,0,94.62,0,130.72s14.63,68.78,38.29,92.43c23.66,23.66,56.34,38.29,92.43,38.29s68.78-14.63,92.43-38.29l-36.97-36.97c-14.19,14.19-33.8,22.97-55.46,22.97Z"/><path d="m400,0c-72.19,0-130.72,58.52-130.72,130.72s58.52,130.72,130.72,130.72,130.72-58.52,130.72-130.72S472.19,0,400,0Zm0,209.15c-43.32,0-78.43-35.11-78.43-78.43s35.11-78.43,78.43-78.43,78.43,35.11,78.43,78.43-35.11,78.43-78.43,78.43Z"/><path d="m400,98.04c18.05,0,32.68,14.63,32.68,32.68s-14.63,32.68-32.68,32.68-32.68-14.63-32.68-32.68,14.63-32.68,32.68-32.68m0-6.57c-21.64,0-39.25,17.61-39.25,39.25s17.61,39.25,39.25,39.25,39.25-17.61,39.25-39.25-17.61-39.25-39.25-39.25h0Z"/><circle cx="400" cy="400" r="32.68" transform="translate(-81.2 697.4) rotate(-76.72)"/><path d="m643.21,452.29c0-9.17,1.59-17.96,4.48-26.14h-6.92c-2.67,8.24-4.13,17.02-4.13,26.14s1.46,17.9,4.13,26.14h6.92c-2.89-8.18-4.48-16.97-4.48-26.14Z"/><path d="m640.77,478.43h-102.21v52.29h150.34c-22.73-9.53-40.47-28.66-48.13-52.29Z"/><path d="m690.94,321.57c-10.77-30.46-39.8-52.29-73.95-52.29s-63.18,21.83-73.95,52.29c-2.89,8.18-4.48,16.97-4.48,26.14s1.59,17.96,4.48,26.14c10.77,30.46,39.8,52.29,73.95,52.29,12.09,0,23.55-2.74,33.77-7.63,7.73-16.18,20.85-29.29,37.03-37.03,1.18-2.47,2.23-5.02,3.15-7.63,0,0-59.56-.02-73.99,0-14.42-.02-26.11-11.71-26.11-26.14s11.68-26.12,26.11-26.14c14.42.02,73.99,0,73.99,0Z"/><path d="m695.35,347.71c0,9.17-1.59,17.96-4.48,26.14h6.92c2.67-8.24,4.13-17.02,4.13-26.14s-1.46-17.9-4.13-26.14h-6.92c2.89,8.18,4.48,16.97,4.48,26.14Z"/><path d="m697.79,321.57h102.21v-52.29h-150.34c22.73,9.53,40.47,28.66,48.13,52.29Z"/><path d="m647.62,478.43c10.77,30.46,39.8,52.29,73.95,52.29s63.18-21.83,73.95-52.29c2.89-8.18,4.48-16.97,4.48-26.14s-1.59-17.96-4.48-26.14c-10.77-30.46-39.8-52.29-73.95-52.29-12.09,0-23.55,2.74-33.77,7.63-7.73,16.18-20.85,29.29-37.03,37.03-1.18,2.47-2.23,5.02-3.15,7.63,0,0,59.56.02,73.99,0,14.42.02,26.11,11.71,26.11,26.14s-11.68,26.12-26.11,26.14c-14.42-.02-73.99,0-73.99,0Z"/><polygon points="616.99 52.29 616.99 52.29 617 52.29 616.99 52.29"/><path d="m643.21,183.01c0-9.17,1.59-17.96,4.48-26.14h-6.92c-2.67,8.24-4.13,17.02-4.13,26.14s1.46,17.9,4.13,26.14h6.92c-2.89-8.18-4.48-16.97-4.48-26.14Z"/><path d="m640.77,209.15h-102.21v52.29h150.34c-22.73-9.53-40.47-28.66-48.13-52.29Z"/><path d="m690.94,52.29c-10.77-30.46-39.8-52.29-73.95-52.29s-63.18,21.83-73.95,52.29c-2.89,8.18-4.48,16.97-4.48,26.14s1.59,17.96,4.48,26.14c10.77,30.46,39.8,52.29,73.95,52.29,12.09,0,23.55-2.74,33.77-7.63,7.73-16.18,20.85-29.29,37.03-37.03,1.18-2.47,2.23-5.02,3.15-7.63,0,0-59.56-.02-73.99,0-14.42-.02-26.11-11.71-26.11-26.14s11.68-26.12,26.11-26.14c14.42.02,73.99,0,73.99,0Z"/><path d="m695.35,78.43c0,9.17-1.59,17.96-4.48,26.14h6.92c2.67-8.24,4.13-17.02,4.13-26.14s-1.46-17.9-4.13-26.14h-6.92c2.89,8.18,4.48,16.97,4.48,26.14Z"/><path d="m697.79,52.29h102.21V0h-150.34c22.73,9.53,40.47,28.66,48.13,52.29Z"/><path d="m647.62,209.15c10.77,30.46,39.8,52.29,73.95,52.29s63.18-21.83,73.95-52.29c2.89-8.18,4.48-16.97,4.48-26.14s-1.59-17.96-4.48-26.14c-10.77-30.46-39.8-52.29-73.95-52.29-12.09,0-23.55,2.74-33.77,7.63-7.73,16.18-20.85,29.29-37.03,37.03-1.18,2.47-2.23,5.02-3.15,7.63,0,0,59.56.02,73.99,0,14.42.02,26.11,11.71,26.11,26.14s-11.68,26.12-26.11,26.14c-14.42-.02-73.99,0-73.99,0Z"/><polygon points="0 269.28 0 530.72 49.02 530.72 49.02 481.7 49.02 400 89.87 440.85 127.43 478.42 127.43 396.72 0 269.28"/><polygon points="134.01 396.71 134.01 478.41 171.57 440.85 212.42 400 212.42 481.7 212.42 530.72 261.44 530.72 261.44 269.28 134.01 396.71"/></svg>