<svg xmlns="http://www.w3.org/2000/svg" width="226" height="58" viewBox="0 0 226 58" fill="none"><g clip-path="url(#clip0_29_82)"><path d="M56.7014 11.0821C55.1312 11.6345 53.7656 12.1524 53.6974 12.2214C53.595 12.2905 53.9705 12.5666 54.4825 12.8428C55.6431 13.3952 56.0528 15.0869 55.9162 18.8154L55.8139 21.2321L54.0387 21.3357C52.2977 21.4393 52.2295 21.4738 52.2295 22.475C52.2295 23.4416 52.2636 23.4762 53.9022 23.4762C55.3018 23.4762 55.609 23.5797 55.7456 24.2012C55.848 24.6154 55.9504 28.9309 55.9845 33.7988C55.9845 38.7702 56.1552 43.2238 56.3601 43.9833C57.35 47.6774 62.0267 49.0928 65.5768 46.7107C66.9082 45.8131 66.9082 45.8131 66.9082 43.569C66.9082 41.0488 66.8741 41.0488 65.7817 43.1893C64.4163 45.9166 61.8218 46.6416 60.5247 44.6393C59.9785 43.8107 59.9102 42.5333 59.8078 33.5916L59.6712 23.4762H63.2897H66.9082V22.4404V21.4047H63.3239H59.7395L59.6712 15.7774L59.5689 10.1155L56.7014 11.0821Z" fill="#005883"></path><path d="M6.79321 12.394C5.70084 13.5333 5.5643 14.3964 6.3153 15.8464C7.61248 18.4357 11.6065 17.3309 11.6065 14.3618C11.6065 13.4642 11.3675 12.9809 10.5483 12.2904C9.18277 11.1166 8.02213 11.1511 6.79321 12.394Z" fill="#005883"></path><path d="M8.12421 21.6809C5.66638 22.5094 4.74469 23.1309 5.97361 23.1309C6.2467 23.1309 6.72462 23.5106 6.99771 23.9594C7.47562 24.6844 7.50975 26.238 7.44148 35.3868L7.33907 45.9856L6.38325 46.7797C5.8712 47.2285 5.46157 47.7118 5.46157 47.8154C5.46157 48.1606 13.2789 47.988 13.4836 47.6428C13.5861 47.4701 13.5177 47.2975 13.313 47.2975C13.1423 47.2975 12.6644 46.7797 12.2888 46.1582C11.6402 45.1225 11.6061 44.3975 11.6061 32.8666C11.6061 23.3725 11.5037 20.7142 11.1965 20.7487C10.9575 20.7487 9.55795 21.1975 8.12421 21.6809Z" fill="#005883"></path><path d="M23.3151 21.6809C20.4135 22.5785 19.9697 22.9238 21.1986 23.3035C21.5742 23.4416 22.0179 23.9249 22.2227 24.4083C22.3934 24.8571 22.53 29.5868 22.53 34.9035C22.53 44.9499 22.3251 46.6761 20.9938 47.1595C19.6283 47.7118 20.8231 47.988 24.4075 47.988C28.0942 47.988 29.0159 47.7464 27.8552 47.0559C26.7628 46.3999 26.6263 45.2607 26.6263 36.7333C26.6263 28.3095 26.6263 28.1714 27.4456 26.7559C27.9235 25.9618 28.8793 24.9261 29.5962 24.4428C33.6585 21.6464 38.4034 22.8202 40.4858 27.1702C41.4757 29.138 41.4757 29.2416 41.5782 36.388C41.7147 44.5357 41.6123 45.6404 40.4175 46.8488C39.9737 47.2976 39.5982 47.7464 39.5982 47.8154C39.5982 47.919 41.3733 47.988 43.5239 47.988C45.9135 47.988 47.4496 47.8499 47.4496 47.6428C47.4496 47.4357 47.313 47.2976 47.1424 47.2976C46.9717 47.2976 46.5621 46.8833 46.2207 46.3654C45.6404 45.5023 45.538 44.4321 45.4014 36.7678C45.2308 28.5511 45.1966 28.0678 44.4115 26.5833C42.534 22.9583 39.5982 21.0249 35.5018 20.7833C32.3954 20.6107 30.6203 21.0595 28.3673 22.613L26.6263 23.7868V22.2333C26.6263 21.4047 26.524 20.7142 26.3874 20.7488C26.2167 20.7833 24.8512 21.1976 23.3151 21.6809Z" fill="#005883"></path><path d="M79.6409 21.7155C74.2815 23.5798 71.3457 28.1714 71.3457 34.6619C71.3457 38.0452 71.9602 40.2893 73.4622 42.6369C75.681 46.0202 79.3336 47.919 84.3176 48.2298C87.7995 48.4714 90.3598 47.8845 93.8758 46.0893L96.2654 44.8809V42.6369C96.2654 41.394 96.163 40.3928 96.0264 40.3928C95.8558 40.3928 95.4461 40.9798 95.0706 41.7048C94.6951 42.3952 93.6368 43.5 92.7151 44.1214C87.663 47.5393 81.1088 46.7107 77.7975 42.2571C76.5686 40.6345 75.1007 37.044 75.1007 35.6976C75.1007 35.2833 76.8417 35.2143 85.8878 35.2143H96.7091L96.5385 32.694C96.163 27.4809 93.4662 23.3726 89.3356 21.819C86.7754 20.8524 82.2352 20.7833 79.6409 21.7155ZM88.3115 24.0286C90.667 25.4095 92.4079 28.1714 92.7493 31.1059L92.9541 32.7976H84.0103C73.9059 32.7976 74.5886 33.0393 75.681 29.8286C76.7734 26.5143 79.3337 23.7869 81.9963 23.0964C83.8055 22.6476 86.7071 23.0619 88.3115 24.0286Z" fill="#005883"></path><path d="M104.834 21.8881C102.205 22.6822 101.522 23.2691 102.684 23.6143C103.98 24.0286 104.117 25.2024 104.117 35.3179C104.117 44.3976 104.083 45.1226 103.434 46.1583C103.059 46.7798 102.615 47.2976 102.41 47.2976C102.239 47.2976 102.068 47.4357 102.068 47.6429C102.068 48.0226 109.647 48.1607 110.023 47.781C110.125 47.6774 109.818 47.2286 109.306 46.7798L108.384 45.9857L108.281 36.6643L108.179 27.3774L109.477 26.2381C112.208 23.8214 114.905 23.3036 116.645 24.9262L117.396 25.6167L118.284 23.856L119.171 22.0607L117.977 21.5774C116.611 20.9905 113.47 20.8869 112.173 21.4048C111.695 21.5774 110.603 22.3714 109.75 23.1655L108.213 24.6155V22.8203C108.213 20.7833 108.315 20.8179 104.834 21.8881Z" fill="#005883"></path><path d="M131.597 21.5429C126.066 23.3036 122.892 28.0679 122.892 34.5238C122.892 40.7726 125.725 45.2262 131.016 47.3667C132.62 47.9881 134.199 48.1262 137.059 48.1262C139.917 48.1262 141.581 47.7723 144.5 46.5036C147.419 45.2349 147.811 44.8119 147.811 44.8119V42.6024C147.811 41.3596 147.675 40.3929 147.47 40.3929C147.299 40.3929 147.129 40.6 147.129 40.8417C147.129 41.8429 144.739 44.0869 142.622 45.0536C135.897 48.1262 129.343 45.0191 127.124 37.6655C126.885 36.8024 126.646 35.8703 126.646 35.6286C126.646 35.3179 129.002 35.2143 137.366 35.2143C143.51 35.2143 148.187 35.0762 148.289 34.9036C148.698 34.2822 147.777 29.5179 146.89 27.55C145.797 25.0298 143.374 22.7512 140.779 21.7846C138.594 20.956 133.85 20.8179 131.597 21.5429ZM139.55 23.7869C140.233 24.1667 141.223 24.8917 141.735 25.4441C142.793 26.5834 144.227 29.656 144.534 31.4857L144.773 32.7976H135.659H126.578L126.783 31.4857C126.919 30.7953 127.465 29.2417 128.047 28.0679C129.139 25.7548 131.255 23.856 133.473 23.1655C135.078 22.6822 138.014 22.9929 139.55 23.7869Z" fill="#005883"></path><path d="M152.079 21.7499C152.182 21.9226 152.489 22.0952 152.693 22.0952C152.932 22.1297 153.444 22.4059 153.888 22.7857C154.981 23.7178 162.49 33.8678 162.49 34.4202C162.49 34.938 154.843 45.4678 153.785 46.3309C153.41 46.6761 152.762 47.0559 152.352 47.1595C150.713 47.6083 151.703 47.988 154.468 47.988C156.073 47.988 157.37 47.8499 157.37 47.6773C157.37 47.5047 157.165 47.2976 156.96 47.2285C156.619 47.0904 156.619 46.8833 156.926 46.1583C157.37 45.2261 163.378 36.7333 163.821 36.4571C163.958 36.3535 164.539 36.9404 165.119 37.7345C165.665 38.5285 167.236 40.738 168.567 42.6368C171.093 46.1583 171.4 46.8488 170.513 47.1595C169.113 47.7118 170.41 47.988 174.438 47.988C177.169 47.988 178.876 47.8499 178.876 47.6428C178.876 47.4357 178.637 47.2976 178.364 47.2976C177.511 47.2976 175.496 45.2261 172.97 41.7738C171.639 39.9785 169.659 37.2857 168.567 35.8011C167.475 34.3166 166.586 33.0738 166.586 33.0047C166.586 32.7976 171.707 25.8928 173.311 23.9249C173.995 23.0618 174.984 22.1988 175.462 21.9571C176.213 21.6464 175.94 21.5773 173.449 21.4738C170.82 21.3702 169.556 21.6118 170.615 21.9916C171.571 22.3368 170.888 23.8904 168.294 27.3773C166.791 29.4142 165.494 31.0714 165.392 31.0714C165.221 31.0714 160.101 23.8559 159.896 23.3035C159.793 23.0618 160.066 22.544 160.476 22.1297L161.262 21.4047H156.551C153.512 21.4047 151.943 21.5428 152.079 21.7499Z" fill="#005883"></path><path d="M191.704 4H201.741V55H191.704V4Z" fill="#78D4FD"></path><path opacity="0.6" d="M203.749 4H213.786V55H203.749V4Z" fill="#78D4FD"></path><path opacity="0.3" d="M215.793 4H225.83V55H215.793V4Z" fill="#78D4FD"></path></g><defs><clipPath id="clip0_29_82"><rect width="225.83" height="58" fill="white"></rect></clipPath></defs></svg>