<?xml version="1.0"?>
<svg xmlns="http://www.w3.org/2000/svg" width="42" height="42" viewBox="0 0 58 58" fill="none">
<circle opacity="0.1" cx="29" cy="29" r="29" fill="#49E198"/>
<path d="M21.5424 22.4831L19.8086 24.2156L23.1267 27.5325L28.8942 21.7638L27.1604 20.0312L23.1267 24.0662L21.5424 22.4831Z" fill="#27C177"/>
<path d="M41.4295 19.6797H31.7031V22.1303H41.4295V19.6797Z" fill="#27C177"/>
<path d="M38.9789 23.3516H31.7031V25.8022H38.9789V23.3516Z" fill="#27C177"/>
<path d="M29.253 16H17V28.253H19.4506V18.4506H29.253V16Z" fill="#27C177"/>
<path d="M21.5424 37.1862L19.8086 38.9188L23.1267 42.2357L28.8942 36.4669L27.1604 34.7344L23.1267 38.7693L21.5424 37.1862Z" fill="#27C177"/>
<path d="M41.4295 34.3828H31.7031V36.8334H41.4295V34.3828Z" fill="#27C177"/>
<path d="M38.9789 38.0547H31.7031V40.5053H38.9789V38.0547Z" fill="#27C177"/>
<path d="M17 42.9561H19.4506V33.1537H29.253V30.7031H17V42.9561Z" fill="#27C177"/>
</svg>
