<?xml version="1.0"?>
<svg xmlns="http://www.w3.org/2000/svg" width="42" height="42" viewBox="0 0 58 58" fill="none">
<circle opacity="0.1" cx="29" cy="29" r="29" fill="#FF7816"/>
<path fill-rule="evenodd" clip-rule="evenodd" d="M30.8056 38.0337H27.1945C26.9537 38.0337 26.7732 37.7914 26.7732 37.5491V35.853C26.5324 35.7924 26.2917 35.6712 26.0509 35.5501L24.8472 36.7616C24.7871 36.8222 24.6667 36.8828 24.5463 36.8828C24.4259 36.8828 24.3658 36.8222 24.2454 36.7616L21.7778 34.2174C21.5972 34.0357 21.5972 33.7934 21.7778 33.6117L22.9815 32.4001C22.8611 32.1578 22.7408 31.9155 22.6806 31.6732H20.9352C20.6945 31.6732 20.5139 31.4915 20.5139 31.2492V27.6752C20.5139 27.4329 20.6945 27.2512 20.9352 27.2512H22.6806C22.7408 26.9483 22.8611 26.7666 22.9815 26.5243L21.7778 25.3127C21.5972 25.131 21.5972 24.8281 21.7778 24.6464L24.2454 22.1628C24.3658 22.0416 24.4861 21.9811 24.5463 21.9811C24.6667 21.9811 24.7871 22.0416 24.8472 22.1628L26.0509 23.3743C26.2917 23.2532 26.5324 23.132 26.7732 23.0714V21.3147C26.7732 21.0724 26.9537 20.8907 27.1945 20.8907H30.8056C31.0463 20.8907 31.2269 21.0724 31.2269 21.3147V23.0714C31.4676 23.132 31.7084 23.2532 31.9491 23.3743L33.1528 22.1628C33.3334 21.9811 33.5741 21.9811 33.7546 22.1628L36.2824 24.6464C36.463 24.8281 36.463 25.131 36.2824 25.3127L35.0787 26.5243C35.1991 26.7666 35.2593 27.0089 35.3796 27.2512H37.0648C37.3056 27.2512 37.4861 27.4329 37.4861 27.6752V31.2492C37.4861 31.4915 37.3056 31.7338 37.0648 31.7338H35.3796C35.2593 31.9155 35.1991 32.2184 35.0787 32.4001L36.2824 33.6722C36.463 33.854 36.463 34.0963 36.2824 34.278L33.7546 36.8222C33.5741 37.0039 33.3334 37.0039 33.1528 36.8222L31.8889 35.5501C31.7084 35.6712 31.4074 35.7924 31.2269 35.853V37.6097C31.2269 37.7914 30.9861 38.0337 30.8056 38.0337ZM27.6759 37.1251H30.3241V35.5501C30.3241 35.3684 30.4445 35.1866 30.625 35.1261C31.0463 35.0049 31.4074 34.8232 31.7685 34.6415C31.9491 34.5203 32.1296 34.5809 32.3102 34.702L33.4537 35.853L35.3195 33.9751L34.1759 32.8242C34.0556 32.703 33.9954 32.4607 34.1158 32.3396C34.2963 31.9155 34.4769 31.5521 34.5972 31.1886C34.6574 31.0069 34.838 30.8252 35.0185 30.8252H36.5834V28.1598H35.0185C34.838 28.1598 34.6574 28.0387 34.5972 27.7964C34.4769 27.4329 34.2963 27.0695 34.1158 26.6454C33.9954 26.4637 34.0556 26.282 34.1759 26.1608L35.3195 25.0099L33.4537 23.132L32.3102 24.283C32.1296 24.4041 31.9491 24.4041 31.7685 24.3435C31.4676 24.1618 31.1065 23.9801 30.625 23.8589C30.5046 23.7984 30.3241 23.6166 30.3241 23.4349V21.7993H27.6759V23.4349C27.6759 23.6166 27.4954 23.7984 27.375 23.8589C26.8935 23.9801 26.5324 24.1012 26.1713 24.3435C25.9908 24.4041 25.8102 24.4041 25.6898 24.283L24.5463 23.132L22.6806 25.0099L23.8241 26.1608C23.9445 26.282 24.0046 26.4637 23.8843 26.6454C23.7037 26.9483 23.5232 27.3723 23.4028 27.7964C23.3426 27.9781 23.1621 28.1598 22.9815 28.1598H21.4167V30.8252H22.9815C23.1621 30.8252 23.3426 30.9463 23.4028 31.1886C23.5232 31.6127 23.7037 31.9761 23.8843 32.279C24.0046 32.4607 23.9445 32.6424 23.8241 32.8242L22.6806 33.9751L24.5463 35.853L25.6898 34.702C25.8102 34.5809 25.9908 34.5203 26.1713 34.6415C26.5926 34.8838 27.0139 35.0049 27.375 35.1261C27.4954 35.1866 27.6759 35.3684 27.6759 35.5501V37.1251Z" fill="#FF7816"/>
<path fill-rule="evenodd" clip-rule="evenodd" d="M29 33.7933C26.6527 33.7933 24.7268 31.8549 24.7268 29.4924C24.7268 27.13 26.6527 25.131 29 25.131C31.4074 25.131 33.3333 27.13 33.3333 29.4924C33.3333 31.8549 31.4074 33.7933 29 33.7933ZM29 26.0396C27.1342 26.0396 25.5694 27.554 25.5694 29.4924C25.5694 31.3703 27.1342 32.9453 29 32.9453C30.8657 32.9453 32.4305 31.3703 32.4305 29.4924C32.4305 27.554 30.8657 26.0396 29 26.0396Z" fill="#FF7816"/>
<path fill-rule="evenodd" clip-rule="evenodd" d="M29 42.5769C28.7593 42.5769 28.5787 42.3952 28.5787 42.1529C28.5787 41.9105 28.7593 41.6682 29 41.6682C35.6806 41.6682 41.1574 36.2164 41.1574 29.4925C41.1574 25.7368 39.4722 22.2839 36.5833 19.9215C36.4028 19.8003 36.4028 19.4974 36.5231 19.3157C36.7037 19.134 36.9444 19.0734 37.1852 19.2551C40.2546 21.7387 42 25.4339 42 29.4319C42 36.701 36.162 42.5769 29 42.5769ZM21.1157 39.7904C20.9954 39.7904 20.9352 39.7298 20.8148 39.6692C17.7454 37.1856 16 33.4905 16 29.4925C16 22.2839 21.838 16.3475 29 16.3475C29.2407 16.3475 29.4213 16.5898 29.4213 16.8321C29.4213 17.0744 29.2407 17.2561 29 17.2561C22.3194 17.2561 16.8426 22.7685 16.8426 29.4925C16.8426 33.2482 18.5278 36.701 21.4167 39.0029C21.5972 39.1846 21.5972 39.4269 21.4769 39.6692C21.3565 39.7298 21.2361 39.7904 21.1157 39.7904Z" fill="#FF7816"/>
<path fill-rule="evenodd" clip-rule="evenodd" d="M29.0003 19.6184C28.9401 19.6184 28.8799 19.6184 28.7595 19.6184C28.6391 19.4973 28.579 19.3761 28.579 19.1944V14.4089C28.579 14.2877 28.6391 14.106 28.7595 14.0454C28.9401 13.9849 29.0604 13.9849 29.241 14.0454L33.153 16.4079C33.3336 16.4685 33.3938 16.5896 33.3938 16.7714C33.3938 16.8925 33.3336 17.0742 33.2132 17.1348L29.241 19.5578C29.1206 19.6184 29.0604 19.6184 29.0003 19.6184ZM29.4216 15.1964V18.4069L32.1299 16.7714L29.4216 15.1964Z" fill="#FF7816"/>
<path fill-rule="evenodd" clip-rule="evenodd" d="M28.9997 45C28.9395 45 28.8793 45 28.759 44.9394L24.8469 42.5164C24.6664 42.3952 24.6062 42.2741 24.6062 42.0924C24.6062 41.9712 24.6664 41.85 24.8469 41.7289L28.8192 39.3664C28.9395 39.3059 29.1201 39.3059 29.2405 39.3664C29.3608 39.427 29.4812 39.6087 29.4812 39.7299V44.5154C29.4812 44.6971 29.421 44.8183 29.2405 44.9394C29.1201 45 29.0599 45 28.9997 45ZM25.8701 42.0924L28.5784 43.7885V40.5174L25.8701 42.0924Z" fill="#FF7816"/>
<path fill-rule="evenodd" clip-rule="evenodd" d="M30.8056 38.0337H27.1945C26.9537 38.0337 26.7732 37.7914 26.7732 37.5491V35.853C26.5324 35.7924 26.2917 35.6712 26.0509 35.5501L24.8472 36.7616C24.7871 36.8222 24.6667 36.8828 24.5463 36.8828C24.4259 36.8828 24.3658 36.8222 24.2454 36.7616L21.7778 34.2174C21.5972 34.0357 21.5972 33.7934 21.7778 33.6117L22.9815 32.4001C22.8611 32.1578 22.7408 31.9155 22.6806 31.6732H20.9352C20.6945 31.6732 20.5139 31.4915 20.5139 31.2492V27.6752C20.5139 27.4329 20.6945 27.2512 20.9352 27.2512H22.6806C22.7408 26.9483 22.8611 26.7666 22.9815 26.5243L21.7778 25.3127C21.5972 25.131 21.5972 24.8281 21.7778 24.6464L24.2454 22.1628C24.3658 22.0416 24.4861 21.9811 24.5463 21.9811C24.6667 21.9811 24.7871 22.0416 24.8472 22.1628L26.0509 23.3743C26.2917 23.2532 26.5324 23.132 26.7732 23.0714V21.3147C26.7732 21.0724 26.9537 20.8907 27.1945 20.8907H30.8056C31.0463 20.8907 31.2269 21.0724 31.2269 21.3147V23.0714C31.4676 23.132 31.7084 23.2532 31.9491 23.3743L33.1528 22.1628C33.3334 21.9811 33.5741 21.9811 33.7546 22.1628L36.2824 24.6464C36.463 24.8281 36.463 25.131 36.2824 25.3127L35.0787 26.5243C35.1991 26.7666 35.2593 27.0089 35.3796 27.2512H37.0648C37.3056 27.2512 37.4861 27.4329 37.4861 27.6752V31.2492C37.4861 31.4915 37.3056 31.7338 37.0648 31.7338H35.3796C35.2593 31.9155 35.1991 32.2184 35.0787 32.4001L36.2824 33.6722C36.463 33.854 36.463 34.0963 36.2824 34.278L33.7546 36.8222C33.5741 37.0039 33.3334 37.0039 33.1528 36.8222L31.8889 35.5501C31.7084 35.6712 31.4074 35.7924 31.2269 35.853V37.6097C31.2269 37.7914 30.9861 38.0337 30.8056 38.0337ZM27.6759 37.1251H30.3241V35.5501C30.3241 35.3684 30.4445 35.1866 30.625 35.1261C31.0463 35.0049 31.4074 34.8232 31.7685 34.6415C31.9491 34.5203 32.1296 34.5809 32.3102 34.702L33.4537 35.853L35.3195 33.9751L34.1759 32.8242C34.0556 32.703 33.9954 32.4607 34.1158 32.3396C34.2963 31.9155 34.4769 31.5521 34.5972 31.1886C34.6574 31.0069 34.838 30.8252 35.0185 30.8252H36.5834V28.1598H35.0185C34.838 28.1598 34.6574 28.0387 34.5972 27.7964C34.4769 27.4329 34.2963 27.0695 34.1158 26.6454C33.9954 26.4637 34.0556 26.282 34.1759 26.1608L35.3195 25.0099L33.4537 23.132L32.3102 24.283C32.1296 24.4041 31.9491 24.4041 31.7685 24.3435C31.4676 24.1618 31.1065 23.9801 30.625 23.8589C30.5046 23.7984 30.3241 23.6166 30.3241 23.4349V21.7993H27.6759V23.4349C27.6759 23.6166 27.4954 23.7984 27.375 23.8589C26.8935 23.9801 26.5324 24.1012 26.1713 24.3435C25.9908 24.4041 25.8102 24.4041 25.6898 24.283L24.5463 23.132L22.6806 25.0099L23.8241 26.1608C23.9445 26.282 24.0046 26.4637 23.8843 26.6454C23.7037 26.9483 23.5232 27.3723 23.4028 27.7964C23.3426 27.9781 23.1621 28.1598 22.9815 28.1598H21.4167V30.8252H22.9815C23.1621 30.8252 23.3426 30.9463 23.4028 31.1886C23.5232 31.6127 23.7037 31.9761 23.8843 32.279C24.0046 32.4607 23.9445 32.6424 23.8241 32.8242L22.6806 33.9751L24.5463 35.853L25.6898 34.702C25.8102 34.5809 25.9908 34.5203 26.1713 34.6415C26.5926 34.8838 27.0139 35.0049 27.375 35.1261C27.4954 35.1866 27.6759 35.3684 27.6759 35.5501V37.1251Z" stroke="#FF7816" stroke-width="0.8"/>
<path fill-rule="evenodd" clip-rule="evenodd" d="M29 33.7933C26.6527 33.7933 24.7268 31.8549 24.7268 29.4924C24.7268 27.13 26.6527 25.131 29 25.131C31.4074 25.131 33.3333 27.13 33.3333 29.4924C33.3333 31.8549 31.4074 33.7933 29 33.7933ZM29 26.0396C27.1342 26.0396 25.5694 27.554 25.5694 29.4924C25.5694 31.3703 27.1342 32.9453 29 32.9453C30.8657 32.9453 32.4305 31.3703 32.4305 29.4924C32.4305 27.554 30.8657 26.0396 29 26.0396Z" stroke="#FF7816" stroke-width="0.8"/>
<path fill-rule="evenodd" clip-rule="evenodd" d="M29 42.5769C28.7593 42.5769 28.5787 42.3952 28.5787 42.1529C28.5787 41.9105 28.7593 41.6682 29 41.6682C35.6806 41.6682 41.1574 36.2164 41.1574 29.4925C41.1574 25.7368 39.4722 22.2839 36.5833 19.9215C36.4028 19.8003 36.4028 19.4974 36.5231 19.3157C36.7037 19.134 36.9444 19.0734 37.1852 19.2551C40.2546 21.7387 42 25.4339 42 29.4319C42 36.701 36.162 42.5769 29 42.5769ZM21.1157 39.7904C20.9954 39.7904 20.9352 39.7298 20.8148 39.6692C17.7454 37.1856 16 33.4905 16 29.4925C16 22.2839 21.838 16.3475 29 16.3475C29.2407 16.3475 29.4213 16.5898 29.4213 16.8321C29.4213 17.0744 29.2407 17.2561 29 17.2561C22.3194 17.2561 16.8426 22.7685 16.8426 29.4925C16.8426 33.2482 18.5278 36.701 21.4167 39.0029C21.5972 39.1846 21.5972 39.4269 21.4769 39.6692C21.3565 39.7298 21.2361 39.7904 21.1157 39.7904Z" stroke="#FF7816" stroke-width="0.8"/>
<path fill-rule="evenodd" clip-rule="evenodd" d="M29.0003 19.6184C28.9401 19.6184 28.8799 19.6184 28.7595 19.6184C28.6391 19.4973 28.579 19.3761 28.579 19.1944V14.4089C28.579 14.2877 28.6391 14.106 28.7595 14.0454C28.9401 13.9849 29.0604 13.9849 29.241 14.0454L33.153 16.4079C33.3336 16.4685 33.3938 16.5896 33.3938 16.7714C33.3938 16.8925 33.3336 17.0742 33.2132 17.1348L29.241 19.5578C29.1206 19.6184 29.0604 19.6184 29.0003 19.6184ZM29.4216 15.1964V18.4069L32.1299 16.7714L29.4216 15.1964Z" stroke="#FF7816" stroke-width="0.8"/>
<path fill-rule="evenodd" clip-rule="evenodd" d="M28.9997 45C28.9395 45 28.8793 45 28.759 44.9394L24.8469 42.5164C24.6664 42.3952 24.6062 42.2741 24.6062 42.0924C24.6062 41.9712 24.6664 41.85 24.8469 41.7289L28.8192 39.3664C28.9395 39.3059 29.1201 39.3059 29.2405 39.3664C29.3608 39.427 29.4812 39.6087 29.4812 39.7299V44.5154C29.4812 44.6971 29.421 44.8183 29.2405 44.9394C29.1201 45 29.0599 45 28.9997 45ZM25.8701 42.0924L28.5784 43.7885V40.5174L25.8701 42.0924Z" stroke="#FF7816" stroke-width="0.8"/>
</svg>
