<?xml version="1.0"?>
<svg xmlns="http://www.w3.org/2000/svg" width="42" height="42" viewBox="0 0 58 59" fill="none">
<circle opacity="0.1" cx="29" cy="29.4062" r="29" fill="#DA2587"/>
<path d="M40.6127 23.3158H37.3311C36.896 23.3164 36.4789 23.4957 36.1715 23.8145C35.8639 24.133 35.6907 24.5652 35.6902 25.016V25.5827H34.025C33.8885 24.0339 33.198 22.5938 32.0895 21.5454C30.9809 20.4969 29.534 19.9155 28.0331 19.9155H26.644C27.1953 18.2556 26.9746 16.4249 26.0463 14.9565C25.1178 13.4881 23.5861 12.5472 21.8972 12.408C21.7201 12.3936 21.5475 12.4692 21.434 12.6106C21.3204 12.7521 21.2804 12.9418 21.3263 13.1194L22.2446 16.6711L20.1313 17.2575L19.213 13.7064C19.1668 13.5288 19.0406 13.3851 18.8741 13.3213C18.7076 13.2576 18.5213 13.2816 18.375 13.3859C17.2831 14.1633 16.5003 15.3246 16.1721 16.6546C15.844 17.9847 15.9927 19.3928 16.5906 20.6179C17.1886 21.8429 18.1953 22.8015 19.4235 23.3159H18.1882C17.5922 23.3156 17.0218 23.5676 16.6091 24.0134C16.1965 24.4592 15.9773 25.0601 16.0024 25.6772C16.0275 26.2945 16.2947 26.8741 16.742 27.2824C16.7078 27.3141 16.6736 27.3467 16.6409 27.3809V27.3806C16.2138 27.8231 15.9824 28.4291 16.0014 29.0545C16.0207 29.6799 16.2888 30.2691 16.742 30.6828C16.7078 30.7144 16.6737 30.7471 16.6409 30.7812V30.781C16.2193 31.2159 15.9878 31.8105 16.0005 32.4267C16.021 33.5556 16.8692 34.491 17.9438 34.6319C17.7375 34.9934 17.6328 35.4074 17.6413 35.8271C17.6638 37.0531 18.6622 38.0507 19.8667 38.0507H23.8095L25.4825 44.5207C25.6681 45.2491 26.1259 45.871 26.7549 46.2487C27.3838 46.6267 28.132 46.7297 28.8342 46.5346C29.5364 46.3398 30.1349 45.8632 30.4972 45.2102C30.8598 44.5569 30.9562 43.7812 30.7656 43.0544L29.472 38.0508H30.7677C31.688 38.0495 32.5772 37.7054 33.2731 37.081C33.9688 36.4568 34.4246 35.5941 34.5575 34.6504H35.6901V35.2171C35.6906 35.668 35.8638 36.1001 36.1714 36.4187C36.4788 36.7374 36.8959 36.9168 37.331 36.9173H40.6126C40.7576 36.9173 40.8968 36.8576 40.9993 36.7514C41.1019 36.6451 41.1595 36.5009 41.1595 36.3506V23.8827C41.1595 23.7325 41.1019 23.5882 40.9993 23.482C40.8968 23.3757 40.7576 23.316 40.6126 23.316L40.6127 23.3158ZM21.028 22.9133C20.9743 22.7056 20.8115 22.5472 20.6081 22.5045C19.5684 22.2874 18.6404 21.6865 17.996 20.8137C17.3518 19.9408 17.0354 18.8552 17.1055 17.7587C17.1756 16.6622 17.6275 15.6295 18.3774 14.8522L19.2169 18.0982L19.2166 18.0985C19.2542 18.2437 19.346 18.3674 19.4715 18.4426C19.5973 18.5177 19.7465 18.5382 19.8866 18.4992L23.0564 17.619C23.1965 17.5801 23.3159 17.4852 23.3885 17.3549C23.461 17.2249 23.4808 17.07 23.4431 16.9248L22.6037 13.6788C23.628 13.9634 24.5177 14.6238 25.1076 15.5371C25.6973 16.4502 25.9471 17.5543 25.8103 18.644C25.6736 19.7339 25.1599 20.735 24.3641 21.4616C24.2086 21.6041 24.1441 21.8254 24.1978 22.0334L24.5294 23.3156H21.1321L21.028 22.9133ZM29.7096 43.3477C29.8612 43.9346 29.6994 44.5606 29.2848 44.9899C28.8702 45.4195 28.2658 45.587 27.6996 45.4296C27.1334 45.2725 26.6912 44.814 26.5396 44.2274L24.9425 38.0509H28.34L29.7096 43.3477ZM34.05 33.5172C33.7479 33.5172 33.503 33.7709 33.503 34.0839C33.5023 34.8351 33.2139 35.5554 32.7012 36.0866C32.1884 36.6179 31.4933 36.9167 30.7684 36.9175H19.8672C19.2545 36.9175 18.7469 36.4188 18.7357 35.8066C18.7298 35.5022 18.8426 35.2082 19.0484 34.9906C19.2543 34.7733 19.5356 34.6506 19.8295 34.6506H23.1111C23.4132 34.6506 23.6581 34.3968 23.6581 34.0839C23.6581 33.7709 23.4132 33.5172 23.1111 33.5172H18.2264C17.6137 33.5172 17.1061 33.0185 17.0949 32.4063C17.089 32.1019 17.2018 31.8079 17.4076 31.5903C17.6135 31.373 17.8948 31.2503 18.1887 31.2503H21.4703C21.7724 31.2503 22.0173 30.9965 22.0173 30.6836C22.0173 30.3706 21.7724 30.1168 21.4703 30.1168H18.1887C17.7978 30.1168 17.4367 29.9008 17.2414 29.5501C17.046 29.1995 17.046 28.7673 17.2414 28.4167C17.4367 28.066 17.7978 27.85 18.1887 27.85H21.4703C21.7724 27.85 22.0173 27.5962 22.0173 27.2832C22.0173 26.9703 21.7724 26.7165 21.4703 26.7165H18.1887C17.7978 26.7165 17.4367 26.5005 17.2414 26.1498C17.046 25.7991 17.046 25.367 17.2414 25.0163C17.4367 24.6657 17.7978 24.4496 18.1887 24.4496H28.5805C28.8825 24.4496 29.1274 24.1959 29.1274 23.8829C29.1274 23.5699 28.8825 23.3162 28.5805 23.3162H25.662L25.3392 22.0679C25.6368 21.7603 25.8993 21.4187 26.122 21.0493H28.0335C29.3391 21.0493 30.5912 21.5864 31.5144 22.543C32.4376 23.4995 32.9559 24.797 32.9559 26.1498C32.9559 26.3001 33.0136 26.4443 33.1161 26.5505C33.2187 26.6568 33.3578 26.7165 33.5029 26.7165H35.6906V33.5172H34.05ZM40.0662 35.784H37.3316C37.0295 35.7838 36.7849 35.5303 36.7846 35.2173V25.0163C36.7849 24.7034 37.0295 24.4499 37.3316 24.4496H40.0662V35.784Z" fill="#DA2587" stroke="#DA2587" stroke-width="0.6"/>
</svg>
