<?xml version="1.0"?>
<svg xmlns="http://www.w3.org/2000/svg" width="42" height="42" viewBox="0 0 58 59" fill="none">
<circle opacity="0.1" cx="29" cy="29.4062" r="29" fill="#C2D020"/>
<path d="M27.6514 43.008C31.0067 43.008 34.2245 41.6271 36.5966 39.1686C38.9691 36.71 40.3021 33.3755 40.3021 29.8985C40.3021 29.5826 40.181 29.2792 39.9652 29.056C39.7498 28.8323 39.4569 28.7068 39.1521 28.7068H28.8014V17.9808C28.8014 17.6649 28.6803 17.3614 28.4645 17.1382C28.2491 16.9146 27.9563 16.7891 27.6514 16.7891C23.1316 16.7891 18.9552 19.2876 16.6949 23.3441C14.435 27.4001 14.435 32.3976 16.6949 36.4537C18.9548 40.5097 23.1312 43.0083 27.6514 43.0083L27.6514 43.008ZM35.7017 36.5844L30.4286 31.0902H37.9387C37.7173 33.1008 36.9519 35.0057 35.7305 36.5844H35.7017ZM26.5013 19.2376V29.8977C26.5025 30.2131 26.6244 30.5153 26.8402 30.7381L34.1032 38.2699C31.5617 40.3802 28.21 41.1275 25.0561 40.2879C21.9017 39.4483 19.3129 37.1194 18.0674 34.0011C16.822 30.8832 17.0655 27.3393 18.7241 24.4354C20.383 21.5312 23.2639 19.6058 26.5012 19.2371L26.5013 19.2376Z" fill="#AAB716"/>
<path d="M32.2598 14.4062C31.6244 14.4062 31.1094 14.9395 31.1094 15.5979V25.132C31.1094 25.4483 31.2305 25.7513 31.4463 25.9749C31.6621 26.1986 31.9545 26.3241 32.2598 26.3241H41.4602C41.7654 26.3241 42.0578 26.1986 42.2736 25.9749C42.489 25.7513 42.6102 25.4483 42.6102 25.132C42.6102 22.2877 41.5199 19.5592 39.5786 17.5479C37.6376 15.5361 35.0047 14.4064 32.2599 14.4064L32.2598 14.4062ZM33.4097 23.9407V16.8732C35.1305 17.1301 36.7245 17.9573 37.954 19.2313C39.1834 20.5053 39.9816 22.1571 40.2295 23.9403L33.4097 23.9407Z" fill="#AAB716"/>
</svg>
