<?xml version="1.0"?>
<svg xmlns="http://www.w3.org/2000/svg" width="42" height="42" viewBox="0 0 58 59" fill="none">
<circle opacity="0.1" cx="29" cy="29.2656" r="29" fill="#49E198"/>
<path d="M16.25 29.7031C16.2832 27.3125 16.8643 25.1709 17.9932 23.2783C19.1221 21.3525 20.6494 19.8252 22.5752 18.6963C24.4678 17.5674 26.6094 16.9863 29 16.9531C31.3906 16.9863 33.5322 17.5674 35.4248 18.6963C37.3506 19.8252 38.8779 21.3525 40.0068 23.2783C41.1357 25.1709 41.7168 27.3125 41.75 29.7031C41.7168 32.0938 41.1357 34.2354 40.0068 36.1279C38.8779 38.0537 37.3506 39.5811 35.4248 40.71C33.5322 41.8389 31.3906 42.4199 29 42.4531C26.6094 42.4199 24.4678 41.8389 22.5752 40.71C20.6494 39.5811 19.1221 38.0537 17.9932 36.1279C16.8643 34.2354 16.2832 32.0938 16.25 29.7031ZM34.7773 27.5117C35.043 27.2129 35.1758 26.8809 35.1758 26.5156C35.1758 26.1504 35.043 25.8184 34.7773 25.5195C34.4785 25.2539 34.1465 25.1211 33.7812 25.1211C33.416 25.1211 33.084 25.2539 32.7852 25.5195L27.4062 30.8984L25.2148 28.707C24.916 28.4414 24.584 28.3086 24.2188 28.3086C23.8535 28.3086 23.5215 28.4414 23.2227 28.707C22.957 29.0059 22.8242 29.3379 22.8242 29.7031C22.8242 30.0684 22.957 30.4004 23.2227 30.6992L26.4102 33.8867C26.709 34.1523 27.041 34.2852 27.4062 34.2852C27.7715 34.2852 28.1035 34.1523 28.4023 33.8867L34.7773 27.5117Z" fill="#27C177"/>
</svg>
