<?xml version="1.0"?>
<svg xmlns="http://www.w3.org/2000/svg" width="42" height="42" viewBox="0 0 58 59" fill="none">
<circle opacity="0.1" cx="29" cy="29.4062" r="29" fill="#DA6625"/>
<mask id="mask0_4297_8364" style="mask-type:luminance" maskUnits="userSpaceOnUse" x="15" y="15" width="28" height="28">
<path d="M42 15.4062H16V42.3499H42V15.4062Z" fill="white" stroke="white" stroke-width="0.4"/>
</mask>
<g mask="url(#mask0_4297_8364)">
<path d="M21.4965 15.4062H17.3528C16.9957 15.4155 16.6557 15.5671 16.4037 15.8295C16.1517 16.0919 16.0071 16.445 16 16.8151V21.0409C16.0204 21.4215 16.1772 21.7805 16.4396 22.0476C16.702 22.3147 17.0511 22.4707 17.4187 22.485H21.4315C21.7949 22.4691 22.1391 22.3116 22.3952 22.0439C22.6512 21.7762 22.8003 21.4181 22.8124 21.0414V16.7699C22.8121 16.4085 22.6734 16.0619 22.4268 15.8062C22.1801 15.5505 21.8453 15.4067 21.4965 15.4062ZM21.4751 21.0409C21.4751 21.0525 21.4707 21.0635 21.4628 21.0717C21.4549 21.0798 21.4443 21.0844 21.4332 21.0844H17.3528C17.3417 21.0844 17.3311 21.0798 17.3232 21.0717C17.3153 21.0635 17.3109 21.0525 17.3109 21.0409V16.8151C17.3109 16.8036 17.3153 16.7926 17.3232 16.7844C17.3311 16.7763 17.3417 16.7717 17.3528 16.7717H21.4311C21.4422 16.7717 21.4529 16.7763 21.4607 16.7844C21.4686 16.7926 21.473 16.8036 21.473 16.8151L21.4751 21.0409Z" fill="#DA6625" stroke="#DA6625" stroke-width="0.4"/>
<path d="M21.4965 25.4023H17.3528C16.9957 25.4116 16.6557 25.5632 16.4037 25.8256C16.1517 26.088 16.0071 26.4411 16 26.8112V31.037C16.0204 31.4176 16.1772 31.7766 16.4396 32.0437C16.702 32.3108 17.0511 32.4668 17.4187 32.4811H21.4315C21.7949 32.4652 22.1391 32.3077 22.3952 32.04C22.6512 31.7723 22.8003 31.4142 22.8124 31.0375V26.766C22.8121 26.4045 22.6734 26.058 22.4268 25.8023C22.1801 25.5466 21.8453 25.4028 21.4965 25.4023ZM21.4751 31.037C21.4751 31.0486 21.4707 31.0596 21.4628 31.0678C21.4549 31.0759 21.4443 31.0805 21.4332 31.0805H17.3528C17.3417 31.0805 17.3311 31.0759 17.3232 31.0678C17.3153 31.0596 17.3109 31.0486 17.3109 31.037V26.8112C17.3109 26.7997 17.3153 26.7887 17.3232 26.7805C17.3311 26.7724 17.3417 26.7678 17.3528 26.7678H21.4311C21.4422 26.7678 21.4529 26.7724 21.4607 26.7805C21.4686 26.7887 21.473 26.7997 21.473 26.8112L21.4751 31.037Z" fill="#DA6625" stroke="#DA6625" stroke-width="0.4"/>
<path d="M21.4965 35.3945H17.3528C16.9957 35.4037 16.6557 35.5553 16.4037 35.8178C16.1517 36.0802 16.0071 36.4333 16 36.8034V41.0292C16.0204 41.4098 16.1772 41.7688 16.4396 42.0359C16.702 42.303 17.0511 42.459 17.4187 42.4733H21.4315C21.7949 42.4574 22.1391 42.2998 22.3952 42.0321C22.6512 41.7644 22.8003 41.4064 22.8124 41.0297V36.7582C22.8121 36.3967 22.6734 36.0501 22.4268 35.7945C22.1801 35.5388 21.8453 35.395 21.4965 35.3945ZM21.4751 41.0292C21.4751 41.0407 21.4707 41.0518 21.4628 41.06C21.4549 41.0681 21.4443 41.0727 21.4332 41.0727H17.3528C17.3417 41.0727 17.3311 41.0681 17.3232 41.06C17.3153 41.0518 17.3109 41.0407 17.3109 41.0292V36.8034C17.3109 36.7919 17.3153 36.7808 17.3232 36.7727C17.3311 36.7645 17.3417 36.76 17.3528 36.76H21.4311C21.4422 36.76 21.4529 36.7645 21.4607 36.7727C21.4686 36.7808 21.473 36.7919 21.473 36.8034L21.4751 41.0292Z" fill="#DA6625" stroke="#DA6625" stroke-width="0.4"/>
<path d="M34.1134 16.7627H26.2971C26.0921 16.7524 25.8916 16.8266 25.7393 16.9691C25.587 17.1116 25.4953 17.3108 25.4844 17.5232C25.4953 17.7355 25.587 17.9347 25.7393 18.0772C25.8916 18.2197 26.0921 18.294 26.2971 18.2837H34.1139C34.3188 18.294 34.5194 18.2197 34.6717 18.0772C34.824 17.9347 34.9156 17.7355 34.9266 17.5232C34.9156 17.3108 34.824 17.1116 34.6717 16.9691C34.5194 16.8266 34.3184 16.7524 34.1134 16.7627Z" fill="#DA6625" stroke="#DA6625" stroke-width="0.4"/>
<path d="M34.1134 26.7588H26.2971C26.0921 26.7485 25.8916 26.8227 25.7393 26.9652C25.587 27.1077 25.4953 27.3069 25.4844 27.5193C25.4953 27.7316 25.587 27.9308 25.7393 28.0733C25.8916 28.2158 26.0921 28.2901 26.2971 28.2798H34.1139C34.3188 28.2901 34.5194 28.2158 34.6717 28.0733C34.824 27.9308 34.9156 27.7316 34.9266 27.5193C34.9156 27.3069 34.824 27.1077 34.6717 26.9652C34.5194 26.8227 34.3184 26.7485 34.1134 26.7588Z" fill="#DA6625" stroke="#DA6625" stroke-width="0.4"/>
<path d="M34.1134 36.7549H26.2971C26.0921 36.7446 25.8916 36.8188 25.7393 36.9613C25.587 37.1038 25.4953 37.303 25.4844 37.5154C25.4953 37.7277 25.587 37.9269 25.7393 38.0694C25.8916 38.2119 26.0921 38.2862 26.2971 38.2759H34.1139C34.3188 38.2862 34.5194 38.2119 34.6717 38.0694C34.824 37.9269 34.9156 37.7277 34.9266 37.5154C34.9156 37.303 34.824 37.1038 34.6717 36.9613C34.5194 36.8188 34.3184 36.7446 34.1134 36.7549Z" fill="#DA6625" stroke="#DA6625" stroke-width="0.4"/>
<path d="M40.6845 19.678H26.2759C26.1748 19.67 26.0733 19.6838 25.9776 19.7184C25.882 19.7531 25.7943 19.8078 25.7199 19.8792C25.6456 19.9506 25.5864 20.0371 25.5458 20.1333C25.5053 20.2296 25.4844 20.3335 25.4844 20.4385C25.4844 20.5435 25.5053 20.6473 25.5458 20.7436C25.5864 20.8398 25.6456 20.9263 25.7199 20.9977C25.7943 21.0691 25.882 21.1238 25.9776 21.1585C26.0733 21.1931 26.1748 21.2069 26.2759 21.199H40.6845C40.7855 21.2069 40.887 21.1931 40.9827 21.1585C41.0784 21.1238 41.1661 21.0691 41.2404 20.9977C41.3147 20.9263 41.374 20.8398 41.4145 20.7436C41.455 20.6473 41.476 20.5435 41.476 20.4385C41.476 20.3335 41.455 20.2296 41.4145 20.1333C41.374 20.0371 41.3147 19.9506 41.2404 19.8792C41.1661 19.8078 41.0784 19.7531 40.9827 19.7184C40.887 19.6838 40.7855 19.67 40.6845 19.678Z" fill="#DA6625" stroke="#DA6625" stroke-width="0.4"/>
<path d="M40.6845 29.678H26.2759C26.1748 29.67 26.0733 29.6838 25.9776 29.7184C25.882 29.7531 25.7943 29.8078 25.7199 29.8792C25.6456 29.9506 25.5864 30.0371 25.5458 30.1333C25.5053 30.2296 25.4844 30.3335 25.4844 30.4385C25.4844 30.5435 25.5053 30.6473 25.5458 30.7436C25.5864 30.8398 25.6456 30.9263 25.7199 30.9977C25.7943 31.0691 25.882 31.1238 25.9776 31.1585C26.0733 31.1931 26.1748 31.2069 26.2759 31.199H40.6845C40.7855 31.2069 40.887 31.1931 40.9827 31.1585C41.0784 31.1238 41.1661 31.0691 41.2404 30.9977C41.3147 30.9263 41.374 30.8398 41.4145 30.7436C41.455 30.6473 41.476 30.5435 41.476 30.4385C41.476 30.3335 41.455 30.2296 41.4145 30.1333C41.374 30.0371 41.3147 29.9506 41.2404 29.8792C41.1661 29.8078 41.0784 29.7531 40.9827 29.7184C40.887 29.6838 40.7855 29.67 40.6845 29.678Z" fill="#DA6625" stroke="#DA6625" stroke-width="0.4"/>
<path d="M40.6845 39.674H26.2759C26.1748 39.6661 26.0733 39.6799 25.9776 39.7145C25.882 39.7492 25.7943 39.8039 25.7199 39.8753C25.6456 39.9467 25.5864 40.0332 25.5458 40.1294C25.5053 40.2257 25.4844 40.3295 25.4844 40.4346C25.4844 40.5396 25.5053 40.6434 25.5458 40.7397C25.5864 40.8359 25.6456 40.9224 25.7199 40.9938C25.7943 41.0652 25.882 41.1199 25.9776 41.1546C26.0733 41.1892 26.1748 41.203 26.2759 41.1951H40.6845C40.7855 41.203 40.887 41.1892 40.9827 41.1546C41.0784 41.1199 41.1661 41.0652 41.2404 40.9938C41.3147 40.9224 41.374 40.8359 41.4145 40.7397C41.455 40.6434 41.476 40.5396 41.476 40.4346C41.476 40.3295 41.455 40.2257 41.4145 40.1294C41.374 40.0332 41.3147 39.9467 41.2404 39.8753C41.1661 39.8039 41.0784 39.7492 40.9827 39.7145C40.887 39.6799 40.7855 39.6661 40.6845 39.674Z" fill="#DA6625" stroke="#DA6625" stroke-width="0.4"/>
</g>
</svg>
