<svg width="48" height="48" viewBox="0 0 48 48" fill="none" xmlns="http://www.w3.org/2000/svg">
<rect width="48" height="48" rx="24" fill="#FBF0E9"/>
<mask id="mask0_1001_9133" style="mask-type:luminance" maskUnits="userSpaceOnUse" x="12" y="12" width="24" height="24">
<path d="M36 12H12V36H36V12Z" fill="white"/>
</mask>
<g mask="url(#mask0_1001_9133)">
<mask id="mask1_1001_9133" style="mask-type:luminance" maskUnits="userSpaceOnUse" x="12" y="12" width="24" height="24">
<path d="M36 12H12V36H36V12Z" fill="white"/>
</mask>
<g mask="url(#mask1_1001_9133)">
<path d="M26.041 36C23.9134 36.006 21.8408 35.3248 20.1316 34.058L19.5664 33.6403L25.3376 25.8167V16.0831H26.041C28.6821 16.0831 31.2151 17.1323 33.0827 18.9999C34.9502 20.8675 35.9994 23.4004 35.9994 26.0416C35.9994 28.6827 34.9502 31.2157 33.0827 33.0833C31.2151 34.9508 28.6821 36 26.041 36ZM21.5507 33.3213C22.651 34.0015 23.8913 34.4233 25.1782 34.5549C26.4651 34.6866 27.7651 34.5247 28.9804 34.0814C30.1957 33.6381 31.2947 32.9249 32.1945 31.9956C33.0944 31.0663 33.7719 29.945 34.1758 28.716C34.5798 27.4871 34.6998 26.1826 34.5268 24.9006C34.3538 23.6186 33.8924 22.3925 33.1771 21.3146C32.4619 20.2367 31.5115 19.335 30.3975 18.6774C29.2835 18.0198 28.0348 17.6234 26.7455 17.5181V26.2796L21.5507 33.3213Z" fill="#DA6625"/>
<path d="M16.6154 33.0298L16.0495 32.6117C14.9456 31.798 14.0217 30.7649 13.3357 29.5774C12.6496 28.3899 12.2163 27.0735 12.0627 25.7107C11.9092 24.3479 12.0388 22.9681 12.4434 21.6577C12.848 20.3473 13.5188 19.1346 14.414 18.0956L14.8735 17.563L22.9111 24.4963L16.6154 33.0298ZM15.0418 19.5658C13.785 21.2942 13.2207 23.4306 13.4601 25.5542C13.6995 27.6779 14.7253 29.635 16.3355 31.0401L21.0058 24.7099L15.0418 19.5658Z" fill="#DA6625"/>
<path d="M23.2224 21.8323L15.7773 15.4126L16.2364 14.88C17.0149 13.9762 17.9792 13.251 19.0635 12.754C20.1478 12.257 21.3266 11.9998 22.5194 12H23.2228L23.2224 21.8323ZM17.7879 15.2903L21.8164 18.7649V13.4419C20.3065 13.5969 18.8901 14.2467 17.7879 15.2903Z" fill="#DA6625"/>
</g>
</g>
</svg>
