<?xml version="1.0"?>
<svg xmlns="http://www.w3.org/2000/svg" width="42" height="42" viewBox="0 0 58 58" fill="none">
<circle opacity="0.1" cx="29" cy="29" r="29" fill="#DA2587"/>
<path d="M38.5 20.75C38.4688 20.125 38.25 19.5938 37.8438 19.1562C37.4062 18.75 36.875 18.5312 36.25 18.5H22.75C22.125 18.5312 21.5938 18.75 21.1562 19.1562C20.75 19.5938 20.5312 20.125 20.5 20.75V35H38.5V20.75ZM33.7656 24.8281L29.6406 30.0781C29.4531 30.3281 29.1875 30.4688 28.8438 30.5C28.8125 30.4688 28.7656 30.4531 28.7031 30.4531C28.4219 30.4531 28.1875 30.3594 28 30.1719L25.375 27.9219C24.9062 27.4844 24.875 26.9688 25.2812 26.375C25.7812 25.9062 26.3125 25.875 26.875 26.2812L28.6094 27.7344L31.9844 23.4219C32.4531 22.9219 32.9844 22.8594 33.5781 23.2344C34.0781 23.7031 34.1406 24.2344 33.7656 24.8281ZM40.75 30.5H40V35.75C39.9688 36.2188 39.7188 36.4688 39.25 36.5H19.75C19.2812 36.4688 19.0312 36.2188 19 35.75V30.5H18.25C17.625 30.5312 17.0938 30.75 16.6562 31.1562C16.25 31.5938 16.0312 32.125 16 32.75V37.25C16.0312 37.875 16.25 38.4062 16.6562 38.8438C17.0938 39.25 17.625 39.4688 18.25 39.5H40.75C41.375 39.4688 41.9062 39.25 42.3438 38.8438C42.75 38.4062 42.9688 37.875 43 37.25V32.75C42.9688 32.125 42.75 31.5938 42.3438 31.1562C41.9062 30.75 41.375 30.5312 40.75 30.5Z" fill="#DA2587"/>
</svg>
