<?xml version="1.0"?>
<svg xmlns="http://www.w3.org/2000/svg" width="42" height="42" viewBox="0 0 50 50" fill="none">
<rect width="49.5" height="49.5" rx="16.5" fill="#27C177"/>
<path d="M24.9835 11C23.426 11 21.8682 11.4098 20.4734 12.2291C18.473 13.4043 17.0439 15.3022 16.3852 17.4831H16.2955C15.0354 17.4831 14 18.5387 14 19.8196V21.289C14 22.5699 15.0354 23.6256 16.2955 23.6256H17.5285C18.1337 23.6256 18.6881 23.3783 19.1027 22.9836C19.7122 24.1631 20.6408 25.1292 21.7842 25.7764C21.6424 25.8383 21.5072 25.917 21.3682 25.9865C21.2976 26.0205 21.2286 26.0592 21.1587 26.0962C20.8265 26.2727 20.5027 26.467 20.1891 26.6832C20.1708 26.6945 20.1504 26.7057 20.1322 26.7171C20.1298 26.7188 20.1286 26.7209 20.1263 26.7247C19.1348 27.4189 18.2361 28.2916 17.4717 29.2954C15.5889 31.7679 14.4404 34.9986 14.44 38.2185V39.0004H15.2002H35.593V38.2185C35.5926 34.9987 34.4441 31.7679 32.5613 29.2954C31.7969 28.2916 30.9012 27.4189 29.9097 26.7247C29.9072 26.723 29.9062 26.7209 29.9038 26.7171C29.8863 26.7057 29.8674 26.6945 29.8499 26.6832C29.53 26.4624 29.1985 26.2663 28.8593 26.0867C28.8005 26.0565 28.742 26.0256 28.6827 25.9957C28.5387 25.9232 28.3989 25.8407 28.2517 25.7768C29.3869 25.1341 30.3116 24.1767 30.9213 23.0084C31.3302 23.3875 31.8676 23.6259 32.4596 23.6259H33.6926C34.9527 23.6259 36 22.5704 36 21.2894V19.8201C36 18.5391 34.9527 17.4835 33.6926 17.4835H33.5819C32.9228 15.303 31.4937 13.4043 29.4937 12.2294C28.0989 11.41 26.541 11 24.9835 11ZM24.9835 12.5576C26.2762 12.5576 27.5684 12.8989 28.7275 13.5797C30.2569 14.4782 31.2815 15.9329 31.8729 17.5714C31.6985 17.6186 31.5349 17.6889 31.3791 17.7751C30.84 16.0657 29.6654 14.6594 28.1289 13.8292C28.1262 13.8277 28.1227 13.8277 28.1199 13.8262C27.848 13.6796 27.5711 13.5476 27.2789 13.4399C27.1398 13.387 26.9946 13.35 26.851 13.3061C26.6396 13.2445 26.4328 13.1766 26.2135 13.1361C25.8876 13.0738 25.5506 13.0431 25.2079 13.0326C25.1428 13.0306 25.082 13.0098 25.0164 13.0098C24.9528 13.0098 24.894 13.0288 24.8308 13.0288C24.4826 13.0401 24.1411 13.0699 23.8103 13.1353C23.6028 13.1765 23.4062 13.2385 23.2057 13.2967C23.0476 13.3439 22.8886 13.3866 22.7359 13.4456C22.4554 13.5499 22.1895 13.6766 21.9278 13.8164C21.9039 13.8278 21.8798 13.8391 21.856 13.8576C20.3377 14.6947 19.1842 16.0973 18.6538 17.7973C18.4799 17.6972 18.2944 17.6186 18.0971 17.5661C18.6887 15.9303 19.7112 14.4785 21.2396 13.5807C22.3986 12.8998 23.6908 12.5576 24.9835 12.5576ZM25.0164 14.5747C25.3737 14.5747 25.7272 14.6087 26.0639 14.6813C26.0805 14.6847 26.0952 14.6926 26.1118 14.7002C26.4317 14.7697 26.7418 14.8657 27.0366 14.9923C27.068 15.0037 27.0952 15.0263 27.1264 15.0395C27.3979 15.1627 27.6602 15.3022 27.9045 15.4687C27.9777 15.5216 28.0405 15.5825 28.111 15.6358C28.3004 15.7802 28.4876 15.9268 28.6557 16.095C28.7663 16.2061 28.8575 16.3357 28.9579 16.4571C29.0674 16.589 29.1846 16.7133 29.2812 16.8557C29.4256 17.0692 29.5456 17.3013 29.6582 17.5371C29.6862 17.5961 29.7222 17.6483 29.748 17.7073C29.858 17.9609 29.9384 18.2277 30.0084 18.5013C30.0241 18.5617 30.0486 18.6188 30.0622 18.6807C30.1206 18.9476 30.1468 19.227 30.164 19.5082C30.1674 19.5611 30.1772 19.6125 30.179 19.6666C30.1755 19.7195 30.164 19.769 30.164 19.8219V20.1745C30.1547 20.3265 30.1408 20.4773 30.1191 20.6249C30.0954 20.7822 30.0727 20.9394 30.0353 21.0936C30.0072 21.2107 29.9693 21.323 29.9336 21.4375C29.9239 21.4678 29.9109 21.498 29.9006 21.5287C27.7663 22.6265 27.1921 22.8913 24.9908 23.0186C23.8927 22.996 23.9819 24.7096 25.0716 24.5702C26.6586 24.4784 26.7209 24.3631 28.3504 23.8408C27.4654 24.5998 26.3378 25.0768 25.0882 25.0942C25.0639 25.094 25.0408 25.0866 25.0164 25.0866C24.993 25.0866 24.971 25.0942 24.9476 25.0942C22.8344 25.064 21.0381 23.7706 20.2609 21.912C20.2533 21.8818 20.2443 21.8591 20.234 21.833C20.1098 21.5269 20.0153 21.2091 19.9497 20.8869C19.8838 20.5501 19.8479 20.2006 19.8479 19.8433C19.8479 16.9263 22.1498 14.5747 25.0164 14.5747ZM16.2955 19.0468H17.5285C17.9662 19.0468 18.2976 19.3749 18.2976 19.8196V21.289C18.2976 21.2965 18.2948 21.3004 18.2947 21.3117C18.2911 21.4171 18.2622 21.5237 18.1749 21.6738C18.1565 21.7078 18.1405 21.7414 18.127 21.7773C17.9884 21.9557 17.7795 22.0721 17.5285 22.0721H16.2955C15.8578 22.0721 15.5263 21.7354 15.5263 21.2902V19.8209C15.5263 19.3758 15.8578 19.0468 16.2955 19.0468ZM32.4595 19.0468H33.6925C34.1302 19.0468 34.4617 19.3749 34.4617 19.8196V21.289C34.4617 21.734 34.1302 22.0709 33.6925 22.0709H32.4595C32.2478 22.0709 32.0633 21.9926 31.9268 21.8611C31.9068 21.8082 31.8817 21.7629 31.8519 21.7179C31.7384 21.552 31.6933 21.4235 31.6933 21.2887V20.4582C31.6936 20.4355 31.6926 20.4052 31.6903 20.3792V20.1872C31.6962 20.0701 31.7262 19.9593 31.7262 19.8406C31.7262 19.8104 31.7176 19.7816 31.7171 19.7552C31.7453 19.4479 31.9175 19.2065 32.169 19.101C32.2582 19.067 32.3554 19.0468 32.4595 19.0468ZM24.8788 26.6465C24.9258 26.6475 24.9692 26.6654 25.0164 26.6654C25.0626 26.6654 25.1052 26.6541 25.1511 26.6465C25.3512 26.6503 25.6152 26.6693 25.9232 26.7055C26.6548 26.8133 27.3619 27.0615 28.0391 27.4052C28.017 27.5016 27.906 27.6059 27.6531 27.7185C26.8011 28.216 25.9748 28.6388 25.0164 28.6403C24.058 28.6388 23.2857 28.1306 22.4845 27.6334C22.2909 27.5275 22.1748 27.4319 22.1104 27.3472C22.9891 26.9198 23.9178 26.668 24.8788 26.6465ZM20.4854 28.3898C21.7146 29.538 23.3315 30.1883 25.0164 30.1908C26.7014 30.1883 28.3183 29.538 29.5475 28.3898C30.1985 28.9167 30.8095 29.536 31.3522 30.2486C32.8571 32.2249 33.6124 34.8649 33.7943 37.4345H16.2386C16.4205 34.8649 17.1787 32.2249 18.6837 30.2486C19.2261 29.5364 19.8348 28.9166 20.4854 28.3898Z" fill="white"/>
</svg>
