<svg width="48" height="48" viewBox="0 0 48 48" fill="none" xmlns="http://www.w3.org/2000/svg">
<circle opacity="0.1" cx="24" cy="24" r="24" fill="#27C177"/>
<path d="M31.5 15.75C31.8646 15.75 32.1641 15.8672 32.3984 16.1016C32.6328 16.3359 32.75 16.6354 32.75 17C32.75 17.3646 32.6328 17.6641 32.3984 17.8984C32.1641 18.1328 31.8646 18.25 31.5 18.25H17.125C16.7344 18.276 16.526 18.4844 16.5 18.875C16.526 19.2656 16.7344 19.474 17.125 19.5H31.5C32.2031 19.526 32.7891 19.7734 33.2578 20.2422C33.7266 20.7109 33.974 21.2969 34 22V30.75C33.974 31.4531 33.7266 32.0391 33.2578 32.5078C32.7891 32.9766 32.2031 33.224 31.5 33.25H16.5C15.7969 33.224 15.2109 32.9766 14.7422 32.5078C14.2734 32.0391 14.026 31.4531 14 30.75V18.25C14.026 17.5469 14.2734 16.9609 14.7422 16.4922C15.2109 16.0234 15.7969 15.776 16.5 15.75H31.5ZM30.25 27.625C30.6146 27.625 30.9141 27.5078 31.1484 27.2734C31.3828 27.0391 31.5 26.7396 31.5 26.375C31.5 26.0104 31.3828 25.7109 31.1484 25.4766C30.9141 25.2422 30.6146 25.125 30.25 25.125C29.8854 25.125 29.5859 25.2422 29.3516 25.4766C29.1172 25.7109 29 26.0104 29 26.375C29 26.7396 29.1172 27.0391 29.3516 27.2734C29.5859 27.5078 29.8854 27.625 30.25 27.625Z" fill="#27C177"/>
</svg>
