<?xml version="1.0"?>
<svg xmlns="http://www.w3.org/2000/svg" width="42" height="42" viewBox="0 0 58 58" fill="none">
<circle opacity="0.1" cx="29" cy="29" r="29" fill="#FF7816"/>
<path d="M18.367 27.6515V33.569H16V40.67H23.101V33.569H20.734V30.0185H27.835V33.569H25.468V40.67H32.569V33.569H30.202V30.0185H37.303V33.569H34.936V40.67H42.037V33.569H39.67V27.6515H30.202V24.101H37.303V17H20.734V24.101H27.835V27.6515H18.367ZM20.734 38.303H18.367V35.936H20.734V38.303ZM30.202 38.303H27.835V35.936H30.202V38.303ZM39.67 38.303H37.303V35.936H39.67V38.303ZM23.101 19.367H34.936V21.734H23.101V19.367Z" fill="#FF7816"/>
</svg>
