<?xml version="1.0"?>
<svg xmlns="http://www.w3.org/2000/svg" width="42" height="42" viewBox="0 0 58 59" fill="none">
<circle opacity="0.1" cx="29" cy="29.2031" r="29" fill="#4C49E1"/>
<path d="M19.75 21.3281H39.25V34.3281H42.5V20.5156C42.4661 19.8385 42.2292 19.263 41.7891 18.7891C41.3151 18.349 40.7396 18.112 40.0625 18.0781H18.9375C18.2604 18.112 17.6849 18.349 17.2109 18.7891C16.7708 19.263 16.5339 19.8385 16.5 20.5156V34.3281H19.75V21.3281ZM44.9375 35.9531H14.0625C13.5547 35.987 13.2839 36.2578 13.25 36.7656V37.5781C13.2839 38.4922 13.6055 39.2539 14.2148 39.8633C14.8242 40.4727 15.5859 40.7943 16.5 40.8281H42.5C43.4141 40.7943 44.1758 40.4727 44.7852 39.8633C45.3945 39.2539 45.7161 38.4922 45.75 37.5781V36.7656C45.7161 36.2578 45.4453 35.987 44.9375 35.9531ZM31.8359 30.9766C32.0391 31.1797 32.276 31.2812 32.5469 31.2812C32.8177 31.2812 33.0547 31.1797 33.2578 30.9766L35.6953 28.5391C36.1016 28.0651 36.1016 27.5911 35.6953 27.1172L33.2578 24.6797C32.7839 24.2734 32.3099 24.2734 31.8359 24.6797C31.4297 25.1536 31.4297 25.6276 31.8359 26.1016L33.5625 27.8281L31.8359 29.5547C31.4297 30.0286 31.4297 30.5026 31.8359 30.9766ZM27.1641 24.6797C26.6901 24.2734 26.2161 24.2734 25.7422 24.6797L23.3047 27.1172C22.8984 27.5911 22.8984 28.0651 23.3047 28.5391L25.7422 30.9766C25.9453 31.1797 26.1823 31.2812 26.4531 31.2812C26.724 31.2812 26.9609 31.1797 27.1641 30.9766C27.5703 30.5026 27.5703 30.0286 27.1641 29.5547L25.4375 27.8281L27.1641 26.1016C27.5365 25.6276 27.5365 25.1536 27.1641 24.6797Z" fill="#4C49E1"/>
</svg>
