<svg width="170" height="45" viewBox="0 0 170 45" fill="none" xmlns="http://www.w3.org/2000/svg">
<path fill-rule="evenodd" clip-rule="evenodd" d="M14.0935 0.037165C14.1593 0.0776888 14.5794 0.336165 15.0324 0.617641C19.0257 3.0885 21.9848 6.26907 23.7715 10.0082C24.3209 11.1615 24.9362 13.0026 25.1698 14.1975C26.1646 19.171 23.9579 25.0075 18.7428 31.2317C17.102 33.1867 14.5958 35.6236 12.4769 37.3202C9.17011 39.9597 4.42436 42.8007 0.552751 44.4556C0.285138 44.5772 0.0997836 44.6659 0.132687 44.6747C0.253332 44.6747 2.55656 43.9639 3.92424 43.4951C10.3261 41.2992 16.0425 38.1591 20.4482 34.4211C21.7337 33.3236 23.7144 31.3051 24.6851 30.1025C27.1265 27.0578 28.5655 24.1039 29.2126 20.8182C29.4626 19.5664 29.5197 17.3616 29.342 16.0704C28.5008 10.0728 24.1915 4.91426 17.0449 1.32188C15.856 0.730451 13.7393 -0.197216 14.0946 0.037165M58.56 13.5436C60.3456 13.8175 61.4051 14.3267 62.5205 15.4494C64.0812 17.0079 64.9389 19.0658 65.2054 21.851C65.4631 24.6045 64.7119 27.7763 63.3211 29.7795C62.1081 31.5395 60.3302 32.4354 57.3306 32.8067C56.7975 32.8713 53.7167 32.9118 51.51 32.8877C51.3729 32.8877 51.3641 32.3708 51.3641 23.1993V13.5195L52.1571 13.4955C54.8168 13.4144 57.8395 13.4385 58.56 13.5436ZM51.4047 11.6544C50.6929 11.6872 49.7716 11.7201 49.3669 11.7277L48.6156 11.7354V34.7442H52.8195C55.228 34.7442 57.3635 34.7036 57.8164 34.6555C59.5932 34.4616 61.6003 33.9041 62.7629 33.2831C65.3908 31.8626 67.3638 29.0205 68.0998 25.565C68.3498 24.4183 68.4146 21.9638 68.2292 20.6966C67.8015 17.7822 66.8385 15.7002 65.1484 14.0365C63.8147 12.72 62.6828 12.1549 60.5408 11.7584C59.8049 11.6226 53.7079 11.5503 51.4047 11.6544ZM99.427 13.7134C100.195 13.8744 101.084 14.3191 101.505 14.7385C101.957 15.1909 102.354 15.9488 102.508 16.6355C102.573 16.9509 102.621 17.6125 102.621 18.2017C102.621 19.0253 102.588 19.3407 102.434 19.8654C101.812 22.0208 100.228 22.9649 97.002 23.0941C96.3395 23.1182 95.4007 23.1105 94.9247 23.0788L94.0517 23.0218V13.6729L94.2381 13.6324C94.8753 13.4878 98.611 13.5436 99.427 13.7134ZM94.6165 11.6631C93.3475 11.6872 92.0862 11.719 91.812 11.7277L91.302 11.7354V34.7442H94.0517V24.9746L95.6683 24.9593L97.4144 24.944C97.5109 24.9352 98.6274 26.5507 100.834 29.8682C102.637 32.5887 104.174 34.8811 104.237 34.9698C104.359 35.1319 104.359 35.1319 105.765 34.938C106.542 34.8329 107.197 34.7365 107.229 34.7277C107.262 34.7124 105.661 32.3949 103.671 29.5768C101.683 26.7599 100.066 24.427 100.082 24.4029C100.098 24.3777 100.316 24.3131 100.575 24.2573C102.103 23.9177 104.149 22.3756 104.868 21.0274C105.935 19.0417 105.928 16.6848 104.86 14.6016C104.423 13.7463 103.453 12.7616 102.702 12.3969C101.295 11.7113 99.4928 11.5503 94.6165 11.6631ZM120.698 13.5513C122.404 13.8426 123.755 14.537 124.7 15.595C127.489 18.7274 128.014 24.4829 125.889 28.7302C124.748 30.9974 123.172 32.0882 120.204 32.6621C119.421 32.8155 118.952 32.8385 116.309 32.8636L113.292 32.9031V13.5195L114.004 13.4867C114.392 13.479 115.896 13.4538 117.343 13.4462C119.405 13.4308 120.138 13.4549 120.698 13.5513ZM114.101 11.5985C114.068 11.6314 111.554 11.7277 110.81 11.7354H110.544V34.7442H114.569C116.777 34.7442 118.992 34.7036 119.477 34.6631C121.393 34.4857 123.252 34.0016 124.563 33.3313C127.239 31.9677 129.276 29.1092 130.012 25.6942C130.642 22.8028 130.27 19.4054 129.057 16.7647C127.983 14.4483 126.179 12.7923 123.98 12.1067C122.541 11.6544 122.291 11.639 118.062 11.5985C115.904 11.5821 114.117 11.5821 114.101 11.5985ZM80.4122 20.0505C81.4146 22.8685 82.2635 25.2419 82.2877 25.3142C82.3447 25.4522 82.1177 25.4598 78.2855 25.4598C74.4545 25.4598 74.2275 25.4522 74.2757 25.3142C74.6486 24.2901 78.5038 14.8273 78.5367 14.8678C78.5608 14.9006 79.4009 17.2335 80.4122 20.0515V20.0505ZM77.0977 13.5677C75.9088 16.273 69.247 31.3051 68.4551 33.0739C68.0822 33.9129 67.7751 34.6314 67.7751 34.6719C67.7751 34.7201 68.3422 34.7365 69.1582 34.7277L70.5401 34.7036L72.0043 31.0061L73.4674 27.3174H83.0159L85.6021 34.7442H87.0828C87.8911 34.7442 88.5535 34.7201 88.5459 34.6795C88.5459 34.6467 86.6451 29.4805 84.3255 23.1993L80.0974 11.7759L79.0061 11.7518L77.906 11.7277L77.0977 13.5677ZM133.181 23.2398V34.7442H147.41V32.6457L141.669 32.6293L135.93 32.6052V28.1399V23.6034C135.93 23.5465 137.668 23.5224 140.982 23.5224H146.035V21.5038H140.998C138.225 21.5038 135.937 21.4874 135.921 21.4721C135.906 21.4556 135.897 19.712 135.913 17.596L135.93 13.7539H147.329V11.7354H133.18V23.2398M150.805 23.2398V34.7442H153.256L153.198 32.9918C153.117 30.361 153.077 28.8989 153.028 27.1542C153.004 26.2911 152.963 25.0316 152.947 24.3701C152.842 21.0274 152.729 16.0868 152.753 16.0627C152.77 16.0463 156.311 20.3013 160.62 25.5157C164.937 30.7235 168.503 35.0267 168.559 35.0749C168.648 35.1483 169.472 34.8975 169.707 34.7201C169.781 34.6631 169.804 32.2569 169.804 23.1916V11.7354H167.281L167.33 12.8821C167.355 13.5195 167.396 14.7955 167.418 15.7308C167.443 16.6607 167.476 17.9684 167.499 18.6387C167.525 19.3002 167.556 20.5356 167.581 21.3823C167.605 22.2223 167.662 24.1685 167.701 25.7019C167.8 29.0774 167.815 29.82 167.775 29.8517C167.758 29.8682 164.388 25.7994 160.28 20.8095L152.818 11.7354H150.805V23.2398Z" fill="#757575"/>
<path fill-rule="evenodd" clip-rule="evenodd" d="M44.8239 6.69949C40.4588 7.09487 35.9631 8.13753 32.2121 9.60625C30.7973 10.1637 28.3405 11.2699 28.1376 11.455C28.0652 11.5196 27.8788 11.6248 27.7252 11.6971C27.5717 11.7693 27.337 11.8997 27.1988 11.9884C27.0705 12.076 26.8687 12.1899 26.7557 12.2469C26.6416 12.3016 26.1327 12.6258 25.6227 12.9642C19.8504 16.7998 17.1337 21.7481 18.4443 26.0195C18.6626 26.7456 19.2362 27.9811 19.3327 27.9252C19.438 27.8595 20.8452 25.6964 21.2817 24.9297C21.6623 24.2671 21.6623 24.2594 21.6623 23.5081C21.6623 22.161 21.9529 20.9409 22.5748 19.666C24.3779 15.9597 28.5577 12.536 34.4353 9.94577C37.7015 8.50773 41.8495 7.32925 45.584 6.78053C46.0534 6.70825 46.4494 6.63487 46.4735 6.61953C46.5218 6.56258 46.1181 6.58668 44.8239 6.69949ZM26.2139 31.3073C25.8903 31.6709 25.4374 32.1791 25.2027 32.4376C24.7179 32.9786 24.6608 32.9063 25.8256 33.4069C26.8434 33.8581 28.0806 34.2776 29.2454 34.5853L30.1513 34.8186L31.0156 33.8986C31.5003 33.3817 31.8974 32.9381 31.9127 32.9063C31.9204 32.8735 31.4927 32.6873 30.9585 32.5022C29.763 32.0816 28.4688 31.5099 27.5881 31.016C27.224 30.8079 26.8928 30.637 26.8599 30.637C26.827 30.6458 26.5297 30.9437 26.2139 31.3073Z" fill="#757575"/>
</svg>
