<?xml version="1.0"?>
<svg xmlns="http://www.w3.org/2000/svg" width="42" height="42" viewBox="0 0 50 50" fill="none">
<rect width="49.5" height="49.5" rx="16.5" fill="#AAB716"/>
<path d="M33.1705 34.7555C33.8519 33.7238 34.126 32.4758 33.9396 31.2535C33.7532 30.0312 33.1197 28.9216 32.1618 28.1398C31.2039 27.358 29.9899 26.9596 28.755 27.022C27.5202 27.0843 26.3524 27.6029 25.4781 28.4772C24.6039 29.3515 24.0853 30.5192 24.023 31.7541C23.9606 32.9889 24.359 34.203 25.1408 35.1609C25.9226 36.1187 27.0322 36.7523 28.2545 36.9386C29.4768 37.125 30.7248 36.8509 31.7565 36.1695L34.2925 38.7055C34.4811 38.8877 34.7337 38.9885 34.9959 38.9862C35.2581 38.9839 35.5089 38.8788 35.6943 38.6934C35.8797 38.5079 35.9849 38.2571 35.9872 37.9949C35.9895 37.7327 35.8887 37.4801 35.7065 37.2915L33.1705 34.7555ZM26.8775 34.1195C26.4581 33.6999 26.1726 33.1653 26.057 32.5835C25.9414 32.0016 26.0009 31.3985 26.2281 30.8504C26.4552 30.3023 26.8397 29.8339 27.333 29.5044C27.8263 29.1748 28.4063 28.9989 28.9995 28.9989C29.5928 28.9989 30.1727 29.1748 30.666 29.5044C31.1593 29.8339 31.5438 30.3023 31.771 30.8504C31.9981 31.3985 32.0576 32.0016 31.942 32.5835C31.8264 33.1653 31.5409 33.6999 31.1215 34.1195C30.8443 34.4008 30.514 34.6242 30.1497 34.7767C29.7854 34.9292 29.3944 35.0077 28.9995 35.0077C28.6046 35.0077 28.2136 34.9292 27.8493 34.7767C27.485 34.6242 27.1547 34.4008 26.8775 34.1195Z" fill="white"/>
<path d="M19 19H25C25.2652 19 25.5196 18.8946 25.7071 18.7071C25.8946 18.5196 26 18.2652 26 18C26 17.7348 25.8946 17.4804 25.7071 17.2929C25.5196 17.1054 25.2652 17 25 17H19C18.7348 17 18.4804 17.1054 18.2929 17.2929C18.1054 17.4804 18 17.7348 18 18C18 18.2652 18.1054 18.5196 18.2929 18.7071C18.4804 18.8946 18.7348 19 19 19Z" fill="white"/>
<path d="M30 22C30 21.7348 29.8946 21.4804 29.7071 21.2929C29.5196 21.1054 29.2652 21 29 21H19C18.7348 21 18.4804 21.1054 18.2929 21.2929C18.1054 21.4804 18 21.7348 18 22C18 22.2652 18.1054 22.5196 18.2929 22.7071C18.4804 22.8946 18.7348 23 19 23H29C29.2652 23 29.5196 22.8946 29.7071 22.7071C29.8946 22.5196 30 22.2652 30 22Z" fill="white"/>
<path d="M19 25C18.7348 25 18.4804 25.1054 18.2929 25.2929C18.1054 25.4804 18 25.7348 18 26C18 26.2652 18.1054 26.5196 18.2929 26.7071C18.4804 26.8946 18.7348 27 19 27H22C22.2652 27 22.5196 26.8946 22.7071 26.7071C22.8946 26.5196 23 26.2652 23 26C23 25.7348 22.8946 25.4804 22.7071 25.2929C22.5196 25.1054 22.2652 25 22 25H19Z" fill="white"/>
<path d="M34.536 15.121L31.878 12.465C31.4149 11.9993 30.864 11.63 30.2572 11.3785C29.6504 11.127 28.9998 10.9984 28.343 11H19C17.6744 11.0016 16.4036 11.5289 15.4662 12.4662C14.5289 13.4036 14.0016 14.6744 14 16V34C14.0016 35.3256 14.5289 36.5965 15.4662 37.5338C16.4036 38.4711 17.6744 38.9984 19 39H24C24.2652 39 24.5196 38.8947 24.7071 38.7071C24.8946 38.5196 25 38.2652 25 38C25 37.7348 24.8946 37.4804 24.7071 37.2929C24.5196 37.1054 24.2652 37 24 37H19C18.2044 37 17.4413 36.6839 16.8787 36.1213C16.3161 35.5587 16 34.7957 16 34V16C16 15.2044 16.3161 14.4413 16.8787 13.8787C17.4413 13.3161 18.2044 13 19 13H28V16C28 16.7957 28.3161 17.5587 28.8787 18.1213C29.4413 18.6839 30.2044 19 31 19H34V27C34 27.2652 34.1054 27.5196 34.2929 27.7071C34.4804 27.8947 34.7348 28 35 28C35.2652 28 35.5196 27.8947 35.7071 27.7071C35.8946 27.5196 36 27.2652 36 27V18.657C36.0019 18.0001 35.8735 17.3493 35.6222 16.7424C35.3709 16.1354 35.0017 15.5843 34.536 15.121ZM30 16V13.5C30.1671 13.6095 30.3226 13.7359 30.464 13.877L33.122 16.533C33.2628 16.6761 33.3894 16.8325 33.5 17H31C30.7348 17 30.4804 16.8947 30.2929 16.7071C30.1054 16.5196 30 16.2652 30 16Z" fill="white"/>
</svg>
