<svg width="48" height="48" viewBox="0 0 48 48" fill="none" xmlns="http://www.w3.org/2000/svg">
<rect width="48" height="48" rx="24" fill="#FBE9F3"/>
<mask id="mask0_1001_9055" style="mask-type:luminance" maskUnits="userSpaceOnUse" x="11" y="10" width="27" height="27">
<path d="M37 11H12V36H37V11Z" fill="white" stroke="white" stroke-width="0.1"/>
</mask>
<g mask="url(#mask0_1001_9055)">
<path d="M36.2675 11H33.3378C33.2416 11 33.1464 11.0189 33.0575 11.0558C32.9687 11.0926 32.888 11.1465 32.82 11.2146C32.752 11.2826 32.698 11.3633 32.6613 11.4522C32.6245 11.5411 32.6056 11.6363 32.6056 11.7325V12.4647H26.5712C26.4198 12.0364 26.1393 11.6655 25.7684 11.4032C25.3974 11.1409 24.9543 11.0001 24.5 11.0001C24.0457 11.0001 23.6026 11.1409 23.2316 11.4032C22.8607 11.6655 22.5802 12.0364 22.4288 12.4647H16.3947V11.7325C16.3947 11.5382 16.3175 11.3519 16.1801 11.2145C16.0428 11.0772 15.8565 11 15.6622 11H12.7325C12.6363 11 12.541 11.0189 12.4521 11.0557C12.3632 11.0925 12.2825 11.1464 12.2145 11.2145C12.1464 11.2825 12.0925 11.3632 12.0557 11.4521C12.0189 11.541 12 11.6363 12 11.7325V14.6622C12 14.7584 12.0189 14.8536 12.0558 14.9425C12.0926 15.0313 12.1465 15.112 12.2146 15.18C12.2826 15.248 12.3633 15.302 12.4522 15.3387C12.5411 15.3755 12.6363 15.3944 12.7325 15.3944H15.6622C15.8564 15.3944 16.0427 15.3172 16.18 15.1799C16.3174 15.0426 16.3946 14.8564 16.3947 14.6622V13.92H19.4403C18.1619 14.7327 17.0935 15.8357 16.3219 17.1393C15.5503 18.4429 15.0974 19.9102 15 21.4219C14.5101 21.5902 14.0955 21.9261 13.8293 22.3705C13.5632 22.8148 13.4626 23.3389 13.5453 23.8502C13.6281 24.3615 13.8889 24.8271 14.2816 25.1648C14.6743 25.5025 15.1738 25.6905 15.6917 25.6957C16.2096 25.7009 16.7127 25.5229 17.1122 25.1931C17.5116 24.8634 17.7816 24.403 17.8746 23.8935C17.9675 23.384 17.8774 22.8579 17.6202 22.4084C17.363 21.9588 16.9551 21.6146 16.4688 21.4366C16.602 19.7469 17.2569 18.1403 18.343 16.839C19.4291 15.5378 20.8926 14.6061 22.5312 14.1728C22.7128 14.5399 22.9933 14.849 23.3412 15.0651C23.6891 15.2811 24.0905 15.3956 24.5 15.3956C24.9095 15.3956 25.3109 15.2811 25.6588 15.0651C26.0067 14.849 26.2872 14.5399 26.4688 14.1728C28.1081 14.6056 29.5723 15.5372 30.6589 16.8387C31.7455 18.1402 32.4007 19.7473 32.5338 21.4375C32.047 21.6156 31.6389 21.9599 31.3814 22.4097C31.1239 22.8596 31.0337 23.3859 31.1267 23.8958C31.2196 24.4057 31.4898 24.8663 31.8895 25.1963C32.2891 25.5263 32.7926 25.7044 33.3108 25.6992C33.8291 25.694 34.3288 25.5059 34.7218 25.168C35.1148 24.83 35.3757 24.3641 35.4585 23.8525C35.5412 23.3408 35.4405 22.8164 35.1741 22.3718C34.9077 21.9272 34.4927 21.5911 34.0025 21.4228C33.9048 19.9121 33.4514 18.4459 32.6793 17.1437C31.9072 15.8415 30.8383 14.7402 29.5597 13.9297H32.6056V14.6622C32.6056 14.8564 32.6828 15.0426 32.8201 15.1799C32.9574 15.3172 33.1436 15.3944 33.3378 15.3944H36.2675C36.4617 15.3944 36.648 15.3172 36.7853 15.1799C36.9227 15.0426 36.9999 14.8564 37 14.6622V11.7325C37 11.5382 36.9228 11.3519 36.7855 11.2145C36.6481 11.0772 36.4618 11 36.2675 11ZM14.9297 13.9297H13.465V12.465H14.9297V13.9297ZM15.7109 24.2325C15.5661 24.2325 15.4244 24.1895 15.304 24.1091C15.1835 24.0286 15.0896 23.9142 15.0342 23.7803C14.9788 23.6465 14.9642 23.4992 14.9925 23.3571C15.0208 23.215 15.0905 23.0845 15.193 22.982C15.2954 22.8796 15.4259 22.8098 15.568 22.7816C15.7101 22.7533 15.8574 22.7678 15.9913 22.8233C16.1251 22.8787 16.2395 22.9726 16.32 23.093C16.4005 23.2135 16.4434 23.3551 16.4434 23.5C16.4432 23.6942 16.3659 23.8804 16.2286 24.0177C16.0913 24.155 15.9051 24.2323 15.7109 24.2325ZM24.5 13.9297C24.3551 13.9297 24.2135 13.8867 24.093 13.8062C23.9726 13.7258 23.8787 13.6114 23.8233 13.4775C23.7678 13.3437 23.7533 13.1964 23.7816 13.0543C23.8098 12.9122 23.8796 12.7817 23.982 12.6792C24.0845 12.5768 24.215 12.507 24.3571 12.4788C24.4992 12.4505 24.6465 12.465 24.7803 12.5204C24.9142 12.5759 25.0286 12.6698 25.1091 12.7902C25.1895 12.9107 25.2325 13.0523 25.2325 13.1972C25.2323 13.3914 25.155 13.5776 25.0177 13.7149C24.8804 13.8522 24.6942 13.9294 24.5 13.9297ZM33.2891 22.7675C33.4339 22.7675 33.5756 22.8105 33.696 22.8909C33.8165 22.9714 33.9104 23.0858 33.9658 23.2197C34.0212 23.3535 34.0358 23.5008 34.0075 23.6429C33.9792 23.785 33.9095 23.9155 33.807 24.018C33.7046 24.1204 33.5741 24.1902 33.432 24.2184C33.2899 24.2467 33.1426 24.2322 33.0087 24.1767C32.8749 24.1213 32.7605 24.0274 32.68 23.907C32.5995 23.7865 32.5566 23.6449 32.5566 23.5C32.5568 23.3058 32.6341 23.1196 32.7714 22.9823C32.9087 22.845 33.0949 22.7677 33.2891 22.7675ZM35.5353 13.9297H34.0706V12.465H35.5353V13.9297Z" fill="#DA2587" stroke="#F4F4F4" stroke-width="0.1"/>
<path d="M30.9716 26.0237L25.1123 17.2343C25.1101 17.2308 25.1079 17.228 25.1057 17.2249C25.0954 17.2102 25.0851 17.1962 25.0745 17.1827C25.0031 17.094 24.9119 17.0231 24.8083 16.9757C24.7047 16.9284 24.5915 16.9059 24.4776 16.91C24.3638 16.9141 24.2525 16.9447 24.1525 16.9993C24.0526 17.054 23.9668 17.1312 23.902 17.2249C23.8998 17.228 23.8976 17.2308 23.8954 17.2343L18.0341 26.0237C17.9402 26.1645 17.898 26.3336 17.9147 26.5021C17.9314 26.6705 18.006 26.828 18.1257 26.9477C19.5852 28.4082 20.5158 30.3138 20.7704 32.3627C20.6555 32.4553 20.5461 32.5544 20.4426 32.6596C19.7582 33.3551 19.375 34.292 19.376 35.2677C19.376 35.4619 19.4532 35.6481 19.5905 35.7855C19.7278 35.9228 19.914 35.9999 20.1082 35.9999H28.8973C29.0915 35.9999 29.2778 35.9228 29.4151 35.7855C29.5525 35.6482 29.6297 35.4619 29.6298 35.2677C29.6292 34.7099 29.5036 34.1593 29.2623 33.6564C29.021 33.1535 28.6701 32.711 28.2354 32.3615C28.4898 30.3125 29.4205 28.4069 30.8801 26.9465C30.9998 26.8268 31.0744 26.6693 31.0911 26.5008C31.1078 26.3323 31.0656 26.1633 30.9716 26.0224M24.5029 25.6974C24.6478 25.6974 24.7894 25.7404 24.9099 25.8209C25.0304 25.9014 25.1242 26.0158 25.1797 26.1497C25.2351 26.2835 25.2496 26.4308 25.2213 26.5729C25.193 26.715 25.1232 26.8456 25.0207 26.948C24.9183 27.0504 24.7877 27.1201 24.6456 27.1484C24.5035 27.1766 24.3562 27.1621 24.2224 27.1066C24.0885 27.0511 23.9741 26.9571 23.8937 26.8366C23.8132 26.7161 23.7703 26.5745 23.7704 26.4296C23.7706 26.2354 23.8479 26.0493 23.9852 25.912C24.1226 25.7748 24.3087 25.6976 24.5029 25.6974ZM20.9657 34.5352C21.1141 34.1008 21.3925 33.7225 21.7632 33.4517C22.1339 33.1809 22.5789 33.0307 23.0379 33.0215H25.9676C26.4266 33.0307 26.8717 33.1809 27.2424 33.4517C27.6132 33.7225 27.8917 34.1008 28.0401 34.5352H20.9657ZM26.8585 31.668C26.5673 31.5939 26.268 31.5566 25.9676 31.5568H23.0379C22.7375 31.5566 22.4383 31.594 22.1473 31.668C21.8035 29.6904 20.9129 27.8485 19.5763 26.3509L23.7704 20.0596V24.3584C23.2817 24.5311 22.8699 24.8711 22.6077 25.3182C22.3455 25.7652 22.2497 26.2906 22.3374 26.8014C22.425 27.3123 22.6904 27.7757 23.0867 28.1097C23.483 28.4438 23.9846 28.627 24.5029 28.627C25.0212 28.627 25.5228 28.4438 25.9191 28.1097C26.3154 27.7757 26.5808 27.3123 26.6684 26.8014C26.7561 26.2906 26.6603 25.7652 26.3981 25.3182C26.1359 24.8711 25.724 24.5311 25.2354 24.3584V20.0596L29.4295 26.3509C28.0926 27.8483 27.202 29.6903 26.8585 31.668Z" fill="#DA2587"/>
<path d="M30.9716 26.0237L25.1123 17.2343C25.1101 17.2308 25.1079 17.228 25.1057 17.2249C25.0954 17.2102 25.0851 17.1962 25.0745 17.1827C25.0031 17.094 24.9119 17.0231 24.8083 16.9757C24.7047 16.9284 24.5915 16.9059 24.4776 16.91C24.3638 16.9141 24.2525 16.9447 24.1525 16.9993C24.0526 17.054 23.9668 17.1312 23.902 17.2249C23.8998 17.228 23.8976 17.2308 23.8954 17.2343L18.0341 26.0237C17.9402 26.1645 17.898 26.3336 17.9147 26.5021C17.9314 26.6705 18.006 26.828 18.1257 26.9477C19.5852 28.4082 20.5158 30.3138 20.7704 32.3627C20.6555 32.4553 20.5461 32.5544 20.4426 32.6596C19.7582 33.3551 19.375 34.292 19.376 35.2677C19.376 35.4619 19.4532 35.6481 19.5905 35.7855C19.7278 35.9228 19.914 35.9999 20.1082 35.9999H28.8973C29.0915 35.9999 29.2778 35.9228 29.4151 35.7855C29.5525 35.6482 29.6297 35.4619 29.6298 35.2677C29.6292 34.7099 29.5036 34.1593 29.2623 33.6564C29.021 33.1535 28.6701 32.711 28.2354 32.3615C28.4898 30.3125 29.4205 28.4069 30.8801 26.9465C30.9998 26.8268 31.0744 26.6693 31.0911 26.5008C31.1078 26.3323 31.0656 26.1633 30.9716 26.0224M24.5029 25.6974C24.6478 25.6974 24.7894 25.7404 24.9099 25.8209C25.0304 25.9014 25.1242 26.0158 25.1797 26.1497C25.2351 26.2835 25.2496 26.4308 25.2213 26.5729C25.193 26.715 25.1232 26.8456 25.0207 26.948C24.9183 27.0504 24.7877 27.1201 24.6456 27.1484C24.5035 27.1766 24.3562 27.1621 24.2224 27.1066C24.0885 27.0511 23.9741 26.9571 23.8937 26.8366C23.8132 26.7161 23.7703 26.5745 23.7704 26.4296C23.7706 26.2354 23.8479 26.0493 23.9852 25.912C24.1226 25.7748 24.3087 25.6976 24.5029 25.6974ZM20.9657 34.5352C21.1141 34.1008 21.3925 33.7225 21.7632 33.4517C22.1339 33.1809 22.5789 33.0307 23.0379 33.0215H25.9676C26.4266 33.0307 26.8717 33.1809 27.2424 33.4517C27.6132 33.7225 27.8917 34.1008 28.0401 34.5352H20.9657ZM26.8585 31.668C26.5673 31.5939 26.268 31.5566 25.9676 31.5568H23.0379C22.7375 31.5566 22.4383 31.594 22.1473 31.668C21.8035 29.6904 20.9129 27.8485 19.5763 26.3509L23.7704 20.0596V24.3584C23.2817 24.5311 22.8699 24.8711 22.6077 25.3182C22.3455 25.7652 22.2497 26.2906 22.3374 26.8014C22.425 27.3123 22.6904 27.7757 23.0867 28.1097C23.483 28.4438 23.9846 28.627 24.5029 28.627C25.0212 28.627 25.5228 28.4438 25.9191 28.1097C26.3154 27.7757 26.5808 27.3123 26.6684 26.8014C26.7561 26.2906 26.6603 25.7652 26.3981 25.3182C26.1359 24.8711 25.724 24.5311 25.2354 24.3584V20.0596L29.4295 26.3509C28.0926 27.8483 27.202 29.6903 26.8585 31.668Z" stroke="#F4F4F4" stroke-width="0.1"/>
</g>
</svg>
