<?xml version="1.0"?>
<svg xmlns="http://www.w3.org/2000/svg" width="42" height="42" viewBox="0 0 58 58" fill="none">
<circle opacity="0.1" cx="29" cy="29" r="29" fill="#C2D020"/>
<path d="M24.125 18.7812C24.5938 19.2812 24.625 19.8125 24.2188 20.375L20.8438 24.125C20.625 24.375 20.3594 24.4844 20.0469 24.4531C19.7031 24.5156 19.4219 24.4062 19.2031 24.125L17.3281 22.25C16.8906 21.75 16.8906 21.2344 17.3281 20.7031C17.8594 20.2656 18.3906 20.2656 18.9219 20.7031L19.9531 21.7344L22.5312 18.875C23.0312 18.4062 23.5625 18.375 24.125 18.7812ZM24.125 26.2812C24.5938 26.7812 24.625 27.3125 24.2188 27.875L20.8438 31.625C20.625 31.875 20.3594 31.9844 20.0469 31.9531C19.7031 32.0156 19.4219 31.9062 19.2031 31.625L17.3281 29.75C16.8906 29.25 16.8906 28.7344 17.3281 28.2031C17.8594 27.7656 18.3906 27.7656 18.9219 28.2031L19.9531 29.2344L22.5312 26.375C23.0312 25.9062 23.5625 25.875 24.125 26.2812ZM27.5 21.5C27.5 21.0625 27.6406 20.7031 27.9219 20.4219C28.2031 20.1406 28.5625 20 29 20H39.5C39.9375 20 40.2969 20.1406 40.5781 20.4219C40.8594 20.7031 41 21.0625 41 21.5C41 21.9375 40.8594 22.2969 40.5781 22.5781C40.2969 22.8594 39.9375 23 39.5 23H29C28.5625 23 28.2031 22.8594 27.9219 22.5781C27.6406 22.2969 27.5 21.9375 27.5 21.5ZM27.5 29C27.5 28.5625 27.6406 28.2031 27.9219 27.9219C28.2031 27.6406 28.5625 27.5 29 27.5H39.5C39.9375 27.5 40.2969 27.6406 40.5781 27.9219C40.8594 28.2031 41 28.5625 41 29C41 29.4375 40.8594 29.7969 40.5781 30.0781C40.2969 30.3594 39.9375 30.5 39.5 30.5H29C28.5625 30.5 28.2031 30.3594 27.9219 30.0781C27.6406 29.7969 27.5 29.4375 27.5 29ZM24.5 36.5C24.5 36.0625 24.6406 35.7031 24.9219 35.4219C25.2031 35.1406 25.5625 35 26 35H39.5C39.9375 35 40.2969 35.1406 40.5781 35.4219C40.8594 35.7031 41 36.0625 41 36.5C41 36.9375 40.8594 37.2969 40.5781 37.5781C40.2969 37.8594 39.9375 38 39.5 38H26C25.5625 38 25.2031 37.8594 24.9219 37.5781C24.6406 37.2969 24.5 36.9375 24.5 36.5ZM17 36.5C17.0312 35.875 17.25 35.3438 17.6562 34.9062C18.0938 34.5 18.625 34.2812 19.25 34.25C19.875 34.2812 20.4062 34.5 20.8438 34.9062C21.25 35.3438 21.4688 35.875 21.5 36.5C21.4688 37.125 21.25 37.6562 20.8438 38.0938C20.4062 38.5 19.875 38.7188 19.25 38.75C18.625 38.7188 18.0938 38.5 17.6562 38.0938C17.25 37.6562 17.0312 37.125 17 36.5Z" fill="#AAB716"/>
</svg>
