<svg width="48" height="48" viewBox="0 0 48 48" fill="none" xmlns="http://www.w3.org/2000/svg">
<circle opacity="0.1" cx="24" cy="24" r="24" fill="#DA2587"/>
<path d="M20.1328 29.5391L18.9219 28.2891C18.5833 27.9505 18.4661 27.5469 18.5703 27.0781C18.6745 26.7135 18.8438 26.2708 19.0781 25.75H14.9375C14.5729 25.75 14.2995 25.5938 14.1172 25.2812C13.9609 24.9688 13.9609 24.6562 14.1172 24.3438L16.1875 20.8672C16.7344 19.9818 17.5417 19.513 18.6094 19.4609H21.8125C21.8906 19.3568 21.9688 19.2396 22.0469 19.1094C22.0729 19.0833 22.0859 19.0703 22.0859 19.0703C23.1797 17.5078 24.3776 16.388 25.6797 15.7109C26.9818 15.0339 28.2708 14.6432 29.5469 14.5391C30.8229 14.4609 31.9427 14.513 32.9062 14.6953C33.375 14.8255 33.6745 15.125 33.8047 15.5938C33.987 16.5573 34.0391 17.6771 33.9609 18.9531C33.8568 20.2292 33.4661 21.5182 32.7891 22.8203C32.112 24.1224 30.9922 25.3203 29.4297 26.4141C29.2734 26.5182 29.1302 26.5964 29 26.6484V29.8906C28.974 30.9583 28.5182 31.7656 27.6328 32.3125L24.1562 34.3828C23.8438 34.5391 23.5312 34.5391 23.2188 34.3828C22.9062 34.2005 22.75 33.9271 22.75 33.5625V29.3828C22.2031 29.5651 21.7344 29.7214 21.3438 29.8516C20.875 29.9818 20.4714 29.8776 20.1328 29.5391ZM29 21.0234C29.4427 21.0234 29.8073 20.8802 30.0938 20.5938C30.4062 20.3073 30.5625 19.9297 30.5625 19.4609C30.5625 19.0443 30.4062 18.6797 30.0938 18.3672C29.8073 18.0807 29.4427 17.9245 29 17.8984C28.5573 17.9245 28.1927 18.0807 27.9062 18.3672C27.5938 18.6797 27.4375 19.0443 27.4375 19.4609C27.4375 19.9297 27.5938 20.3073 27.9062 20.5938C28.1927 20.8802 28.5573 21.0234 29 21.0234Z" fill="#DA2587"/>
</svg>
