<?xml version="1.0"?>
<svg xmlns="http://www.w3.org/2000/svg" width="42" height="42" viewBox="0 0 50 50" fill="none">
<rect width="49.5" height="49.5" rx="16.5" fill="#4C49E1"/>
<path fill-rule="evenodd" clip-rule="evenodd" d="M19.0578 37.6818C20.2823 37.6818 21.0646 35.4538 20.3673 33.821H14.9592C13.3265 33.821 12 32.4944 12 30.8616V20.5378C12 18.905 13.3265 17.5784 14.9592 17.5784H16.0986C16.5918 12.8842 20.8946 9.4996 25.4524 10.0609C29.398 10.5031 32.5102 13.6495 32.9184 17.5784H34.0408C35.6735 17.5784 37 18.905 37 20.5378V30.8616C37 32.4944 35.6735 33.821 34.0578 33.821H28.6327C27.9524 35.4367 28.6837 37.6648 29.9762 37.6818H30.8265C31.7279 37.6818 31.7279 39.0424 30.8265 39.0424H18.1905C17.2891 39.0424 17.2891 37.6818 18.1905 37.6818H19.0578ZM21.8129 33.821C22.1701 35.1136 22 36.6103 21.3197 37.6818H27.6973C27.017 36.6103 26.8299 35.1136 27.2041 33.821H21.8129ZM34.0408 32.4604C34.9252 32.4604 35.6395 31.746 35.6395 30.8616V20.5378C35.6395 19.6534 34.9252 18.939 34.0408 18.939H32.9524C32.6803 23.8373 28.2415 27.477 23.5476 26.8817C19.449 26.4225 16.2857 23.0379 16.0646 18.939H14.9592C14.0748 18.939 13.3605 19.6534 13.3605 20.5378V30.8616C13.3605 31.746 14.0748 32.4604 14.9592 32.4604C21.3197 32.4604 27.6803 32.4604 34.0408 32.4604ZM24.5 11.3705C24.3129 11.3705 24.1429 11.3875 23.9558 11.3875C23.4966 11.8467 23.0544 12.7651 22.7313 14.0407C23.9048 14.1258 25.1122 14.1258 26.2687 14.0407C25.9456 12.7651 25.5034 11.8467 25.0612 11.3875C24.8742 11.3875 24.6871 11.3705 24.5 11.3705ZM22.085 11.7957C21.0816 12.1698 20.1973 12.7481 19.466 13.4795C20.0272 13.6495 20.6735 13.7856 21.3707 13.8877C21.5578 13.0883 21.7959 12.391 22.085 11.7957ZM18.5476 14.619C17.9354 15.5374 17.5442 16.6259 17.4422 17.7995H20.8776C20.9116 16.8981 20.9796 16.0307 21.1156 15.2313C20.1463 15.0782 19.2789 14.8741 18.5476 14.619ZM17.4422 19.1601C17.5442 20.3167 17.9354 21.4052 18.5476 22.3406C19.2789 22.0685 20.1463 21.8644 21.1156 21.7283C20.9796 20.9289 20.9116 20.0615 20.8776 19.1601H17.4422ZM19.466 23.4631C20.1973 24.2115 21.0816 24.7898 22.085 25.1469C21.7959 24.5516 21.5578 23.8543 21.3707 23.072C20.6735 23.174 20.0272 23.3101 19.466 23.4631ZM23.9558 25.5551C24.1088 25.5721 24.9762 25.5891 25.0612 25.5551C25.5034 25.0959 25.9456 24.1775 26.2687 22.9189C25.1122 22.8168 23.9048 22.8168 22.7313 22.9189C23.0544 24.1775 23.4966 25.0959 23.9558 25.5551ZM26.932 25.1469C27.9184 24.7898 28.8197 24.2115 29.551 23.4631C28.9898 23.3101 28.3435 23.174 27.6463 23.072C27.4592 23.8543 27.2041 24.5516 26.932 25.1469ZM30.4694 22.3406C31.0646 21.4052 31.4558 20.3167 31.5748 19.1601H28.1395C28.1054 20.0615 28.0204 20.9289 27.9014 21.7283C28.8707 21.8644 29.7381 22.0685 30.4694 22.3406ZM31.5748 17.7995C31.4558 16.6259 31.0646 15.5374 30.4694 14.619C29.7381 14.8741 28.8707 15.0782 27.9014 15.2313C28.0204 16.0307 28.1054 16.8981 28.1395 17.7995H31.5748ZM29.551 13.4795C28.8197 12.7481 27.9184 12.1698 26.932 11.7957C27.2211 12.391 27.4592 13.0883 27.6463 13.8877C28.3435 13.7856 28.9898 13.6495 29.551 13.4795ZM26.5408 21.5753C26.6599 20.8439 26.7449 20.0275 26.7789 19.1601H22.2381C22.2721 20.0275 22.3401 20.8439 22.4592 21.5753C23.7857 21.4562 25.2143 21.4562 26.5408 21.5753ZM26.7789 17.7995C26.7449 16.9151 26.6599 16.1157 26.5408 15.3844C25.2143 15.4864 23.7857 15.4864 22.4592 15.3844C22.3401 16.1157 22.2721 16.9151 22.2381 17.7995H26.7789ZM33.1224 30.3854H15.8776C14.9932 30.3854 14.9932 29.0247 15.8776 29.0247H33.1224C34.0238 29.0247 34.0238 30.3854 33.1224 30.3854Z" fill="white"/>
</svg>
