<?xml version="1.0"?>
<svg xmlns="http://www.w3.org/2000/svg" width="40" height="40" viewBox="0 0 40 40" fill="none">
<rect width="40" height="40" rx="8" fill="#FBF0E9"/>
<path d="M14 12C14.3958 12.0208 14.6458 12.2292 14.75 12.625L14.7812 13H27.9375C28.2708 13.0208 28.5312 13.1562 28.7188 13.4062C28.9062 13.6562 28.9688 13.9479 28.9062 14.2812L27.2188 20.2812C27.0521 20.7396 26.7292 20.9792 26.25 21H16.3438L16.625 22.5H26.25C26.7083 22.5417 26.9583 22.7917 27 23.25C26.9583 23.7083 26.7083 23.9583 26.25 24H15.9688C15.5938 23.9792 15.3542 23.7812 15.25 23.4062L13.375 13.5H11.75C11.2917 13.4583 11.0417 13.2083 11 12.75C11.0417 12.2917 11.2917 12.0417 11.75 12H14ZM19.5 17.625H20.875V19C20.8958 19.375 21.1042 19.5833 21.5 19.625C21.875 19.5833 22.0833 19.375 22.125 19V17.625H23.5C23.875 17.5833 24.0833 17.375 24.125 17C24.0833 16.6042 23.875 16.3958 23.5 16.375H22.125V15C22.0833 14.625 21.875 14.4167 21.5 14.375C21.1042 14.4167 20.8958 14.625 20.875 15V16.375H19.5C19.1042 16.3958 18.8958 16.6042 18.875 17C18.8958 17.375 19.1042 17.5833 19.5 17.625ZM15 26.5C15.0208 26.0833 15.1667 25.7292 15.4375 25.4375C15.7292 25.1667 16.0833 25.0208 16.5 25C16.9167 25.0208 17.2708 25.1667 17.5625 25.4375C17.8333 25.7292 17.9792 26.0833 18 26.5C17.9792 26.9167 17.8333 27.2708 17.5625 27.5625C17.2708 27.8333 16.9167 27.9792 16.5 28C16.0833 27.9792 15.7292 27.8333 15.4375 27.5625C15.1667 27.2708 15.0208 26.9167 15 26.5ZM27 26.5C26.9792 26.9167 26.8333 27.2708 26.5625 27.5625C26.2708 27.8333 25.9167 27.9792 25.5 28C25.0833 27.9792 24.7292 27.8333 24.4375 27.5625C24.1667 27.2708 24.0208 26.9167 24 26.5C24.0208 26.0833 24.1667 25.7292 24.4375 25.4375C24.7292 25.1667 25.0833 25.0208 25.5 25C25.9167 25.0208 26.2708 25.1667 26.5625 25.4375C26.8333 25.7292 26.9792 26.0833 27 26.5Z" fill="#DA6625"/>
</svg>
