<?xml version="1.0"?>
<svg xmlns="http://www.w3.org/2000/svg" width="40" height="40" viewBox="0 0 40 40" fill="none">
<rect width="40" height="40" rx="8" fill="#F1F2E8"/>
<path d="M27.3131 22.5V13.5C27.2923 13.0833 27.1465 12.7292 26.8756 12.4375C26.584 12.1667 26.2298 12.0208 25.8131 12H16.3131C15.459 12.0208 14.7506 12.3125 14.1881 12.875C13.6256 13.4375 13.334 14.1458 13.3131 15V25C13.334 25.8542 13.6256 26.5625 14.1881 27.125C14.7506 27.6875 15.459 27.9792 16.3131 28H26.3131C26.6048 28 26.8444 27.9062 27.0319 27.7188C27.2194 27.5312 27.3131 27.3021 27.3131 27.0312C27.2923 26.6562 27.1256 26.375 26.8131 26.1875V23.625C27.1256 23.3333 27.2923 22.9583 27.3131 22.5ZM17.7819 16H23.7819C24.1152 16.0208 24.2923 16.1875 24.3131 16.5C24.2923 16.8125 24.1256 16.9792 23.8131 17H17.7819C17.511 16.9792 17.3548 16.8125 17.3131 16.5C17.3548 16.1875 17.511 16.0208 17.7819 16ZM17.7819 18H23.7819C24.1152 18.0208 24.2923 18.1875 24.3131 18.5C24.2923 18.8125 24.1256 18.9792 23.8131 19H17.7819C17.511 18.9792 17.3548 18.8125 17.3131 18.5C17.3548 18.1875 17.511 18.0208 17.7819 18ZM25.3131 26H16.3131C16.0215 26 15.7819 25.9062 15.5944 25.7188C15.4069 25.5312 15.3131 25.2917 15.3131 25C15.3131 24.7083 15.4069 24.4688 15.5944 24.2812C15.7819 24.0938 16.0215 24 16.3131 24H25.3131V26Z" fill="#C2D020"/>
</svg>
