<?xml version="1.0"?>
<svg xmlns="http://www.w3.org/2000/svg" width="42" height="42" viewBox="0 0 50 50" fill="none">
<rect width="49.5" height="49.5" rx="16.5" fill="#AAB716"/>
<path d="M10 31H13C13.4375 31 13.7969 30.8594 14.0781 30.5781C14.3594 30.2969 14.5 29.9375 14.5 29.5V19H10V31ZM12.25 28C12.7188 28.0312 12.9688 28.2812 13 28.75C12.9688 29.2188 12.7188 29.4688 12.25 29.5C11.7812 29.4688 11.5312 29.2188 11.5 28.75C11.5312 28.2812 11.7812 28.0312 12.25 28ZM26.3594 16C25.9531 16 25.6094 16.125 25.3281 16.375L20.7344 20.5938C20.7344 20.625 20.7344 20.6406 20.7344 20.6406C20.3281 21.0156 20.125 21.4531 20.125 21.9531C20.125 22.4219 20.2969 22.8594 20.6406 23.2656C20.9531 23.5781 21.3594 23.7656 21.8594 23.8281C22.3594 23.8594 22.8281 23.7031 23.2656 23.3594L27.0156 19.9375C27.3906 19.6562 27.75 19.6719 28.0938 19.9844C28.3438 20.3594 28.3281 20.7188 28.0469 21.0625L26.7812 22.1875L33.625 27.7188C33.75 27.8125 33.875 27.9219 34 28.0469V18.9531C33.0312 17.9844 31.9219 17.25 30.6719 16.75C29.4219 16.2188 28.1094 15.9531 26.7344 15.9531L26.3594 16ZM25.7031 23.1719L24.2969 24.4844C23.5469 25.1094 22.7344 25.4062 21.8594 25.375C20.9531 25.3125 20.1719 24.9531 19.5156 24.2969C18.8906 23.5469 18.5938 22.7344 18.625 21.8594C18.6562 20.9531 19.0156 20.1719 19.7031 19.5156L23.5469 16H23.2656C21.8906 16 20.5781 16.2656 19.3281 16.7969C18.0781 17.2969 16.9688 18.0312 16 19V29.5H16.8438L21.1094 33.3438C21.7656 33.8438 22.5 34.0625 23.3125 34C24.0938 33.9062 24.7656 33.5312 25.3281 32.875L26.1719 33.625C26.5469 33.9062 26.9688 34.0156 27.4375 33.9531C27.9062 33.9219 28.2969 33.7188 28.6094 33.3438L30.1094 31.5625L30.3438 31.75C30.6875 32 31.0469 32.1094 31.4219 32.0781C31.8281 32.0469 32.1719 31.8594 32.4531 31.5156L32.9219 31C33.1719 30.6562 33.2812 30.2812 33.25 29.875C33.1875 29.5 33 29.1719 32.6875 28.8906L25.7031 23.1719ZM35.5 19V29.5C35.5 29.9375 35.6406 30.2969 35.9219 30.5781C36.2031 30.8594 36.5469 31 36.9531 31H40V19H35.5ZM37.75 29.5C37.2812 29.4688 37.0312 29.2188 37 28.75C37.0312 28.2812 37.2812 28.0312 37.75 28C38.2188 28.0312 38.4688 28.2812 38.5 28.75C38.4688 29.2188 38.2188 29.4688 37.75 29.5Z" fill="white"/>
</svg>
