<?xml version="1.0"?>
<svg xmlns="http://www.w3.org/2000/svg" width="40" height="40" viewBox="0 0 58 58" fill="none">
<rect width="58" height="58" rx="11.6" fill="#EDFCF5"/>
<path d="M22.2 24.5501H36.7V33.2501H22.2V24.5501ZM39.6 20.2001C40.4156 20.2303 41.0953 20.5173 41.639 21.061C42.1828 21.6048 42.4697 22.2845 42.5 23.1001V26.7251C41.8958 26.7553 41.3822 26.9668 40.9593 27.3595C40.5666 27.7824 40.3552 28.2959 40.325 28.9001C40.3552 29.5043 40.5666 30.0178 40.9593 30.4407C41.3822 30.8334 41.8958 31.0449 42.5 31.0751V34.7001C42.4697 35.5157 42.1828 36.1954 41.639 36.7392C41.0953 37.2829 40.4156 37.5699 39.6 37.6001H19.3C18.4843 37.5699 17.8046 37.2829 17.2609 36.7392C16.7171 36.1954 16.4302 35.5157 16.4 34.7001V31.0751C17.0041 31.0449 17.5177 30.8334 17.9406 30.4407C18.3333 30.0178 18.5447 29.5043 18.575 28.9001C18.5447 28.2959 18.3333 27.7824 17.9406 27.3595C17.5177 26.9668 17.0041 26.7553 16.4 26.7251V23.1001C16.4302 22.2845 16.7171 21.6048 17.2609 21.061C17.8046 20.5173 18.4843 20.2303 19.3 20.2001H39.6ZM20.75 33.2501C20.75 33.673 20.8859 34.0204 21.1578 34.2923C21.4296 34.5642 21.777 34.7001 22.2 34.7001H36.7C37.1229 34.7001 37.4703 34.5642 37.7421 34.2923C38.014 34.0204 38.15 33.673 38.15 33.2501V24.5501C38.15 24.1272 38.014 23.7798 37.7421 23.5079C37.4703 23.236 37.1229 23.1001 36.7 23.1001H22.2C21.777 23.1001 21.4296 23.236 21.1578 23.5079C20.8859 23.7798 20.75 24.1272 20.75 24.5501V33.2501Z" fill="#27C177"/>
</svg>
