<?xml version="1.0"?>
<svg xmlns="http://www.w3.org/2000/svg" width="42" height="42" viewBox="0 0 50 50" fill="none">
<rect width="49.5" height="49.5" rx="16.5" fill="#DA2587"/>
<path d="M36.6667 16.832H35.5V15.6654H33.1667V16.832H30.8333V13.332H20.3333V16.832H16.8333V15.6654H14.5V16.832H13.3333C12.0465 16.832 11 17.8774 11 19.1654V34.332C11 35.62 12.0465 36.6654 13.3333 36.6654H36.6667C37.9535 36.6654 39 35.62 39 34.332V19.1654C39 17.8774 37.9535 16.832 36.6667 16.832ZM22.6667 15.6654H28.5V16.832H22.6667V15.6654ZM13.3333 34.332V19.1654H36.6667L36.6678 34.332H13.3333Z" fill="white"/>
<path d="M25.0014 24.7941C25.911 24.7941 26.6485 24.0567 26.6485 23.1471C26.6485 22.2374 25.911 21.5 25.0014 21.5C24.0918 21.5 23.3543 22.2374 23.3543 23.1471C23.3543 24.0567 24.0918 24.7941 25.0014 24.7941Z" fill="white"/>
<path d="M25.55 25.8906H24.4519C23.2397 25.8906 22.2559 26.8745 22.2559 28.0867V29.1847H27.7461V28.0867C27.7461 26.8745 26.7622 25.8906 25.55 25.8906Z" fill="white"/>
<path d="M31.5885 26.9894C32.4981 26.9894 33.2355 26.252 33.2355 25.3424C33.2355 24.4327 32.4981 23.6953 31.5885 23.6953C30.6788 23.6953 29.9414 24.4327 29.9414 25.3424C29.9414 26.252 30.6788 26.9894 31.5885 26.9894Z" fill="white"/>
<path d="M32.1379 28.0898H31.0398C29.8276 28.0898 28.8438 29.0737 28.8438 30.2859V31.384H34.3339V30.2859C34.3339 29.0737 33.3501 28.0898 32.1379 28.0898Z" fill="white"/>
<path d="M18.4117 26.9894C19.3214 26.9894 20.0588 26.252 20.0588 25.3424C20.0588 24.4327 19.3214 23.6953 18.4117 23.6953C17.5021 23.6953 16.7646 24.4327 16.7646 25.3424C16.7646 26.252 17.5021 26.9894 18.4117 26.9894Z" fill="white"/>
<path d="M18.9611 28.0898H17.8631C16.6508 28.0898 15.667 29.0737 15.667 30.2859V31.384H21.1572V30.2859C21.1572 29.0737 20.1733 28.0898 18.9611 28.0898Z" fill="white"/>
</svg>
