<svg width="48" height="48" viewBox="0 0 48 48" fill="none" xmlns="http://www.w3.org/2000/svg">
<circle opacity="0.1" cx="24" cy="24" r="24" fill="#C2D020"/>
<path d="M32 17.625C31.974 17.1042 31.7917 16.6615 31.4531 16.2969C31.0885 15.9583 30.6458 15.776 30.125 15.75H18.875C18.3542 15.776 17.9115 15.9583 17.5469 16.2969C17.2083 16.6615 17.026 17.1042 17 17.625V29.5H32V17.625ZM28.0547 21.0234L24.6172 25.3984C24.4609 25.6068 24.2396 25.724 23.9531 25.75C23.9271 25.724 23.888 25.7109 23.8359 25.7109C23.6016 25.7109 23.4062 25.6328 23.25 25.4766L21.0625 23.6016C20.6719 23.237 20.6458 22.8073 20.9844 22.3125C21.401 21.9219 21.8438 21.8958 22.3125 22.2344L23.7578 23.4453L26.5703 19.8516C26.9609 19.4349 27.4036 19.3828 27.8984 19.6953C28.3151 20.0859 28.3672 20.5286 28.0547 21.0234ZM33.875 25.75H33.25V30.125C33.224 30.5156 33.0156 30.724 32.625 30.75H16.375C15.9844 30.724 15.776 30.5156 15.75 30.125V25.75H15.125C14.6042 25.776 14.1615 25.9583 13.7969 26.2969C13.4583 26.6615 13.276 27.1042 13.25 27.625V31.375C13.276 31.8958 13.4583 32.3385 13.7969 32.7031C14.1615 33.0417 14.6042 33.224 15.125 33.25H33.875C34.3958 33.224 34.8385 33.0417 35.2031 32.7031C35.5417 32.3385 35.724 31.8958 35.75 31.375V27.625C35.724 27.1042 35.5417 26.6615 35.2031 26.2969C34.8385 25.9583 34.3958 25.776 33.875 25.75Z" fill="#C2D020"/>
</svg>
