<?xml version="1.0"?>
<svg xmlns="http://www.w3.org/2000/svg" width="40" height="40" viewBox="0 0 58 58" fill="none">
<rect width="58" height="58" rx="11.6" fill="#E9EEF7"/>
<path d="M30.1598 22.04H27.84V23.9929C26.2258 24.0947 24.9403 25.4273 24.9403 27.0669C24.9403 28.7721 26.3281 30.1603 28.0342 30.1603H29.9666C30.3935 30.1603 30.7406 30.5065 30.7406 30.9334C30.7406 31.3598 30.3944 31.7075 29.9666 31.7075H24.9402V34.0274H27.8399V35.9603H30.1598V34.0075C31.774 33.9057 33.0595 32.5731 33.0595 30.9334C33.0595 29.2283 31.6716 27.8401 29.9656 27.8401H28.0332C27.6063 27.8401 27.2591 27.4939 27.2591 27.0669C27.2591 26.6406 27.6054 26.2928 28.0332 26.2928H33.0596V23.973H30.1598V22.04Z" fill="#4788F5"/>
<path d="M46.4001 30.1605V27.8406H40.5999V24.3604H44.0802V22.0405H40.5999V20.8799C40.5999 18.9612 39.0392 17.3996 37.1197 17.3996H35.9593V13.92H33.6395V17.4002H30.1593L30.159 11.6001H27.8391V17.4002H24.3589V13.92H22.039V17.4002H20.8799C18.9612 17.4002 17.3996 18.961 17.3996 20.8805V22.0408H13.92V24.3607H17.4002V27.8409L11.6001 27.8412V30.161H17.4002V33.6413H13.92V35.9611H17.4002V37.1215C17.4002 39.0401 18.961 40.6017 20.8805 40.6017H22.0408V44.0819H24.3607V40.6017H27.8409V46.4019H30.1608V40.6017H33.641V44.0819H35.9608V40.6017H37.1212C39.0399 40.6017 40.6014 39.041 40.6014 37.1215V35.9611H44.0817V33.6413H40.6014V30.161H46.4001L46.4001 30.1605ZM38.2805 37.1204C38.2805 37.7602 37.7605 38.2807 37.1201 38.2807L20.8801 38.2805C20.2402 38.2805 19.7197 37.7599 19.7197 37.1201L19.72 20.8801C19.72 20.2408 20.24 19.7197 20.8804 19.7197H37.1204C37.7602 19.7197 38.2808 20.2403 38.2808 20.8801L38.2805 37.1204Z" fill="#4788F5"/>
</svg>
