<?xml version="1.0"?>
<svg xmlns="http://www.w3.org/2000/svg" width="40" height="40" viewBox="0 0 58 58" fill="none">
<rect width="58" height="58" rx="11.6" fill="#FBF0E9"/>
<path d="M18.7124 30.8999L19.8347 33.1446C20.0218 33.5187 20.3024 33.7057 20.6765 33.7057H36.5762C36.9503 33.7057 37.2308 33.5187 37.4179 33.1446L38.5402 30.8999H18.7124Z" fill="#DA6625"/>
<path d="M16.9353 29.9644H18.2447H39.0078H40.3172C40.8783 29.9644 41.2524 29.5903 41.2524 29.0291C41.2524 28.468 40.8783 28.0939 40.3172 28.0939H39.3819C39.1948 23.1369 35.5472 19.0217 30.8709 17.9929C30.8709 17.8058 30.9644 17.6188 30.9644 17.3382C30.9644 16.0288 29.9356 15 28.6262 15C27.3168 15 26.288 16.0288 26.288 17.3382C26.288 17.6188 26.3816 17.8058 26.3816 17.9929C21.7052 19.0217 18.1511 23.1369 17.8706 28.0939H16.9353C16.3741 28.0939 16 28.468 16 29.0291C16 29.5903 16.3741 29.9644 16.9353 29.9644Z" fill="#DA6625"/>
<path d="M36.2021 34.9212C36.1086 34.7342 35.828 34.6406 35.6409 34.6406C35.2668 34.6406 34.9862 34.6406 34.6121 34.7342L33.5833 36.1371C32.5545 37.54 30.871 38.3817 29.094 38.3817H28.8134H28.1587H26.9429H26.2882C25.727 38.3817 25.3529 38.0076 25.3529 37.4464C25.3529 36.8853 25.727 36.5112 26.2882 36.5112H29.5616C29.8422 36.2306 30.0293 35.763 30.0293 35.2953V35.2018C30.0293 34.8277 29.7487 34.6406 29.3746 34.6406H25.6335C23.3888 34.6406 21.6118 35.6694 20.583 37.2594L18.8995 39.8782C18.806 40.0652 18.806 40.3458 18.8995 40.5329L20.77 43.6193C20.8636 43.8063 20.9571 43.8998 21.1442 43.8998H21.2377C21.3312 43.8998 21.5183 43.8998 21.6118 43.8063C23.95 42.2164 26.7558 41.3746 29.5616 41.3746C31.6192 41.3746 33.4898 40.2523 34.4251 38.4753L36.1086 35.4824C36.2956 35.3888 36.2956 35.1083 36.2021 34.9212Z" fill="#DA6625"/>
</svg>
