<svg width="48" height="48" viewBox="0 0 48 48" fill="none" xmlns="http://www.w3.org/2000/svg">
<rect width="48" height="48" rx="24" fill="#FFFCE4"/>
<mask id="mask0_1001_9095" style="mask-type:luminance" maskUnits="userSpaceOnUse" x="12" y="12" width="24" height="24">
<path d="M36 12H12V36H36V12Z" fill="white"/>
</mask>
<g mask="url(#mask0_1001_9095)">
<path d="M16.4675 29.8501C16.4409 30.1453 16.4841 30.4426 16.5938 30.7179C16.7035 30.9933 16.8765 31.2389 17.0988 31.4349C17.6445 31.8007 18.2934 31.9811 18.9495 31.9494V33.4482C17.5818 33.434 16.5237 33.1234 15.7754 32.5165C15.4016 32.207 15.1054 31.8144 14.9105 31.3701C14.7156 30.9257 14.6273 30.4419 14.6528 29.9574V26.7123C14.6817 26.4115 14.6347 26.1083 14.5159 25.8305C14.3971 25.5526 14.2105 25.309 13.973 25.1221C13.3786 24.7674 12.6908 24.6007 12 24.6441V23.1344C12.9352 23.1202 13.6115 22.9487 14.0288 22.6199C14.2453 22.4336 14.4149 22.1987 14.5236 21.9345C14.6324 21.6704 14.6773 21.3842 14.6547 21.0994V17.8226C14.6302 17.3308 14.7232 16.8403 14.9258 16.3915C15.1285 15.9427 15.4351 15.5487 15.8203 15.2419C16.7279 14.5872 17.832 14.2623 18.9495 14.321V15.8094C17.2951 15.8522 16.4679 16.5628 16.4679 17.9411V21.1002C16.4679 22.6349 15.6658 23.5416 14.0617 23.8203V23.9488C15.6658 24.2273 16.4679 25.134 16.4679 26.669L16.4675 29.8501Z" fill="#DFCB16"/>
<path d="M28.1509 14.4284L21.0113 33.4345H19.5732L26.7132 14.428L28.1509 14.4284Z" fill="#DFCB16"/>
<path d="M33.9182 23.821C32.3141 23.5426 31.512 22.6358 31.512 21.1009V17.9426C31.512 16.5648 30.6955 15.8551 29.0625 15.8135V14.324C30.3861 14.324 31.4274 14.6346 32.1864 15.2557C32.5628 15.5662 32.8617 15.9601 33.0593 16.4062C33.2569 16.8523 33.3478 17.3383 33.3248 17.8257V21.1024C33.3012 21.3892 33.3467 21.6774 33.4575 21.9429C33.5683 22.2084 33.7412 22.4435 33.9616 22.6284C34.3861 22.9533 35.0659 23.1228 36.0008 23.137V24.644C35.3026 24.598 34.6067 24.7641 34.0046 25.1205C33.7672 25.3075 33.5806 25.551 33.4618 25.8289C33.343 26.1067 33.2959 26.4099 33.3248 26.7107V29.9557C33.3499 30.438 33.2631 30.9195 33.0712 31.3627C32.8794 31.8059 32.5877 32.1988 32.2189 32.5106C31.4816 33.1209 30.4296 33.4331 29.0629 33.4473V31.9481C29.7102 31.979 30.3501 31.7988 30.8861 31.4344C31.1069 31.2375 31.2786 30.9916 31.3873 30.7164C31.496 30.4412 31.5387 30.1443 31.512 29.8497V26.6693C31.4652 25.9952 31.6774 25.3286 32.1055 24.8058C32.5991 24.3284 33.2361 24.0267 33.9182 23.9472V23.821Z" fill="#DFCB16"/>
</g>
</svg>
