<?xml version="1.0"?>
<svg xmlns="http://www.w3.org/2000/svg" width="42" height="42" viewBox="0 0 58 58" fill="none">
<circle opacity="0.1" cx="29" cy="29" r="29" fill="#FF7816"/>
<path d="M36.3125 19.5H33.5703C33.2318 18.5521 32.6562 17.7734 31.8438 17.1641C31.0312 16.5885 30.0833 16.2839 29 16.25C27.9167 16.2839 26.9688 16.5885 26.1562 17.1641C25.3438 17.7734 24.7682 18.5521 24.4297 19.5H21.6875C21.0104 19.5339 20.4349 19.7708 19.9609 20.2109C19.5208 20.6849 19.2839 21.2604 19.25 21.9375V39.8125C19.2839 40.4896 19.5208 41.0651 19.9609 41.5391C20.4349 41.9792 21.0104 42.2161 21.6875 42.25H36.3125C36.9896 42.2161 37.5651 41.9792 38.0391 41.5391C38.4792 41.0651 38.7161 40.4896 38.75 39.8125V21.9375C38.7161 21.2604 38.4792 20.6849 38.0391 20.2109C37.5651 19.7708 36.9896 19.5339 36.3125 19.5ZM24.125 36.1562C23.3802 36.0885 22.974 35.6823 22.9062 34.9375C22.974 34.1927 23.3802 33.7865 24.125 33.7188C24.8698 33.7865 25.276 34.1927 25.3438 34.9375C25.276 35.6823 24.8698 36.0885 24.125 36.1562ZM24.125 31.2812C23.3802 31.2135 22.974 30.8073 22.9062 30.0625C22.974 29.3177 23.3802 28.9115 24.125 28.8438C24.8698 28.9115 25.276 29.3177 25.3438 30.0625C25.276 30.8073 24.8698 31.2135 24.125 31.2812ZM29 19.5C29.474 19.5 29.8633 19.6523 30.168 19.957C30.4727 20.2617 30.625 20.651 30.625 21.125C30.625 21.599 30.4727 21.9883 30.168 22.293C29.8633 22.5977 29.474 22.75 29 22.75C28.526 22.75 28.1367 22.5977 27.832 22.293C27.5273 21.9883 27.375 21.599 27.375 21.125C27.375 20.651 27.5273 20.2617 27.832 19.957C28.1367 19.6523 28.526 19.5 29 19.5ZM34.6875 35.75H28.1875C27.6797 35.7161 27.4089 35.4453 27.375 34.9375C27.4089 34.4297 27.6797 34.1589 28.1875 34.125H34.6875C35.1953 34.1589 35.4661 34.4297 35.5 34.9375C35.4661 35.4453 35.1953 35.7161 34.6875 35.75ZM34.6875 30.875H28.1875C27.6797 30.8411 27.4089 30.5703 27.375 30.0625C27.4089 29.5547 27.6797 29.2839 28.1875 29.25H34.6875C35.1953 29.2839 35.4661 29.5547 35.5 30.0625C35.4661 30.5703 35.1953 30.8411 34.6875 30.875Z" fill="#FF7816"/>
</svg>
