<?xml version="1.0"?>
<svg xmlns="http://www.w3.org/2000/svg" width="40" height="40" viewBox="0 0 58 58" fill="none">
<rect width="58" height="58" rx="11.6" fill="#EDF9F9"/>
<path d="M35.2541 19.85C37.7312 19.9104 39.7853 20.7563 41.4166 22.3875C43.0478 24.0188 43.8937 26.0729 43.9541 28.55C43.8937 31.0271 43.0478 33.0813 41.4166 34.7125C39.7853 36.3438 37.7312 37.1896 35.2541 37.25H23.6541C21.177 37.1896 19.1228 36.3438 17.4916 34.7125C15.8603 33.0813 15.0145 31.0271 14.9541 28.55C15.0145 26.0729 15.8603 24.0188 17.4916 22.3875C19.1228 20.7563 21.177 19.9104 23.6541 19.85H35.2541ZM26.1463 29.6375C26.8411 29.5771 27.2036 29.2146 27.2338 28.55C27.1734 27.8854 26.8109 27.5229 26.1463 27.4625H24.6963V26.0125C24.6359 25.3479 24.2734 24.9854 23.6088 24.925C22.9442 24.9854 22.5817 25.3479 22.5213 26.0125V27.4625H21.0713C20.4067 27.5229 20.0442 27.8854 19.9838 28.55C20.0744 29.1844 20.452 29.5318 21.1166 29.5922L22.5213 29.6375V31.0875C22.5817 31.7521 22.9442 32.1146 23.6088 32.175C24.2734 32.1146 24.6359 31.7521 24.6963 31.0875V29.6375H26.1463ZM34.4838 32.5375C35.0275 32.5375 35.4504 32.3714 35.7525 32.0391C36.0848 31.7068 36.251 31.2839 36.251 30.7703C36.251 30.2568 36.0848 29.8339 35.7525 29.5016C35.39 29.1391 34.9671 28.9578 34.4838 28.9578C34.0004 28.9578 33.5926 29.1391 33.2603 29.5016C32.8978 29.8339 32.7166 30.2568 32.7166 30.7703C32.7166 31.2536 32.8827 31.6615 33.215 31.9938C33.5473 32.3563 33.9702 32.5375 34.4838 32.5375ZM37.3838 28.1875C37.9275 28.1875 38.3504 28.0214 38.6525 27.6891C38.9848 27.3568 39.151 26.9339 39.151 26.4203C39.151 25.9068 38.9848 25.4839 38.6525 25.1516C38.3202 24.7891 37.8973 24.6078 37.3838 24.6078C36.9004 24.6078 36.4926 24.7891 36.1603 25.1516C35.7978 25.4839 35.6166 25.9068 35.6166 26.4203C35.6166 26.9036 35.7827 27.3115 36.115 27.6438C36.4473 28.0063 36.8702 28.1875 37.3838 28.1875Z" fill="#1784B2"/>
</svg>
