<?xml version="1.0"?>
<svg xmlns="http://www.w3.org/2000/svg" width="40" height="40" viewBox="0 0 58 58" fill="none">
<rect width="58" height="58" rx="11.6" fill="#EDFCF5"/>
<path d="M42.5041 28.55C42.4739 28.9427 42.3228 29.275 42.051 29.5469C41.7791 29.8188 41.4468 29.9698 41.0541 30H39.6041L39.6494 37.25C39.6192 38.0656 39.3322 38.7453 38.7885 39.2891C38.2447 39.8328 37.565 40.1198 36.7494 40.15H22.2041C21.3885 40.1198 20.7088 39.8328 20.165 39.2891C19.6213 38.7453 19.3343 38.0656 19.3041 37.25V30H17.8541C17.4312 29.9698 17.0838 29.8188 16.8119 29.5469C16.54 29.275 16.4041 28.9427 16.4041 28.55C16.4041 28.1271 16.5551 27.7646 16.8572 27.4625L28.4572 17.3125C28.7895 17.0406 29.1218 16.9198 29.4541 16.95C29.8166 16.95 30.1489 17.0557 30.451 17.2672L42.0057 27.4625C42.3682 27.7646 42.5343 28.1271 42.5041 28.55ZM31.2666 27.4625V24.925C31.2364 24.4719 30.9947 24.2302 30.5416 24.2H28.3666C27.9135 24.2302 27.6718 24.4719 27.6416 24.925V27.4625H25.1041C24.651 27.4927 24.4093 27.7344 24.3791 28.1875V30.3625C24.4093 30.8156 24.651 31.0573 25.1041 31.0875H27.6416V33.625C27.6718 34.0781 27.9135 34.3198 28.3666 34.35H30.5416C30.9947 34.3198 31.2364 34.0781 31.2666 33.625V31.0875H33.8041C34.2572 31.0573 34.4989 30.8156 34.5291 30.3625V28.1875C34.4989 27.7344 34.2572 27.4927 33.8041 27.4625H31.2666Z" fill="#27C177"/>
</svg>
