<svg width="254" height="231" viewBox="0 0 254 231" fill="none" xmlns="http://www.w3.org/2000/svg">
<path d="M135.652 27C189.968 27 234 70.8761 234 125C234 179.124 189.968 223 135.652 223C81.3362 223 6.16494 169.338 37.3044 125C68.4438 80.662 81.3362 27 135.652 27Z" fill="#F4F4F4"/>
<rect x="53" y="43" width="180" height="185" rx="12" fill="white"/>
<path d="M223.551 42H62.6988C56.7981 42 52 46.7981 52 52.6987V218.614C52 224.514 56.7981 229.312 62.6988 229.312H223.551C229.452 229.312 234.25 224.514 234.25 218.614V52.6987C234.25 46.7981 229.452 42 223.551 42ZM233.125 218.614C233.125 223.896 228.833 228.188 223.551 228.188H62.6988C57.4169 228.188 53.125 223.896 53.125 218.614V52.6987C53.125 47.4169 57.4169 43.125 62.6988 43.125H223.551C228.833 43.125 233.125 47.4169 233.125 52.6987V218.614Z" fill="#2F2E41"/>
<path d="M94.2238 55.8843H78.44C77.6469 55.8843 77 56.5312 77 57.3243C77 58.123 77.6469 58.7699 78.44 58.7699H94.2238C95.0169 58.7699 95.6638 58.123 95.6638 57.3243C95.6638 56.5312 95.0169 55.8843 94.2238 55.8843Z" fill="#2F2E41"/>
<path d="M120.661 55.8843H104.877C104.084 55.8843 103.438 56.5312 103.438 57.3243C103.438 58.123 104.084 58.7699 104.877 58.7699H120.661C121.454 58.7699 122.101 58.123 122.101 57.3243C122.101 56.5312 121.454 55.8843 120.661 55.8843Z" fill="#E8E8E8"/>
<path d="M147.099 55.8843H131.315C130.522 55.8843 129.875 56.5312 129.875 57.3243C129.875 58.123 130.522 58.7699 131.315 58.7699H147.099C147.892 58.7699 148.539 58.123 148.539 57.3243C148.539 56.5312 147.892 55.8843 147.099 55.8843Z" fill="#E8E8E8"/>
<path d="M101.275 98.6562H81.475C79.0225 98.6562 77.0312 100.647 77.0312 103.1V114.462C77.0312 116.915 79.0225 118.906 81.475 118.906H101.275C103.728 118.906 105.719 116.915 105.719 114.462V103.1C105.719 100.647 103.728 98.6562 101.275 98.6562Z" fill="#2F2E41"/>
<path d="M101.275 128.781H81.475C79.0225 128.781 77.0312 130.772 77.0312 133.225V144.587C77.0312 147.04 79.0225 149.031 81.475 149.031H101.275C103.728 149.031 105.719 147.04 105.719 144.587V133.225C105.719 130.772 103.728 128.781 101.275 128.781Z" fill="#F1F1F1"/>
<path d="M145.244 98.6562H125.444C122.991 98.6562 121 100.647 121 103.1V114.462C121 116.915 122.991 118.906 125.444 118.906H145.244C147.696 118.906 149.687 116.915 149.687 114.462V103.1C149.687 100.647 147.696 98.6562 145.244 98.6562Z" fill="#F1F1F1"/>
<path d="M145.244 128.781H125.444C122.991 128.781 121 130.772 121 133.225V144.587C121 147.04 122.991 149.031 125.444 149.031H145.244C147.696 149.031 149.687 147.04 149.687 144.587V133.225C149.687 130.772 147.696 128.781 145.244 128.781Z" fill="#F1F1F1"/>
<path d="M203.487 187.406H82.7631C77.74 187.406 73.6562 191.49 73.6562 196.513V204.737C73.6562 209.76 77.74 213.844 82.7631 213.844H203.487C208.51 213.844 212.594 209.76 212.594 204.737V196.513C212.594 191.49 208.51 187.406 203.487 187.406Z" fill="#F4F4F4"/>
<path d="M203.342 86.7812H171.658C167.981 86.7812 165 89.8094 165 93.5448V112.018C165 115.753 167.981 118.781 171.658 118.781H203.342C207.019 118.781 210 115.753 210 112.018V93.5448C210 89.8094 207.019 86.7812 203.342 86.7812Z" fill="#CA0515"/>
<path d="M187.026 112.053C192.011 112.053 196.053 108.011 196.053 103.026C196.053 98.0412 192.011 94 187.026 94C182.041 94 178 98.0412 178 103.026C178 108.011 182.041 112.053 187.026 112.053Z" fill="white"/>
<path d="M186.131 106.471C185.928 106.471 185.73 106.406 185.568 106.284L185.558 106.276L183.436 104.653C183.338 104.578 183.255 104.484 183.193 104.377C183.131 104.27 183.09 104.151 183.074 104.029C183.058 103.906 183.066 103.781 183.098 103.661C183.13 103.541 183.185 103.429 183.26 103.331C183.336 103.233 183.43 103.15 183.537 103.088C183.645 103.026 183.763 102.986 183.886 102.97C184.009 102.954 184.134 102.962 184.253 102.994C184.373 103.026 184.485 103.082 184.583 103.157L185.957 104.211L189.204 99.975C189.279 99.8767 189.373 99.7943 189.481 99.7324C189.588 99.6705 189.706 99.6303 189.829 99.6141C189.951 99.5979 190.076 99.606 190.196 99.638C190.315 99.6699 190.427 99.7252 190.525 99.8004C190.723 99.9527 190.854 100.178 190.887 100.425C190.919 100.673 190.852 100.924 190.7 101.122L186.881 106.102C186.793 106.217 186.679 106.31 186.549 106.374C186.419 106.437 186.276 106.47 186.132 106.47L186.131 106.471Z" fill="#CA0515"/>
<path d="M130.444 179.042H80.1304C78.4044 179.042 77 177.638 77 175.912C77 174.186 78.4044 172.781 80.1304 172.781H130.444C132.17 172.781 133.575 174.186 133.575 175.912C133.575 177.638 132.17 179.042 130.444 179.042Z" fill="#F4F4F4"/>
</svg>
