<?xml version="1.0"?>
<svg xmlns="http://www.w3.org/2000/svg" width="42" height="42" viewBox="0 0 58 58" fill="none">
<circle opacity="0.1" cx="29" cy="29" r="29" fill="#BA49E1"/>
<path d="M38.5 22.75H32V16.25L38.5 22.75ZM32 24.375H38.5V39.8125C38.4661 40.4896 38.2292 41.0651 37.7891 41.5391C37.3151 41.9792 36.7396 42.2161 36.0625 42.25H21.4375C20.7604 42.2161 20.1849 41.9792 19.7109 41.5391C19.2708 41.0651 19.0339 40.4896 19 39.8125V18.6875C19.0339 18.0104 19.2708 17.4349 19.7109 16.9609C20.1849 16.5208 20.7604 16.2839 21.4375 16.25H30.375V22.75C30.375 23.224 30.5273 23.6133 30.832 23.918C31.1367 24.2227 31.526 24.375 32 24.375ZM31.9492 31.2305L29.9688 33.2109V28.0312C29.901 27.2865 29.4948 26.8802 28.75 26.8125C28.0052 26.8802 27.599 27.2865 27.5312 28.0312V33.2109L25.5 31.2305C25.2969 30.9935 25.026 30.875 24.6875 30.875C24.349 30.875 24.0612 30.9935 23.8242 31.2305C23.3503 31.806 23.3503 32.3815 23.8242 32.957L27.8867 37.0195C28.4622 37.4935 29.0378 37.4935 29.6133 37.0195L33.6758 32.957C34.1497 32.3815 34.1497 31.806 33.6758 31.2305C33.1003 30.7565 32.5247 30.7565 31.9492 31.2305Z" fill="#B949E1"/>
</svg>
