<svg width="153" height="40" viewBox="0 0 153 40" fill="none" xmlns="http://www.w3.org/2000/svg">
<path d="M42.5786 27.6992H45.6286V21.7742L47.1536 19.9742L51.9036 27.6992H55.5036L49.3286 18.0242L55.1286 10.8492H51.3536L46.9286 16.7742C46.5286 17.3492 46.1036 17.9492 45.7036 18.5992H45.6286V10.8492H42.5786V27.6992ZM56.602 27.6992H59.677V20.3992C59.677 20.0742 59.702 19.7492 59.802 19.4742C60.152 18.5492 61.002 17.7492 62.202 17.7492C63.902 17.7492 64.552 19.0992 64.552 20.8492V27.6992H67.627V20.5242C67.627 16.6242 65.452 15.2492 63.377 15.2492C62.602 15.2492 61.877 15.4492 61.252 15.7992C60.627 16.1242 60.102 16.5992 59.727 17.1742H59.677V9.94922H56.602V27.6992ZM79.8587 20.3992C79.8587 17.7242 78.7337 15.2492 74.8337 15.2492C72.9087 15.2492 71.3337 15.7742 70.4337 16.3242L71.0337 18.3242C71.8587 17.7992 73.1087 17.4242 74.3087 17.4242C76.4587 17.4242 76.7837 18.7492 76.7837 19.5492V19.7492C72.2837 19.7242 69.5587 21.2992 69.5587 24.3492C69.5587 26.1992 70.9337 27.9742 73.3837 27.9742C74.9837 27.9742 76.2587 27.2992 76.9837 26.3492H77.0587L77.2837 27.6992H80.0587C79.9087 26.9492 79.8587 25.8742 79.8587 24.7742V20.3992ZM76.8587 23.4242C76.8587 23.6492 76.8587 23.8742 76.7837 24.0992C76.4837 24.9742 75.6087 25.7742 74.3587 25.7742C73.3837 25.7742 72.6087 25.2242 72.6087 24.0242C72.6087 22.1742 74.6837 21.7242 76.8587 21.7492V23.4242ZM82.9575 13.2492V15.5242H81.2325V17.8242H82.9575V23.5492C82.9575 25.1492 83.2575 26.2742 83.9325 26.9742C84.5075 27.5992 85.4325 27.9742 86.5825 27.9742C87.5325 27.9742 88.3575 27.8242 88.8075 27.6492L88.7575 25.3242C88.4075 25.4242 88.1075 25.4492 87.5575 25.4492C86.3825 25.4492 85.9825 24.6992 85.9825 23.1992V17.8242H88.9075V15.5242H85.9825V12.3992L82.9575 13.2492ZM100.172 20.3992C100.172 17.7242 99.0472 15.2492 95.1472 15.2492C93.2222 15.2492 91.6472 15.7742 90.7472 16.3242L91.3472 18.3242C92.1722 17.7992 93.4222 17.4242 94.6222 17.4242C96.7722 17.4242 97.0972 18.7492 97.0972 19.5492V19.7492C92.5972 19.7242 89.8722 21.2992 89.8722 24.3492C89.8722 26.1992 91.2472 27.9742 93.6972 27.9742C95.2972 27.9742 96.5722 27.2992 97.2972 26.3492H97.3722L97.5972 27.6992H100.372C100.222 26.9492 100.172 25.8742 100.172 24.7742V20.3992ZM97.1722 23.4242C97.1722 23.6492 97.1722 23.8742 97.0972 24.0992C96.7972 24.9742 95.9222 25.7742 94.6722 25.7742C93.6972 25.7742 92.9222 25.2242 92.9222 24.0242C92.9222 22.1742 94.9972 21.7242 97.1722 21.7492V23.4242ZM103.168 27.6492C103.893 27.7492 105.043 27.8492 106.543 27.8492C109.293 27.8492 111.193 27.3492 112.343 26.2742C113.218 25.4742 113.793 24.3492 113.793 22.8992C113.793 20.3992 111.918 19.0742 110.318 18.6992V18.6242C112.068 17.9992 113.168 16.5742 113.168 14.9242C113.168 13.5992 112.618 12.5992 111.743 11.9492C110.718 11.0992 109.318 10.7242 107.143 10.7242C105.643 10.7242 104.118 10.8742 103.168 11.0992V27.6492ZM105.343 12.5492C105.693 12.4742 106.268 12.3992 107.268 12.3992C109.468 12.3992 110.943 13.1992 110.943 15.1492C110.943 16.7742 109.593 17.9992 107.318 17.9992H105.343V12.5492ZM105.343 19.6242H107.143C109.518 19.6242 111.493 20.5992 111.493 22.8742C111.493 25.3242 109.418 26.1492 107.168 26.1492C106.393 26.1492 105.793 26.1242 105.343 26.0492V19.6242ZM121.365 15.3492C118.04 15.3492 115.365 17.7242 115.365 21.7492C115.365 25.5742 117.915 27.9742 121.165 27.9742C124.065 27.9742 127.19 26.0242 127.19 21.5492C127.19 17.8742 124.84 15.3492 121.365 15.3492ZM121.315 16.9992C123.915 16.9992 124.94 19.5742 124.94 21.6242C124.94 24.3492 123.365 26.3242 121.265 26.3242C119.115 26.3242 117.615 24.3242 117.615 21.6742C117.615 19.3992 118.74 16.9992 121.315 16.9992ZM134.586 15.3492C131.261 15.3492 128.586 17.7242 128.586 21.7492C128.586 25.5742 131.136 27.9742 134.386 27.9742C137.286 27.9742 140.411 26.0242 140.411 21.5492C140.411 17.8742 138.061 15.3492 134.586 15.3492ZM134.536 16.9992C137.136 16.9992 138.161 19.5742 138.161 21.6242C138.161 24.3492 136.586 26.3242 134.486 26.3242C132.336 26.3242 130.836 24.3242 130.836 21.6742C130.836 19.3992 131.961 16.9992 134.536 16.9992ZM144.857 9.94922H142.682V27.6992H144.857V23.1492L145.982 21.8992L150.132 27.6992H152.832L147.507 20.5742L152.157 15.5992H149.532L145.957 19.7742C145.607 20.1992 145.207 20.7242 144.907 21.1492H144.857V9.94922Z" fill="#757575"/>
<path d="M9.87988 6.70576C9.87988 6.33326 10.1533 6.01721 10.5219 5.96357L27.8262 3.44546C28.2786 3.37962 28.6842 3.73044 28.6842 4.18764V35.0665C28.6842 35.5154 28.2926 35.8637 27.8468 35.8114L10.5425 33.7809C10.1647 33.7365 9.87988 33.4164 9.87988 33.036V6.70576Z" fill="#2A2B3A" stroke="#757575" stroke-width="2.5"/>
<path d="M0.803711 4.91722C0.803711 3.92005 1.53824 3.07523 2.52573 2.93663L23.3083 0.0197761C24.5117 -0.149112 25.5863 0.78524 25.5863 2.00036V37.4395C25.5863 38.6407 24.5348 39.571 23.3425 39.4245L2.55993 36.8723C1.55717 36.7491 0.803711 35.8975 0.803711 34.8872V4.91722Z" fill="#757575"/>
</svg>
