<?xml version="1.0"?>
<svg xmlns="http://www.w3.org/2000/svg" width="42" height="42" viewBox="0 0 58 58" fill="none">
<circle opacity="0.1" cx="29" cy="29" r="29" fill="#BA49E1"/>
<path d="M24.3156 25.7308C25.5206 25.7308 26.4974 24.754 26.4974 23.549C26.4974 22.344 25.5206 21.3672 24.3156 21.3672C23.1106 21.3672 22.1338 22.344 22.1338 23.549C22.1338 24.754 23.1106 25.7308 24.3156 25.7308Z" fill="#BA49E1"/>
<path d="M21.044 30.5458V34.4567H22.1349V41.0021H24.3167H26.4985V34.4567H27.5895V30.5447L30.0909 33.0461L31.6335 31.5036L27.2709 27.1399L26.5029 26.8203H22.1327L21.3647 27.1399L17 31.5036L18.5425 33.0461L21.044 30.5458Z" fill="#BA49E1"/>
<path d="M41.7706 38.8217H39.4328C39.3302 38.4257 39.1742 38.0548 38.9702 37.7112L40.6251 36.0574L39.0826 34.5148L37.4277 36.1676C37.0841 35.9636 36.7121 35.8065 36.315 35.7039V33.3672H34.1331V35.7039C33.7371 35.8065 33.3662 35.9636 33.0215 36.1665L31.3666 34.5116L29.8241 36.0552L31.479 37.709C31.275 38.0537 31.1179 38.4257 31.0153 38.8217H28.6797V41.0036H33.0433V39.9126C33.0433 38.7094 34.0219 37.7308 35.2251 37.7308C36.4284 37.7308 37.407 38.7094 37.407 39.9126V41.0036H41.7706V38.8217Z" fill="#BA49E1"/>
<path d="M34.1342 17V19.3367C33.7382 19.4393 33.3673 19.5964 33.0226 19.7993L31.3688 18.1455L29.8262 19.6891L31.4811 21.3429C31.2771 21.6865 31.119 22.0585 31.0175 22.4545H28.6797V24.6364H31.0175C31.1201 25.0324 31.2771 25.4044 31.4811 25.7491L29.8262 27.4029L31.3688 28.9465L33.0237 27.2916C33.3673 27.4945 33.7382 27.6516 34.1353 27.7542V30.0909H36.3171V27.7542C36.7131 27.6516 37.0841 27.4945 37.4299 27.2916L39.0837 28.9465L40.6262 27.4029L38.9713 25.7491C39.1742 25.4044 39.3313 25.0335 39.4339 24.6364H41.7706V22.4545H39.4328C39.3302 22.0585 39.1742 21.6876 38.9702 21.344L40.6251 19.6902L39.0826 18.1476L37.4288 19.8004C37.0841 19.5975 36.7121 19.4393 36.3161 19.3367V17H34.1342ZM37.407 23.5455C37.407 24.7487 36.4284 25.7273 35.2251 25.7273C34.0219 25.7273 33.0433 24.7487 33.0433 23.5455C33.0433 22.3422 34.0219 21.3636 35.2251 21.3636C36.4284 21.3636 37.407 22.3422 37.407 23.5455Z" fill="#BA49E1"/>
</svg>
