<?xml version="1.0"?>
<svg xmlns="http://www.w3.org/2000/svg" width="40" height="40" viewBox="0 0 58 58" fill="none">
<rect width="58" height="58" rx="11.6" fill="#FBE9F3"/>
<path d="M21.511 19.9735C21.934 19.1881 22.5834 18.7803 23.4595 18.7501H28.6251V24.5501H19.2001L21.511 19.9735ZM30.0751 24.5501V18.7501H35.2407C36.1168 18.7803 36.7662 19.1881 37.1892 19.9735L39.5001 24.5501H30.0751ZM39.5001 36.1501C39.4699 36.9657 39.1829 37.6454 38.6392 38.1892C38.0954 38.7329 37.4157 39.0199 36.6001 39.0501H22.1001C21.2845 39.0199 20.6048 38.7329 20.061 38.1892C19.5173 37.6454 19.2303 36.9657 19.2001 36.1501V26.0001H39.5001V36.1501Z" fill="#DA2587"/>
</svg>
