<?xml version="1.0"?>
<svg xmlns="http://www.w3.org/2000/svg" width="40" height="40" viewBox="0 0 58 58" fill="none">
<rect width="58" height="58" rx="11.6" fill="#EDEDFC"/>
<path d="M39.5499 25.4563C39.9728 25.6678 40.3202 26.0152 40.5921 26.4985C40.864 26.9819 40.9999 27.5407 40.9999 28.1751C40.9999 28.8095 40.864 29.3683 40.5921 29.8517C40.3202 30.335 39.9728 30.6824 39.5499 30.8938V37.6001C39.5197 38.2345 39.2176 38.6876 38.6437 38.9595C38.0697 39.1709 37.541 39.0652 37.0577 38.6423L35.1093 36.6032C33.9916 35.5157 32.7379 34.685 31.3483 34.111C29.9285 33.5371 28.4483 33.2501 26.9077 33.2501H26.4999V39.0501C26.4999 39.473 26.364 39.8204 26.0921 40.0923C25.8202 40.3642 25.4728 40.5001 25.0499 40.5001H22.1499C21.727 40.5001 21.3796 40.3642 21.1077 40.0923C20.8358 39.8204 20.6999 39.473 20.6999 39.0501V33.2501C19.8843 33.2199 19.2046 32.9329 18.6608 32.3892C18.1171 31.8454 17.8301 31.1657 17.7999 30.3501V26.0001C17.8301 25.1845 18.1171 24.5048 18.6608 23.961C19.2046 23.4173 19.8843 23.1303 20.6999 23.1001H26.9077C28.4483 23.1001 29.9285 22.8131 31.3483 22.2392C32.7379 21.635 33.9916 20.7892 35.1093 19.7017L37.0577 17.7079C37.541 17.285 38.0697 17.1793 38.6437 17.3907C39.2176 17.6626 39.5197 18.1157 39.5499 18.7501V25.4563ZM26.9077 26.0001H26.4999V30.3501H26.9077C28.7202 30.3501 30.4572 30.6824 32.1187 31.347C33.7801 31.9813 35.2905 32.9027 36.6499 34.111V22.2392C35.2905 23.4475 33.7801 24.3688 32.1187 25.0032C30.4572 25.6678 28.7202 26.0001 26.9077 26.0001Z" fill="#4D4AE1"/>
</svg>
