<?xml version="1.0"?>
<svg xmlns="http://www.w3.org/2000/svg" width="42" height="42" viewBox="0 0 58 58" fill="none">
<circle cx="29" cy="29" r="29" fill="#EDF9F9"/>
<path d="M27.2194 26.5448C27.0885 26.381 26.8264 26.3483 26.6625 26.4792L24.5333 28.2811C24.435 28.3467 24.4023 28.4777 24.4023 28.5759C24.4023 28.7069 24.4679 28.8054 24.5333 28.8707L26.6625 30.6726C26.7281 30.7382 26.8264 30.7709 26.9246 30.7709C27.0556 30.7709 27.1541 30.7053 27.2194 30.6399C27.3504 30.4761 27.3504 30.214 27.1538 30.083L25.3849 28.6089L27.1538 27.1347C27.3506 26.9706 27.3506 26.7087 27.2194 26.5448Z" fill="#1784B2" stroke="#1784B2" stroke-width="0.50624"/>
<path d="M34.3321 28.3788L32.2028 26.5769C32.039 26.446 31.7769 26.4786 31.6459 26.6425C31.515 26.8063 31.515 27.0684 31.7115 27.1994L33.4804 28.6736L31.7115 30.1477C31.5477 30.2787 31.515 30.5408 31.6459 30.7046C31.7115 30.8029 31.8425 30.8356 31.9407 30.8356C32.039 30.8356 32.1372 30.8029 32.2028 30.7373L34.3321 28.9354C34.4303 28.8698 34.463 28.7389 34.463 28.6406C34.4632 28.5426 34.4303 28.477 34.3321 28.3787L34.3321 28.3788Z" fill="#1784B2" stroke="#1784B2" stroke-width="0.50624"/>
<path d="M30.5344 24.6811C30.3379 24.6155 30.1085 24.7467 30.0431 24.9432L27.7827 32.1833C27.7171 32.3799 27.8483 32.6093 28.0448 32.6747C28.0775 32.6747 28.1104 32.7073 28.1757 32.7073C28.3396 32.7073 28.5034 32.6091 28.5688 32.4125L30.7963 25.2052C30.8619 24.9758 30.7636 24.7466 30.5344 24.681L30.5344 24.6811Z" fill="#1784B2" stroke="#1784B2" stroke-width="0.50624"/>
<path d="M35.9711 14H22.9C21.8846 14 21 14.8517 21 15.9001V42.7311C21 43.7466 21.8517 44.6312 22.9 44.6312H35.9711C36.9865 44.6312 37.8711 43.7795 37.8711 42.7311L37.8709 15.9001C37.8709 14.8846 36.9863 14 35.9708 14H35.9711ZM36.8229 42.7311C36.8229 43.2224 36.4625 43.5828 35.9712 43.5828H22.9002C22.4089 43.5828 22.0485 43.2224 22.0485 42.7311V39.8154H36.8558L36.8556 42.7311H36.8229ZM36.8229 38.7996H22.0157V17.8001H36.8229V38.7996ZM36.8229 16.7517H22.0157V15.9C22.0157 15.4087 22.376 15.0483 22.8673 15.0483H27.5518C27.5845 15.2448 27.7483 15.376 27.9449 15.376H30.8278C31.0243 15.376 31.1881 15.2121 31.2208 15.0483H35.9053C36.3966 15.0483 36.757 15.4087 36.757 15.9L36.7574 16.7517H36.8229Z" fill="#1784B2" stroke="#1784B2" stroke-width="0.50624"/>
<path d="M30.304 41.7164C30.304 42.205 29.908 42.601 29.4195 42.601C28.9312 42.601 28.5352 42.205 28.5352 41.7164C28.5352 41.228 28.9312 40.832 29.4195 40.832C29.908 40.832 30.304 41.2281 30.304 41.7164Z" fill="#1784B2" stroke="#1784B2" stroke-width="0.50624"/>
</svg>
