<svg width="48" height="48" viewBox="0 0 48 48" fill="none" xmlns="http://www.w3.org/2000/svg">
<rect width="48" height="48" rx="24" fill="#EDF9F9"/>
<path d="M22.4831 21.0599C22.3677 20.9155 22.1367 20.8867 21.9922 21.0021L20.1154 22.5904C20.0288 22.6482 20 22.7636 20 22.8502C20 22.9656 20.0578 23.0524 20.1154 23.1101L21.9922 24.6983C22.0501 24.7562 22.1367 24.785 22.2233 24.785C22.3387 24.785 22.4255 24.7271 22.4831 24.6695C22.5985 24.5251 22.5985 24.2941 22.4253 24.1787L20.8661 22.8792L22.4253 21.5798C22.5987 21.4352 22.5987 21.2043 22.4831 21.0599Z" fill="#1784B2" stroke="#1784B2" stroke-width="0.50624"/>
<path d="M28.7528 22.677L26.876 21.0887C26.7316 20.9733 26.5005 21.0021 26.3851 21.1465C26.2697 21.2909 26.2697 21.522 26.4429 21.6374L28.0021 22.9368L26.4429 24.2362C26.2985 24.3516 26.2697 24.5827 26.3851 24.7271C26.4429 24.8137 26.5583 24.8425 26.645 24.8425C26.7316 24.8425 26.8182 24.8137 26.876 24.7559L28.7528 23.1676C28.8394 23.1098 28.8682 22.9944 28.8682 22.9078C28.8684 22.8213 28.8394 22.7635 28.7528 22.6769L28.7528 22.677Z" fill="#1784B2" stroke="#1784B2" stroke-width="0.50624"/>
<path d="M25.4054 19.4138C25.2322 19.356 25.03 19.4717 24.9724 19.6449L22.9799 26.0267C22.9221 26.1999 23.0377 26.4022 23.2109 26.4598C23.2397 26.4598 23.2687 26.4886 23.3263 26.4886C23.4708 26.4886 23.6152 26.402 23.6728 26.2287L25.6362 19.8758C25.694 19.6736 25.6074 19.4715 25.4054 19.4137L25.4054 19.4138Z" fill="#1784B2" stroke="#1784B2" stroke-width="0.50624"/>
<path d="M30.1963 10H18.6748C17.7797 10 17 10.7508 17 11.6749V35.3251C17 36.2203 17.7507 37 18.6748 37H30.1963C31.0914 37 31.8711 36.2492 31.8711 35.3251L31.8709 11.6749C31.8709 10.7797 31.0912 10 30.1961 10H30.1963ZM30.9472 35.3251C30.9472 35.7582 30.6295 36.0759 30.1964 36.0759H18.675C18.2419 36.0759 17.9242 35.7582 17.9242 35.3251V32.7551H30.9761L30.9759 35.3251H30.9472ZM30.9472 31.8597H17.8953V13.3496H30.9472V31.8597ZM30.9472 12.4255H17.8953V11.6748C17.8953 11.2417 18.2129 10.924 18.646 10.924H22.7751C22.8039 11.0972 22.9484 11.2129 23.1216 11.2129H25.6627C25.8359 11.2129 25.9804 11.0684 26.0092 10.924H30.1383C30.5714 10.924 30.889 11.2417 30.889 11.6748L30.8894 12.4255H30.9472Z" fill="#1784B2" stroke="#1784B2" stroke-width="0.50624"/>
<path d="M25.1979 34.43C25.1979 34.8606 24.8488 35.2097 24.4182 35.2097C23.9877 35.2097 23.6387 34.8606 23.6387 34.43C23.6387 33.9995 23.9877 33.6505 24.4182 33.6505C24.8488 33.6505 25.1979 33.9995 25.1979 34.43Z" fill="#1784B2" stroke="#1784B2" stroke-width="0.50624"/>
</svg>
