<svg width="186" height="56" viewBox="0 0 186 56" fill="none" xmlns="http://www.w3.org/2000/svg">
<mask id="mask0_11606_6616" style="mask-type:luminance" maskUnits="userSpaceOnUse" x="5" y="5" width="176" height="46">
<path d="M180.867 5H5.02002V50.892H180.867V5Z" fill="white"/>
</mask>
<g mask="url(#mask0_11606_6616)">
<mask id="mask1_11606_6616" style="mask-type:luminance" maskUnits="userSpaceOnUse" x="4" y="4" width="177" height="48">
<path d="M181 4.46094H4V51.4609H181V4.46094Z" fill="white"/>
</mask>
<g mask="url(#mask1_11606_6616)">
<mask id="mask2_11606_6616" style="mask-type:luminance" maskUnits="userSpaceOnUse" x="84" y="47" width="59" height="4">
<path d="M139.145 47.4496H139.837L141.435 49.5466V47.4496H142.175V50.8546H141.537L139.886 48.6896V50.8546H139.145V47.4496ZM134.903 47.4496H137.475V48.1156H135.648V48.8066H137.256V49.4726H135.648V50.1886H137.5V50.8546H134.903V47.4496ZM130.224 47.4496H130.974V48.7976H132.357V47.4496H133.108V50.8546H132.357V49.4876H130.974V50.8546H130.224V47.4496ZM125.499 49.1616V49.1526C125.499 48.1836 126.229 47.3906 127.278 47.3906C127.921 47.3906 128.305 47.6046 128.622 47.9156L128.145 48.4656C127.881 48.2276 127.614 48.0816 127.272 48.0816C126.697 48.0816 126.283 48.5576 126.283 49.1416V49.1526C126.283 49.7346 126.687 50.2216 127.272 50.2216C127.663 50.2216 127.901 50.0666 128.169 49.8236L128.646 50.3046C128.295 50.6796 127.906 50.9126 127.248 50.9126C126.244 50.9136 125.499 50.1396 125.499 49.1616ZM122.456 48.1396H121.419V47.4496H124.244V48.1396H123.206V50.8546H122.456V48.1396ZM119.083 50.8546H119.833V47.4496H119.083V50.8546ZM114.515 47.4496H115.265V48.9376L116.65 47.4496H117.555L116.166 48.8936L117.619 50.8546H116.717L115.66 49.4046L115.264 49.8136V50.8546H114.514V47.4496H114.515ZM107.294 47.4496H107.986L109.584 49.5466V47.4496H110.325V50.8546H109.687L108.034 48.6896V50.8546H107.294V47.4496V47.4496ZM104.427 49.4286L103.974 48.3246L103.521 49.4286H104.427ZM103.638 47.4246H104.329L105.791 50.8546H105.007L104.695 50.0906H103.253L102.941 50.8546H102.175L103.638 47.4246ZM99.8892 50.8546H100.639V47.4496H99.8892V50.8546ZM95.8622 47.4496H96.6132V50.1746H98.3132V50.8556H95.8622V47.4496V47.4496ZM92.9942 49.4286L92.5412 48.3246L92.0872 49.4286H92.9942ZM92.2052 47.4246H92.8972L94.3582 50.8546H93.5732L93.2622 50.0906H91.8202L91.5082 50.8546H90.7442L92.2052 47.4246ZM88.1342 48.1396H87.0962V47.4496H89.9222V48.1396H88.8842V50.8546H88.1332V48.1396H88.1342ZM84.7622 50.8556H85.5122V47.4496H84.7622V50.8556Z" fill="white"/>
</mask>
<g mask="url(#mask2_11606_6616)">
<mask id="mask3_11606_6616" style="mask-type:luminance" maskUnits="userSpaceOnUse" x="5" y="4" width="176" height="48">
<path d="M181 4.46094H5V51.4609H181V4.46094Z" fill="white"/>
</mask>
<g mask="url(#mask3_11606_6616)">
<path d="M147.175 42.3906H79.7622V55.9126H147.175V42.3906Z" fill="#757575"/>
</g>
</g>
</g>
<mask id="mask4_11606_6616" style="mask-type:luminance" maskUnits="userSpaceOnUse" x="4" y="4" width="177" height="48">
<path d="M181 4.46094H4V51.4609H181V4.46094Z" fill="white"/>
</mask>
<g mask="url(#mask4_11606_6616)">
<mask id="mask5_11606_6616" style="mask-type:luminance" maskUnits="userSpaceOnUse" x="5" y="18" width="143" height="28">
<path d="M115.22 32.6758C115.22 30.6118 114.219 28.5298 111.98 28.5298C109.039 28.5298 108.81 31.7038 108.81 32.6758C108.81 33.6478 109.039 36.8218 111.98 36.8218C114.219 36.8228 115.22 34.7408 115.22 32.6758ZM122.752 31.0248C123.769 31.4668 124.746 31.7018 125.591 31.7018C126.235 31.7018 126.776 31.5678 127.195 31.3058C127.682 30.9998 127.929 30.5448 127.929 29.9518C127.929 29.2658 127.337 28.5308 126.039 28.5308C124.446 28.5298 123.258 29.4348 122.752 31.0248ZM146.946 37.5378C146.25 38.2058 145.21 39.1258 143.541 39.1258C141.243 39.1258 139.87 37.5128 139.87 34.8138V31.2238C139.87 29.1168 139.099 28.7028 137.767 28.7028C136 28.7028 134.391 30.8658 134.391 33.2418V38.6198C134.391 38.7528 134.283 38.8618 134.148 38.8618H132.327C132.193 38.8618 132.085 38.7528 132.085 38.6198V36.1428C131.033 37.4458 129.296 39.1248 126.345 39.1248C124.551 39.1248 123.128 38.5248 122.082 37.5068C121.35 38.3608 120.249 39.0188 119.024 39.0188C117.78 39.0188 116.756 38.2588 116.1 36.9948C115.118 38.2238 113.779 39.1258 111.979 39.1258C108.653 39.1258 106.502 36.5948 106.502 32.6768C106.502 28.7588 108.652 26.2268 111.979 26.2268C113.385 26.2268 114.438 26.7438 115.348 27.4988V20.6168C115.348 20.4828 115.455 20.3738 115.59 20.3738H117.41C117.545 20.3738 117.653 20.4828 117.653 20.6168V33.6798C117.653 35.6108 118.168 36.7128 119.118 36.7128C119.856 36.7128 120.36 36.1358 120.783 35.6598C120.454 34.8238 120.198 33.8838 120.198 32.6768C120.198 28.9398 122.654 26.2268 126.039 26.2268C128.764 26.2268 130.234 28.1458 130.234 29.9518C130.234 31.3308 129.574 32.5348 128.419 33.2578C127.626 33.7538 126.673 34.0058 125.588 34.0058C124.632 34.0058 123.61 33.8108 122.547 33.4228C122.712 34.8418 123.445 36.8238 126.253 36.8238C129.791 36.8238 131.578 33.7998 132.084 32.3928V26.7898C132.084 26.6568 132.192 26.5478 132.326 26.5478H134.147C134.282 26.5478 134.39 26.6568 134.39 26.7898V27.8228C135.349 26.9378 136.526 26.4008 137.766 26.4008C139.413 26.4008 142.175 27.0268 142.175 31.2238V34.8138C142.175 36.8238 143.096 36.8238 143.539 36.8238C144.437 36.8238 145.037 36.2108 145.842 35.3808C145.901 35.3188 145.981 35.2838 146.066 35.2978C146.15 35.3108 146.221 35.3658 146.253 35.4448L146.998 37.2768C147.037 37.3658 147.018 37.4708 146.946 37.5378ZM91.1762 32.6758C91.1762 30.6778 90.1622 28.5298 87.9362 28.5298C84.9942 28.5298 84.7662 31.7038 84.7662 32.6758C84.7662 33.6478 84.9942 36.8218 87.9362 36.8218C90.1632 36.8228 91.1762 34.6718 91.1762 32.6758ZM113.913 42.8968C113.878 42.9598 113.817 43.0048 113.746 43.0198C112.856 43.2008 111.994 43.2918 111.183 43.2918C109.162 43.2918 107.427 42.7428 106.028 41.6598C103.84 39.9688 102.683 37.1398 102.683 33.4808V29.8128C102.683 29.4958 102.622 29.2708 102.506 29.1628C102.323 28.9898 102.103 28.9688 101.659 28.9918C100.619 29.0528 99.6902 28.9148 98.9062 28.6878C99.0282 29.6838 99.0892 30.8338 99.0892 32.0748C99.0892 36.7538 97.7572 39.1258 95.1292 39.1258C94.2612 39.1258 92.9022 38.6948 92.0172 36.9958C91.0282 38.2168 89.7452 39.1248 87.9362 39.1248C84.6092 39.1248 82.4602 36.5938 82.4602 32.6758C82.4602 28.7578 84.6092 26.2258 87.9362 26.2258C89.2212 26.2258 90.3662 26.6608 91.2772 27.4218V26.7718C91.2772 26.6378 91.3852 26.5298 91.5182 26.5298H93.3402C93.4742 26.5298 93.5832 26.6378 93.5832 26.7718V33.3968C93.5832 34.6758 93.7832 36.8238 95.1282 36.8238C96.5672 36.8238 96.7812 33.8488 96.7812 32.0758C96.7812 29.1008 96.4362 27.6688 96.0202 26.2298C95.9832 26.1038 96.0542 25.9698 96.1812 25.9308L97.9832 25.3768C98.1032 25.3418 98.2312 25.4008 98.2792 25.5168C98.6042 26.3088 99.5182 26.7098 100.997 26.7098C101.163 26.7098 101.339 26.7048 101.524 26.6938C102.581 26.6318 103.472 26.9078 104.086 27.4878C104.497 27.8738 104.986 28.5918 104.986 29.8138V33.4818C104.986 36.4028 105.834 38.6008 107.437 39.8398C108.421 40.6018 109.683 40.9868 111.187 40.9868C111.746 40.9868 112.34 40.9318 112.955 40.8258C113.067 40.8048 113.179 40.8668 113.222 40.9718L113.922 42.6898C113.951 42.7568 113.946 42.8328 113.913 42.8968ZM80.9372 29.2698H79.1162C78.9832 29.2698 78.8732 29.3778 78.8732 29.5128C78.8732 33.2728 76.6382 37.0778 72.3652 37.0778C68.8172 37.0778 66.5242 34.4608 66.5242 30.4088C66.5242 26.7198 68.6032 22.7488 73.1672 22.7488C74.8852 22.7488 76.8912 23.5148 76.8912 25.6748C76.8912 26.7218 76.2902 27.6638 75.2832 28.1928C75.1742 28.2508 75.1252 28.3808 75.1712 28.4968L75.8422 30.2018C75.8682 30.2638 75.9172 30.3118 75.9792 30.3378C76.0412 30.3618 76.1112 30.3598 76.1722 30.3318C78.0672 29.4348 79.1972 27.6938 79.1972 25.6748C79.1972 22.5958 76.7172 20.4458 73.1662 20.4458C67.0172 20.4458 64.2162 25.6108 64.2162 30.4088C64.2162 35.7748 67.4912 39.3808 72.3632 39.3808C75.4742 39.3808 77.6122 37.7348 78.8712 35.8708V38.1798C78.8712 42.9918 76.7882 43.0088 75.8982 43.0088C75.2002 43.0088 74.5762 42.7668 74.0432 42.2918C73.9852 42.2388 73.9032 42.2198 73.8262 42.2348C73.7492 42.2538 73.6852 42.3068 73.6562 42.3808L72.9462 44.1248C72.9042 44.2298 72.9382 44.3508 73.0312 44.4158C73.8832 45.0098 74.8462 45.3118 75.8982 45.3118C78.3062 45.3118 81.1772 44.0778 81.1772 38.1978V29.6178C81.1772 29.6138 81.1752 29.6118 81.1752 29.6078C81.1762 29.5758 81.1772 29.5438 81.1772 29.5128C81.1802 29.3778 81.0712 29.2698 80.9372 29.2698ZM53.4472 30.3918C54.3612 30.8568 55.2642 31.0798 56.1292 31.0798C57.0632 31.0798 58.6442 30.7368 58.6442 29.4518C58.6442 28.0518 57.0942 27.9438 56.6182 27.9438C55.2162 27.9438 54.0672 28.8398 53.4472 30.3918ZM62.1882 36.7818C61.1902 37.7328 59.5372 38.9968 56.7082 38.9968C53.1752 38.9968 50.7082 36.4328 50.7082 32.6848C50.7082 32.2678 50.7432 31.8048 50.8042 31.3888C50.2742 31.0158 49.5502 30.3818 49.1052 29.9188C48.8232 32.9698 47.1922 35.9328 44.9692 38.7628C44.9212 38.8228 44.8512 38.8608 44.7742 38.8608H42.8722C42.7662 38.8608 42.6712 38.7908 42.6402 38.6888C40.7532 32.5428 38.3352 28.1668 37.6392 26.9728C37.5952 26.8978 37.5952 26.8058 37.6382 26.7308C37.6812 26.6548 37.7622 26.6078 37.8492 26.6078H39.9402C40.0292 26.6078 40.1112 26.6568 40.1532 26.7348C41.0152 28.3118 42.6732 31.7648 44.1802 36.1448C46.6552 32.7058 47.3852 29.5798 46.4122 26.9668C46.3892 26.9048 46.3922 26.8348 46.4222 26.7758C46.4522 26.7158 46.5052 26.6708 46.5682 26.6508L48.3792 26.0948C48.4852 26.0638 48.5942 26.1088 48.6572 26.1988C49.3992 27.2478 50.5182 28.4098 51.4722 29.1368C52.5132 26.9588 54.3532 25.6418 56.6202 25.6418C59.1712 25.6418 60.9522 27.2098 60.9522 29.4538C60.9522 31.7678 58.9712 33.3848 56.1322 33.3848C55.1072 33.3848 54.0602 33.1238 53.0162 32.6788C53.0282 34.6908 54.1712 36.6948 56.7112 36.6948C58.9642 36.6948 60.1142 35.6638 61.0992 34.6078C61.1562 34.5478 61.2392 34.5198 61.3212 34.5358C61.4022 34.5508 61.4702 34.6058 61.5022 34.6818L62.2492 36.5168C62.2822 36.6078 62.2592 36.7118 62.1882 36.7818ZM13.6202 39.3308C13.7232 39.3308 13.8262 39.3288 13.9302 39.3258C16.4822 39.2438 18.6312 38.2078 20.1432 36.3268C21.6462 34.4568 22.3922 31.9118 22.2972 28.9658C22.1102 23.0988 19.1452 19.3068 14.7442 19.3068C14.6572 19.3068 14.5682 19.3088 14.4802 19.3118C13.1902 19.3528 12.0792 19.7848 11.2662 20.5618C10.4292 21.3608 9.99021 22.4738 10.0302 23.6948C10.0732 25.0658 10.7912 26.2808 11.9472 26.9448C12.3852 27.1978 13.1212 27.4978 14.1352 27.4978C15.0352 27.4978 16.0002 27.2618 17.0042 26.7978C17.1212 26.7428 17.1752 26.6068 17.1272 26.4868L16.4392 24.7998C16.4152 24.7378 16.3642 24.6888 16.3022 24.6648C16.2402 24.6408 16.1712 24.6428 16.1102 24.6728C14.8802 25.2578 13.8092 25.3588 13.0982 24.9498C12.6312 24.6818 12.3532 24.1978 12.3342 23.6208C12.3162 23.0538 12.4992 22.5708 12.8602 22.2248C13.2552 21.8468 13.8402 21.6358 14.5532 21.6128C14.6112 21.6108 14.6672 21.6098 14.7242 21.6098C17.7802 21.6098 19.8482 24.5268 19.9912 29.0408C20.0662 31.3738 19.5242 33.3578 18.4252 34.7788C17.3362 36.1868 15.7572 36.9638 13.8562 37.0238C13.7782 37.0258 13.6912 37.0338 13.6252 37.0278C9.44121 37.0278 7.41921 33.3938 7.31221 30.0208C7.21421 26.9688 8.42221 24.9478 9.14921 24.0158C9.20321 23.9468 9.21521 23.8548 9.18321 23.7758L8.41921 21.8978C8.38821 21.8228 8.32221 21.7688 8.24221 21.7518C8.16421 21.7358 8.08221 21.7588 8.02321 21.8158C7.49221 22.3358 4.85021 25.1798 5.00721 30.0938C5.18121 35.5298 8.72221 39.3298 13.6202 39.3308ZM26.0422 32.4478C27.0642 30.4278 28.1112 26.9048 28.1112 23.8858C28.1112 22.0878 27.4942 21.1858 27.1472 21.1858C26.6122 21.1858 26.0372 22.2358 26.0372 24.5428V32.0198C26.0372 32.1638 26.0392 32.3068 26.0422 32.4478ZM40.8432 37.6168C39.8522 38.5338 38.7312 38.9978 37.5072 38.9978C36.6172 38.9978 34.9522 38.7148 33.8872 36.9668C32.8752 37.9578 31.3012 38.9978 29.0352 38.9978C26.6152 38.9978 23.7312 37.6628 23.7312 31.3008V24.5428C23.7312 19.4358 26.1202 18.8828 27.1472 18.8828C28.7762 18.8828 30.4182 20.4298 30.4182 23.8858C30.4182 29.2388 27.6662 33.7668 26.6922 35.1978C27.4092 36.6948 28.5032 36.6948 29.0352 36.6948C31.2912 36.6948 32.5832 35.1238 33.0382 34.4408C32.9472 33.8578 32.8962 33.2028 32.8962 32.4648V26.8498C32.8962 26.7168 33.0042 26.6078 33.1392 26.6078H34.9592C35.0942 26.6078 35.2032 26.7168 35.2032 26.8498V32.4648C35.2032 35.2708 35.9772 36.6938 37.5072 36.6938C38.5412 36.6938 39.3142 35.9808 39.7792 35.3818C39.8322 35.3138 39.9182 35.2778 40.0042 35.2908C40.0902 35.3038 40.1642 35.3598 40.1962 35.4408C40.4802 36.1478 40.7192 36.7948 40.9072 37.3618C40.9382 37.4518 40.9132 37.5518 40.8432 37.6168ZM32.7372 23.3688C32.7372 22.6388 33.3302 22.0458 34.0622 22.0458C34.7942 22.0458 35.3872 22.6388 35.3872 23.3688C35.3872 24.0998 34.7952 24.6918 34.0622 24.6918C33.3302 24.6918 32.7372 24.1008 32.7372 23.3688Z" fill="white"/>
</mask>
<g mask="url(#mask5_11606_6616)">
<mask id="mask6_11606_6616" style="mask-type:luminance" maskUnits="userSpaceOnUse" x="5" y="4" width="176" height="48">
<path d="M181 4.46094H5V51.4609H181V4.46094Z" fill="white"/>
</mask>
<g mask="url(#mask6_11606_6616)">
<path d="M152.019 13.8828H0V50.3128H152.019V13.8828Z" fill="#757575"/>
</g>
</g>
</g>
<mask id="mask7_11606_6616" style="mask-type:luminance" maskUnits="userSpaceOnUse" x="4" y="4" width="177" height="48">
<path d="M181 4.46094H4V51.4609H181V4.46094Z" fill="white"/>
</mask>
<g mask="url(#mask7_11606_6616)">
<mask id="mask8_11606_6616" style="mask-type:luminance" maskUnits="userSpaceOnUse" x="126" y="5" width="55" height="37">
<path d="M158.506 35.2792C158.49 35.2622 158.463 35.2412 158.439 35.2262C158.251 35.1012 158.014 35.0202 157.762 35.0052C157.149 34.9702 156.539 35.3202 156.207 35.8922C156.193 35.9162 156.199 35.9512 156.22 35.9632C156.398 36.0732 156.446 36.1242 156.588 36.2672C156.596 36.2742 156.609 36.2782 156.621 36.2792C156.624 36.2802 156.627 36.2802 156.63 36.2792C156.645 36.2772 156.659 36.2692 156.669 36.2582C156.998 35.8432 157.658 35.4292 158.311 35.4362C158.311 35.4362 158.347 35.4362 158.35 35.4372C158.527 35.4502 158.584 35.3632 158.506 35.2792ZM155.382 29.0322C154.81 27.8542 154.228 26.8412 153.662 25.8612C152.773 24.3232 151.856 22.7322 150.958 20.4602C150.945 20.4332 150.916 20.4182 150.889 20.4272C150.862 20.4362 150.845 20.4642 150.85 20.4922C150.862 20.5492 151.97 26.0352 155.152 29.1452C155.316 29.3022 155.473 29.2332 155.382 29.0322ZM138.341 20.3242C138.34 20.2952 138.318 20.2722 138.29 20.2702C137.374 20.1772 136.536 20.1102 135.73 20.0662C133.63 19.9532 132.114 20.0152 130.359 20.0872C129.974 20.1032 129.58 20.1192 129.169 20.1332C129.141 20.1342 129.116 20.1572 129.115 20.1862C129.113 20.2152 129.134 20.2412 129.163 20.2452C130.24 20.4102 131.351 20.5232 132.463 20.5832C135.882 20.7682 138.27 20.3852 138.294 20.3812C138.321 20.3772 138.341 20.3532 138.341 20.3242ZM137.29 14.3422C136.625 13.7292 133.769 11.2662 129.571 10.1162C129.543 10.1092 129.515 10.1232 129.505 10.1502C129.494 10.1762 129.503 10.2062 129.528 10.2202C130.212 10.6112 130.916 11.0362 131.66 11.4852C133.5 12.5952 135.402 13.7402 137.249 14.5182C137.404 14.5722 137.4 14.4452 137.29 14.3422ZM144.59 17.2062C144.377 15.3632 144.021 13.6842 143.644 11.9042C143.377 10.6502 143.103 9.35118 142.872 7.95318C142.867 7.92518 142.84 7.90518 142.814 7.90718C142.786 7.90818 142.764 7.93118 142.763 7.96018C142.527 13.5412 144.468 17.2022 144.488 17.2382C144.498 17.2572 144.515 17.2672 144.534 17.2672C144.541 17.2672 144.548 17.2672 144.553 17.2662C144.578 17.2572 144.594 17.2312 144.59 17.2062ZM157.692 18.4362C157.692 18.4242 157.689 18.4122 157.683 18.4022C157.607 18.1472 156.627 15.0742 152.483 12.2652C152.46 12.2482 152.426 12.2532 152.408 12.2762C152.389 12.2992 152.392 12.3332 152.415 12.3532C153.72 13.5392 154.756 14.8692 155.955 16.4082C156.466 17.0622 156.993 17.7392 157.589 18.4692C157.6 18.4822 157.614 18.4892 157.63 18.4902H157.633C157.664 18.4902 157.69 18.4662 157.692 18.4362ZM160.526 10.2262C160.267 9.97518 159.953 9.83318 159.615 9.81518C159.073 9.78618 158.574 10.0792 158.316 10.5802C158.304 10.6032 158.31 10.6372 158.329 10.6492C158.521 10.7772 158.537 10.7952 158.687 10.9612C158.695 10.9712 158.708 10.9752 158.721 10.9752C158.724 10.9752 158.728 10.9752 158.731 10.9752C158.747 10.9732 158.76 10.9642 158.769 10.9522C159.035 10.5892 159.603 10.2372 160.175 10.2692C160.276 10.2742 160.376 10.2922 160.47 10.3222C160.493 10.3282 160.523 10.3192 160.535 10.2972C160.549 10.2722 160.545 10.2442 160.526 10.2262ZM166.601 11.6772C167.842 11.0362 168.865 10.4842 169.939 9.90318C171.268 9.18518 172.643 8.44318 174.557 7.46518C174.582 7.45118 174.594 7.42318 174.583 7.39618C174.574 7.37018 174.546 7.35418 174.52 7.35918C174.479 7.36818 170.513 8.22618 166.491 11.4832C166.294 11.6452 166.408 11.7772 166.601 11.6772ZM165.243 18.0902C166.522 17.9412 169.375 17.4242 172.45 15.6492C172.473 15.6342 172.483 15.6062 172.471 15.5812C172.461 15.5572 172.433 15.5432 172.406 15.5512C171.562 15.8162 170.718 16.1062 169.821 16.4122C168.308 16.9292 166.753 17.4612 165.197 17.8722H165.198C164.848 17.9622 164.852 18.1402 165.243 18.0902ZM166.416 27.3762C166.333 26.2712 166.246 25.1292 166.228 23.5582C166.228 23.5292 166.206 23.5042 166.176 23.5032C166.147 23.5022 166.122 23.5232 166.117 23.5512C165.429 28.5122 166.047 31.4962 166.305 32.4482C166.352 32.6112 166.521 32.6392 166.533 32.4032C166.634 30.2472 166.529 28.8492 166.416 27.3762ZM180.598 41.1402C180.336 41.1722 180.076 41.1962 179.816 41.2142C177.657 41.3682 175.491 41.2682 173.363 40.9052C171.237 40.5402 169.151 39.9122 167.198 38.9662C165.493 38.1382 163.886 37.0582 162.53 35.7032C161.163 35.4822 160.215 35.6512 159.784 35.7662C159.936 36.3172 159.888 36.8472 159.641 37.3052C159.379 37.7922 158.915 38.1572 158.302 38.3582C157.977 38.4632 157.653 38.5082 157.335 38.4922C156.432 38.4432 155.725 37.9062 155.444 37.0542C155.264 36.5052 155.298 35.9562 155.546 35.4682C155.817 34.9312 156.322 34.5202 156.97 34.3082C157.293 34.2022 157.613 34.1572 157.918 34.1722C158.772 34.2162 159.237 34.7602 159.366 34.9272C159.375 34.9382 159.383 34.9482 159.389 34.9592C159.462 35.0652 159.542 35.1282 159.738 35.0812C160.348 34.9342 161.111 34.9002 161.473 34.9182C161.721 34.9312 161.771 34.8962 161.587 34.6662C161.222 34.2392 160.581 33.2732 160.533 33.1902C160.423 33.0142 160.074 32.7022 159.742 32.5552H159.744C158.614 32.0442 157.354 31.3572 156.515 30.7782C154.759 30.5472 153.244 29.6982 152.028 28.0962C151.079 26.8482 150.412 25.2492 150.058 23.4612C148.84 23.2682 147.622 23.0272 146.425 22.6592C146.029 22.5372 145.575 22.3732 145.217 22.2332C144.696 22.0312 143.743 21.6382 143.312 21.5112C142.236 21.2292 141.176 21.0002 140.146 20.8202C137.321 21.9442 134.982 22.4172 132.841 22.3012C130.78 22.1902 128.877 21.5362 127.037 20.3052C126.669 20.0502 126.865 19.8202 127.156 19.7082C130.078 18.6272 132.591 18.1592 134.82 18.2792C136.948 18.3932 138.859 19.0332 140.652 20.2272C141.189 20.3262 141.734 20.4392 142.285 20.5642C142.028 20.3642 141.776 20.1582 141.538 19.9372C140.362 18.8502 139.449 17.5382 138.722 16.1502C138.507 15.7532 138.287 15.6292 138.005 15.6042H138.006C132.801 15.0922 130.983 13.4332 126.951 9.15218C126.936 9.13718 126.931 9.11218 126.94 9.09318C126.949 9.07218 126.967 9.05918 126.99 9.05718C127.474 9.03518 127.968 9.03818 128.457 9.06518C133.45 9.33518 137.834 11.9912 138.993 15.4142C139.789 16.9042 140.785 18.2882 142.046 19.3712C142.922 20.1312 143.926 20.7192 144.993 21.1612C145.249 21.2542 145.455 21.1592 145.326 20.8802C145.097 20.3682 144.883 19.8012 144.683 19.1902C141.378 14.2532 140.095 10.4892 142.622 5.03318C142.634 5.01318 142.654 5.00018 142.676 5.00018C142.697 4.99818 142.718 5.01318 142.727 5.03418C145.01 10.0352 147.057 15.5372 145.3 18.8942C145.659 20.0102 146.063 20.9802 146.513 21.6862C146.573 21.7042 146.633 21.7232 146.695 21.7392C147.733 22.0172 148.801 22.2002 149.883 22.3402C149.71 20.9022 149.726 19.3722 149.95 17.8212C149.954 17.7992 149.97 17.7812 149.991 17.7752C150.012 17.7692 150.034 17.7762 150.049 17.7932C154.07 22.4722 156.23 26.4032 156.794 30.0872C157.459 30.5772 158.221 31.0482 159.095 31.4932C159.373 31.6362 159.657 31.5012 159.498 31.1052C159.452 30.9902 159.094 30.0062 158.959 29.3502C158.84 28.7622 158.749 28.2532 158.695 27.7432C158.635 27.1932 158.606 26.0962 158.613 25.8352C158.624 25.4342 158.625 25.0592 158.639 24.7282C158.335 24.6672 157.395 24.4972 157.232 24.4702C156.624 24.3662 156.044 24.2762 155.43 24.1902C155.23 23.8242 154.931 23.3072 154.62 22.8152C155.568 22.9062 156.485 23.0042 157.434 23.1312C157.869 23.1882 158.303 23.2552 158.739 23.3262C158.752 23.2062 158.76 23.0882 158.776 22.9682C158.812 22.6592 158.859 22.3502 158.913 22.0422C158.768 21.2872 158.402 20.4392 157.896 19.5592C155.181 19.3352 153.417 15.9902 151.552 12.4472C151.244 11.8642 150.927 11.2622 150.605 10.6722C150.594 10.6522 150.596 10.6292 150.61 10.6112C150.623 10.5932 150.646 10.5852 150.668 10.5902C153.052 11.1432 155.175 12.3892 156.647 14.0972C158.026 15.6982 158.667 17.5022 158.47 19.2122C158.617 19.4682 158.864 19.9482 158.864 19.9482C159.042 20.3192 159.276 20.3642 159.395 19.9772C159.588 19.3432 159.991 18.2182 160.466 17.3332C160.745 15.6252 160.28 14.0122 160.105 13.4862C159.9 13.5352 159.695 13.5572 159.495 13.5462C158.662 13.5002 157.991 12.9642 157.652 12.0712C157.412 11.4402 157.417 10.7902 157.663 10.2432C157.888 9.74518 158.291 9.37518 158.828 9.17318C159.12 9.06218 159.414 9.01418 159.705 9.03018C160.553 9.07518 161.291 9.66418 161.633 10.5662C162.046 11.6532 161.711 12.6722 160.834 13.1912C160.758 13.2362 160.763 13.3142 160.776 13.3572C160.892 13.7222 161.134 14.4712 161.222 15.7662C161.23 15.8842 161.301 15.9452 161.385 15.8192C161.67 15.3902 163.045 13.6132 164.908 12.3552C165.832 10.6442 167.303 9.09518 169.083 7.96318C171.563 6.38818 174.475 5.75318 177.419 6.14818C177.441 6.15018 177.459 6.16618 177.466 6.18818C177.473 6.20918 177.466 6.23118 177.449 6.24718C173.799 9.48918 169.663 13.1652 166.029 12.9702C165.756 12.9552 165.486 12.9152 165.224 12.8562C163.639 14.0572 162.316 15.5702 161.416 17.3112C161.205 17.7162 161.02 18.1332 160.854 18.5552C161.407 18.4602 161.968 18.3492 162.531 18.2272C162.817 18.1612 163.153 18.0362 163.51 17.7142C166.339 15.0832 168.48 14.8842 174.784 14.3232L174.875 14.3162C174.965 14.3082 175.036 14.3302 175.071 14.3712C175.106 14.4132 175.103 14.4762 175.043 14.5482C173.37 16.5702 169.053 19.3052 164.638 19.0672C164.066 19.0362 163.505 18.9522 162.965 18.8232C162.368 18.9572 161.773 19.0792 161.185 19.1822C160.888 19.2332 160.582 19.2902 160.467 19.6782C160.136 20.7822 159.933 21.9272 159.839 23.0802C159.756 24.0832 159.75 25.0952 159.803 26.1052C159.848 27.1212 159.969 28.0882 160.231 29.0372C160.738 30.9322 161.748 32.6582 163.107 34.0572C164.081 35.0652 165.222 35.9062 166.456 36.5942C166.679 36.6992 166.888 36.6182 166.786 36.2972C166.705 36.0452 166.392 34.9942 166.25 34.1092C164.922 32.1502 164.087 29.4272 164.331 26.5542C163.701 26.2552 163.053 25.9882 162.391 25.7542C161.683 25.4992 160.958 25.2852 160.226 25.0972C160.221 24.6352 160.225 24.1182 160.252 23.6052C161.137 23.7922 162.019 24.0162 162.884 24.2942C163.458 24.4752 164.029 24.6832 164.59 24.9142C164.901 23.5692 165.467 22.2172 166.346 20.9172C166.422 20.8252 166.516 20.7922 166.564 20.9652V20.9662C167.893 25.8522 169.348 31.3222 166.965 34.2132C167.21 35.5042 167.523 36.4542 167.848 37.1552C167.903 37.2642 167.967 37.3392 168.1 37.4022C169.868 38.1562 171.753 38.6442 173.667 38.8962C175.521 39.1382 177.489 39.1632 179.343 38.9772C180.087 38.9042 180.216 39.0072 180.402 39.4962C180.521 39.8082 180.76 40.3602 180.838 40.6212C180.921 40.8982 180.824 41.1132 180.598 41.1402ZM168.613 27.1162C168.801 28.2102 168.837 28.9442 168.856 29.6472C169.512 30.3022 170.058 31.0142 170.574 31.7852C171.083 32.5392 171.502 33.3462 171.886 34.1742C172.029 34.4822 172.187 34.5932 172.513 34.5082C172.838 34.4222 173.841 34.1572 173.841 34.1572C173.973 34.1062 174.016 34.0272 173.952 33.8672C173.402 32.5292 172.996 31.8842 172.137 30.6952C171.15 29.3222 169.97 28.1112 168.613 27.1162Z" fill="white"/>
</mask>
<g mask="url(#mask8_11606_6616)">
<mask id="mask9_11606_6616" style="mask-type:luminance" maskUnits="userSpaceOnUse" x="5" y="4" width="176" height="48">
<path d="M181 4.46094H5V51.4609H181V4.46094Z" fill="white"/>
</mask>
<g mask="url(#mask9_11606_6616)">
<path d="M185.867 0H121.838V46.284H185.867V0Z" fill="#757575"/>
</g>
</g>
</g>
</g>
<mask id="mask10_11606_6616" style="mask-type:luminance" maskUnits="userSpaceOnUse" x="145" y="38" width="2" height="3">
<path d="M145 39.9131C145 38.5811 147 38.5811 147 39.9131C147 41.2481 145 41.2481 145 39.9131ZM146.765 39.9131C146.765 38.8511 145.235 38.8511 145.235 39.9131C145.235 40.9751 146.765 40.9681 146.765 39.9131ZM146.447 40.3511V40.3831H146.245L146.027 40.0641H145.86V40.3831H145.666V39.4351H146.074C146.274 39.4351 146.422 39.5481 146.422 39.7581C146.422 39.8891 146.351 40.0021 146.219 40.0371L146.447 40.3511ZM145.86 39.9041H146.056C146.154 39.9041 146.227 39.8451 146.227 39.7561C146.227 39.6721 146.159 39.6081 146.056 39.6081H145.86V39.9041Z" fill="white"/>
</mask>
<g mask="url(#mask10_11606_6616)">
<path d="M152 33.9141H140V45.9141H152V33.9141Z" fill="#757575"/>
</g>
</svg>
