<?xml version="1.0"?>
<svg xmlns="http://www.w3.org/2000/svg" width="40" height="40" viewBox="0 0 58 58" fill="none">
<rect width="58" height="58" rx="11.6" fill="#FBE9F3"/>
<path d="M41.7205 28.8586C41.9244 32.6777 42.377 36.5417 41.3127 40.2996C40.2809 43.9515 36.5209 46.5961 32.6019 46.6206C28.6829 46.6451 24.9515 43.9454 23.7688 40.2772C23.2448 38.6459 23.2428 36.9943 23.2407 35.3264C23.2407 33.5117 23.2407 31.6969 23.2407 29.8822C23.2407 27.4353 23.2224 24.9742 23.2407 22.5192C23.2774 21.0797 23.9136 20.001 25.3165 19.477C26.5399 19.0202 27.6246 19.3343 28.5402 20.2294C28.8205 20.5027 29.0411 20.8312 29.1882 21.1941C29.3352 21.557 29.4055 21.9464 29.3945 22.3378C29.3945 23.5469 29.4108 24.7581 29.3945 25.9672C29.3945 26.4648 29.417 26.8522 30.0776 26.5789C30.0776 26.5789 31.7353 26.267 32.3511 27.3415C32.9204 26.8953 33.6008 26.6133 34.3188 26.5259C35.5055 26.4301 35.9052 26.8889 36.6759 27.5985C37.0675 27.197 37.5609 26.9094 38.1032 26.7665C39.5897 26.479 41.4452 26.5626 41.7205 28.8586Z" fill="#F4F4F4"/>
<path d="M25.2854 30.1961C25.2854 27.7493 25.2854 25.2861 25.2854 22.8311C25.2854 22.0379 25.4241 21.3426 26.3885 21.365C27.2837 21.3854 27.4264 22.0644 27.4244 22.8066C27.4244 25.6613 27.4244 28.4996 27.4244 31.3461C27.4244 32.0781 27.4917 32.7734 28.4113 32.7999C29.3309 32.8265 29.4308 32.1128 29.4308 31.3726C29.4077 30.8038 29.4131 30.2342 29.4471 29.666C29.5001 29.0237 29.8549 28.5649 30.5359 28.5893C31.217 28.6138 31.5555 29.04 31.5555 29.7169C31.5555 30.3572 31.5432 30.9995 31.5656 31.6377C31.5881 32.2759 31.8226 32.7755 32.5464 32.7959C33.3335 32.8183 33.5843 32.2881 33.6088 31.6112C33.6312 30.9995 33.6088 30.402 33.6088 29.7985C33.6088 29.0848 33.9248 28.6016 34.6548 28.5934C35.3848 28.5853 35.6886 29.1052 35.7171 29.7883C35.7396 30.4 35.7171 30.9974 35.7171 31.601C35.7171 32.3065 35.9863 32.8101 36.7529 32.7898C37.4564 32.7714 37.7174 32.2922 37.7093 31.6295C37.7011 30.9669 37.6868 30.349 37.7093 29.7088C37.7317 29.0685 38.0579 28.5914 38.7492 28.5914C39.473 28.5914 39.8319 29.0339 39.8299 29.7597C39.8197 32.4635 39.9155 35.1734 39.7707 37.871C39.5668 41.6636 36.3288 44.5998 32.5485 44.5876C28.7681 44.5754 25.5301 41.6636 25.3282 37.8588C25.2079 35.3161 25.3181 32.749 25.3181 30.1961H25.2854Z" fill="#DA2587"/>
<path d="M20.9112 25.8586C20.7396 25.8585 20.5707 25.8152 20.4203 25.7325C20.2699 25.6498 20.1428 25.5304 20.0508 25.3855C19.4961 24.5103 19.1525 23.5181 19.0474 22.4873C18.9422 21.4565 19.0783 20.4154 19.4449 19.4462C19.8115 18.477 20.3985 17.6065 21.1595 16.9033C21.9206 16.2001 22.8347 15.6836 23.8298 15.3946C24.8248 15.1056 25.8735 15.0521 26.8928 15.2382C27.9121 15.4244 28.8741 15.8451 29.7028 16.4671C30.5315 17.0891 31.2041 17.8954 31.6675 18.8222C32.1309 19.749 32.3723 20.7709 32.3726 21.807C32.3726 22.0774 32.2652 22.3367 32.074 22.5279C31.8828 22.7191 31.6235 22.8265 31.3531 22.8265C31.0827 22.8265 30.8234 22.7191 30.6322 22.5279C30.441 22.3367 30.3336 22.0774 30.3336 21.807C30.3337 21.0867 30.1662 20.3762 29.8444 19.7318C29.5225 19.0874 29.0551 18.5267 28.4792 18.0941C27.9032 17.6614 27.2345 17.3688 26.526 17.2392C25.8174 17.1096 25.0884 17.1467 24.3966 17.3474C23.7048 17.5482 23.0692 17.9072 22.5401 18.396C22.0111 18.8848 21.6029 19.49 21.3481 20.1638C21.0933 20.8375 20.9987 21.5613 21.0719 22.2779C21.145 22.9945 21.3839 23.6843 21.7697 24.2926C21.8675 24.4467 21.9222 24.6243 21.928 24.8068C21.9338 24.9893 21.8904 25.17 21.8025 25.33C21.7146 25.49 21.5853 25.6235 21.4281 25.7165C21.271 25.8095 21.0918 25.8585 20.9092 25.8586H20.9112Z" fill="#DA2587"/>
<path d="M18.3694 27.3599C18.1974 27.3602 18.0281 27.317 17.8773 27.2343C17.7265 27.1516 17.599 27.032 17.5068 26.8868C16.7015 25.6165 16.2028 24.1763 16.0501 22.68C15.8974 21.1838 16.0949 19.6725 16.627 18.2657C17.159 16.8589 18.0111 15.5952 19.1158 14.5745C20.2204 13.5538 21.5474 12.8041 22.9918 12.3846C24.4362 11.9652 25.9583 11.8876 27.4379 12.1578C28.9175 12.4281 30.3139 13.0389 31.5167 13.9419C32.7195 14.8449 33.6957 16.0153 34.3682 17.3607C35.0406 18.706 35.3909 20.1894 35.3912 21.6934C35.3912 21.9638 35.2838 22.2231 35.0926 22.4143C34.9014 22.6055 34.6421 22.7129 34.3717 22.7129C34.1013 22.7129 33.842 22.6055 33.6508 22.4143C33.4596 22.2231 33.3522 21.9638 33.3522 21.6934C33.3517 20.5058 33.075 19.3346 32.5439 18.2724C32.0129 17.2102 31.242 16.286 30.2922 15.5731C29.3425 14.8601 28.2399 14.3778 27.0716 14.1644C25.9033 13.951 24.7014 14.0122 23.5609 14.3433C22.4204 14.6744 21.3726 15.2663 20.5002 16.0721C19.6279 16.878 18.9549 17.8757 18.5346 18.9864C18.1143 20.0972 17.9581 21.2904 18.0784 22.4719C18.1987 23.6534 18.5922 24.7907 19.2278 25.7939C19.3256 25.9479 19.3802 26.1253 19.3861 26.3076C19.3919 26.49 19.3488 26.6705 19.2611 26.8305C19.1734 26.9904 19.0444 27.1239 18.8876 27.217C18.7307 27.3102 18.5518 27.3595 18.3694 27.3599Z" fill="#DA2587"/>
</svg>
