<?xml version="1.0"?>
<svg xmlns="http://www.w3.org/2000/svg" width="42" height="42" viewBox="0 0 50 50" fill="none">
<rect width="49.5" height="49.5" rx="16.5" fill="#DA2587"/>
<path d="M30.4375 11.25H19.0625C18.1484 11.2839 17.3867 11.6055 16.7773 12.2148C16.168 12.8242 15.8464 13.5859 15.8125 14.5V34C15.8464 34.9141 16.168 35.6758 16.7773 36.2852C17.3867 36.8945 18.1484 37.2161 19.0625 37.25H30.4375C31.3516 37.2161 32.1133 36.8945 32.7227 36.2852C33.332 35.6758 33.6536 34.9141 33.6875 34V14.5C33.6536 13.5859 33.332 12.8242 32.7227 12.2148C32.1133 11.6055 31.3516 11.2839 30.4375 11.25ZM24.75 35.625C24.276 35.625 23.8867 35.4727 23.582 35.168C23.2773 34.8633 23.125 34.474 23.125 34C23.125 33.526 23.2773 33.1367 23.582 32.832C23.8867 32.5273 24.276 32.375 24.75 32.375C25.224 32.375 25.6133 32.5273 25.918 32.832C26.2227 33.1367 26.375 33.526 26.375 34C26.375 34.474 26.2227 34.8633 25.918 35.168C25.6133 35.4727 25.224 35.625 24.75 35.625ZM30.4375 14.5V30.75H19.0625V14.5H30.4375Z" fill="white"/>
<path d="M28.8393 21.1406C28.9464 21.2448 29 21.3646 29 21.5C29 21.6354 28.9464 21.7552 28.8393 21.8594L24.2679 25.8594C24.1488 25.9531 24.0119 26 23.8571 26C23.7024 26 23.5655 25.9531 23.4464 25.8594L21.1607 23.8594C21.0536 23.7552 21 23.6354 21 23.5C21 23.3646 21.0536 23.2448 21.1607 23.1406C21.2798 23.0469 21.4167 23 21.5714 23C21.7262 23 21.8631 23.0469 21.9821 23.1406L23.8393 24.7969L28.0179 21.1406C28.1369 21.0469 28.2738 21 28.4286 21C28.5833 21 28.7202 21.0469 28.8393 21.1406Z" fill="white"/>
</svg>
