<?xml version="1.0"?>
<svg xmlns="http://www.w3.org/2000/svg" width="42" height="42" viewBox="0 0 58 58" fill="none">
<circle opacity="0.1" cx="29" cy="29" r="29" fill="#E14949"/>
<path d="M41.0714 37.5H39.2143V26.3571C39.2143 25.8646 39.0186 25.3922 38.6703 25.0439C38.3221 24.6957 37.8497 24.5 37.3571 24.5H35.5C35.0075 24.5 34.5351 24.6957 34.1868 25.0439C33.8385 25.3922 33.6429 25.8646 33.6429 26.3571V37.5H31.7857V29.1429C31.7857 28.6503 31.5901 28.1779 31.2418 27.8297C30.8935 27.4814 30.4211 27.2857 29.9286 27.2857H28.0714C27.5789 27.2857 27.1065 27.4814 26.7582 27.8297C26.4099 28.1779 26.2143 28.6503 26.2143 29.1429V37.5H24.3571V31.9286C24.3571 31.436 24.1615 30.9637 23.8132 30.6154C23.4649 30.2671 22.9925 30.0714 22.5 30.0714H20.6429C20.1503 30.0714 19.6779 30.2671 19.3297 30.6154C18.9814 30.9637 18.7857 31.436 18.7857 31.9286V37.5H16.9286C16.6823 37.5 16.4461 37.5978 16.272 37.772C16.0978 37.9461 16 38.1823 16 38.4286C16 38.6748 16.0978 38.911 16.272 39.0852C16.4461 39.2593 16.6823 39.3571 16.9286 39.3571H41.0714C41.3177 39.3571 41.5539 39.2593 41.728 39.0852C41.9022 38.911 42 38.6748 42 38.4286C42 38.1823 41.9022 37.9461 41.728 37.772C41.5539 37.5978 41.3177 37.5 41.0714 37.5Z" fill="#D82C2C" stroke="#FCEDED" stroke-width="0.8"/>
<path d="M18.7861 28.2146C18.8958 28.2145 19.0046 28.195 19.1074 28.157L36.4866 21.7629L36.2628 22.2392C36.211 22.3496 36.1815 22.4692 36.1759 22.591C36.1704 22.7128 36.1889 22.8345 36.2303 22.9492C36.2718 23.0639 36.3355 23.1693 36.4177 23.2594C36.4999 23.3494 36.599 23.4224 36.7094 23.4742C36.8198 23.526 36.9394 23.5555 37.0612 23.5611C37.183 23.5666 37.3047 23.5481 37.4194 23.5067C37.5341 23.4652 37.6395 23.4015 37.7296 23.3193C37.8197 23.2371 37.8927 23.138 37.9444 23.0276L39.1265 20.5074C39.1783 20.397 39.2078 20.2775 39.2134 20.1557C39.2189 20.0338 39.2004 19.9121 39.159 19.7974C39.1175 19.6827 39.0538 19.5773 38.9716 19.4873C38.8894 19.3972 38.7903 19.3242 38.6798 19.2724L36.1569 18.0876C35.9338 17.9832 35.6783 17.9716 35.4467 18.0556C35.2151 18.1395 35.0263 18.312 34.9219 18.5351C34.8175 18.7583 34.806 19.0137 34.8899 19.2453C34.9739 19.4769 35.1464 19.6657 35.3695 19.7701L35.8774 20.0079L18.4649 26.415C18.2605 26.4905 18.0892 26.6355 17.9809 26.8246C17.8727 27.0136 17.8343 27.2347 17.8726 27.4492C17.9109 27.6637 18.0234 27.8579 18.1904 27.9978C18.3574 28.1377 18.5683 28.2144 18.7861 28.2146Z" fill="#D82C2C" stroke="#FCEDED" stroke-width="0.8"/>
</svg>
