<?xml version="1.0"?>
<svg xmlns="http://www.w3.org/2000/svg" width="42" height="42" viewBox="0 0 58 58" fill="none">
<circle opacity="0.1" cx="29" cy="29" r="29" fill="#C2D020"/>
<path fill-rule="evenodd" clip-rule="evenodd" d="M27.6047 18.3953C27.6047 18.0259 27.4573 17.6709 27.1961 17.4086C26.9338 17.1473 26.5799 17 26.2093 17H18.3953C18.0247 17 17.6709 17.1473 17.4086 17.4086C17.1473 17.6709 17 18.0259 17 18.3953C17 19.2538 17 20.8858 17 21.7442C17 22.1137 17.1473 22.4687 17.4086 22.731C17.6709 22.9922 18.0247 23.1395 18.3953 23.1395H26.2093C26.5799 23.1395 26.9338 22.9922 27.1961 22.731C27.4573 22.4687 27.6047 22.1137 27.6047 21.7442V18.3953ZM18.6744 18.6744V21.4651H25.9302V18.6744H18.6744Z" fill="#AAB716" stroke="#AAB716" stroke-width="0.8"/>
<path fill-rule="evenodd" clip-rule="evenodd" d="M41 36.2586C41 35.8891 40.8527 35.5342 40.5915 35.2718C40.3291 35.0106 39.9753 34.8633 39.6047 34.8633H31.7907C31.4201 34.8633 31.0662 35.0106 30.8039 35.2718C30.5427 35.5342 30.3954 35.8891 30.3954 36.2586C30.3954 37.117 30.3954 38.749 30.3954 39.6075C30.3954 39.977 30.5427 40.3319 30.8039 40.5943C31.0662 40.8555 31.4201 41.0028 31.7907 41.0028H39.6047C39.9753 41.0028 40.3291 40.8555 40.5915 40.5943C40.8527 40.3319 41 39.977 41 39.6075V36.2586ZM32.0698 36.5377V39.3284H39.3256V36.5377H32.0698Z" fill="#AAB716" stroke="#AAB716" stroke-width="0.8"/>
<path fill-rule="evenodd" clip-rule="evenodd" d="M26.8009 40.1915L28.4754 38.517C28.8024 38.19 28.8024 37.6609 28.4754 37.3338L26.8009 35.6594C26.475 35.3323 25.9436 35.3323 25.6177 35.6594C25.2906 35.9853 25.2906 36.5167 25.6177 36.8426L26.6994 37.9254L25.6177 39.0082C25.2906 39.3342 25.2906 39.8655 25.6177 40.1915C25.9436 40.5185 26.475 40.5185 26.8009 40.1915Z" fill="#AAB716" stroke="#AAB716" stroke-width="0.8"/>
<path fill-rule="evenodd" clip-rule="evenodd" d="M30.4288 30.0824L29.3471 28.9996L30.4288 27.9168C30.7559 27.5909 30.7559 27.0595 30.4288 26.7336C30.1029 26.4065 29.5715 26.4065 29.2456 26.7336L27.5711 28.408C27.2441 28.7351 27.2441 29.2642 27.5711 29.5913L29.2456 31.2657C29.5715 31.5927 30.1029 31.5927 30.4288 31.2657C30.7559 30.9397 30.7559 30.4084 30.4288 30.0824Z" fill="#AAB716" stroke="#AAB716" stroke-width="0.8"/>
<path fill-rule="evenodd" clip-rule="evenodd" d="M38.2093 24.5367C38.2093 26.5404 36.5851 28.1646 34.5814 28.1646H31.8164C31.3543 28.1646 30.9792 28.5397 30.9792 29.0018C30.9792 29.464 31.3543 29.839 31.8164 29.839C31.8164 29.839 33.0979 29.839 34.5814 29.839C37.5094 29.839 39.8837 27.4647 39.8837 24.5367C39.8837 23.1302 39.3256 21.7817 38.331 20.7871C37.3364 19.7925 35.9879 19.2344 34.5814 19.2344H29C28.5379 19.2344 28.1628 19.6094 28.1628 20.0716C28.1628 20.5337 28.5379 20.9088 29 20.9088H34.5814C35.5436 20.9088 36.4668 21.2906 37.1466 21.9715C37.8276 22.6513 38.2093 23.5745 38.2093 24.5367Z" fill="#AAB716" stroke="#AAB716" stroke-width="0.8"/>
<path fill-rule="evenodd" clip-rule="evenodd" d="M25.6768 28.1641H23.4186C22.0121 28.1641 20.6636 28.7222 19.669 29.7168C18.6744 30.7114 18.1163 32.0599 18.1163 33.4664C18.1163 36.3944 20.4906 38.7687 23.4186 38.7687C23.8807 38.7687 24.2558 38.3936 24.2558 37.9315C24.2558 37.4694 23.8807 37.0943 23.4186 37.0943C21.4149 37.0943 19.7907 35.4701 19.7907 33.4664C19.7907 32.5042 20.1725 31.581 20.8534 30.9012C21.5332 30.2202 22.4564 29.8385 23.4186 29.8385C24.661 29.8385 25.6768 29.8385 25.6768 29.8385C26.139 29.8385 26.514 29.4634 26.514 29.0013C26.514 28.5391 26.139 28.1641 25.6768 28.1641Z" fill="#AAB716" stroke="#AAB716" stroke-width="0.8"/>
</svg>
