<?xml version="1.0"?>
<svg xmlns="http://www.w3.org/2000/svg" width="42" height="42" viewBox="0 0 58 58" fill="none">
<circle opacity="0.1" cx="29" cy="29" r="29" fill="#367FEE"/>
<path d="M27.4766 29.3516C27.849 29.8255 27.849 30.2995 27.4766 30.7734L25.75 32.5L27.4766 34.2266C27.8828 34.7005 27.8828 35.1745 27.4766 35.6484C27.2734 35.8516 27.0365 35.9531 26.7656 35.9531C26.4948 35.9531 26.2578 35.8516 26.0547 35.6484L23.6172 33.2109C23.2109 32.737 23.2109 32.263 23.6172 31.7891L26.0547 29.3516C26.5286 28.9453 27.0026 28.9453 27.4766 29.3516ZM37.7852 20.9727C38.4284 21.6159 38.75 22.3945 38.75 23.3086V39C38.7161 39.9141 38.3945 40.6758 37.7852 41.2852C37.1758 41.8945 36.4141 42.2161 35.5 42.25H22.5C21.5859 42.2161 20.8242 41.8945 20.2148 41.2852C19.6055 40.6758 19.2839 39.9141 19.25 39V19.5C19.2839 18.5859 19.6055 17.8242 20.2148 17.2148C20.8242 16.6055 21.5859 16.2839 22.5 16.25H31.6914C32.6055 16.25 33.3841 16.5716 34.0273 17.2148L37.7852 20.9727ZM36.3125 39H36.2617V24.375H32.25C31.776 24.375 31.3867 24.2227 31.082 23.918C30.7773 23.6133 30.625 23.224 30.625 22.75V18.6875H22.5C21.9922 18.7552 21.7214 19.026 21.6875 19.5V39C21.7214 39.5078 21.9922 39.7786 22.5 39.8125H35.5C36.0078 39.7786 36.2786 39.5078 36.3125 39ZM30.5234 29.3516C30.9974 28.9453 31.4714 28.9453 31.9453 29.3516L34.3828 31.7891C34.7891 32.263 34.7891 32.737 34.3828 33.2109L31.9453 35.6484C31.7422 35.8516 31.5052 35.9531 31.2344 35.9531C30.9635 35.9531 30.7266 35.8516 30.5234 35.6484C30.1172 35.1745 30.1172 34.7005 30.5234 34.2266L32.25 32.5L30.5234 30.7734C30.1172 30.2995 30.1172 29.8255 30.5234 29.3516Z" fill="#367FEE"/>
</svg>
