<?xml version="1.0"?>
<svg xmlns="http://www.w3.org/2000/svg" width="42" height="42" viewBox="0 0 58 58" fill="none">
<circle opacity="0.1" cx="29" cy="29" r="29" fill="#49E198"/>
<g clip-path="url(#clip0_6994_8611)">
<path d="M28.4989 22.875C29.7415 22.875 30.7489 21.8676 30.7489 20.625C30.7489 19.3824 29.7415 18.375 28.4989 18.375C27.2563 18.375 26.2489 19.3824 26.2489 20.625C26.2489 21.8676 27.2563 22.875 28.4989 22.875Z" fill="#27C177"/>
<path d="M18.375 42C20.2358 42 21.75 40.4858 21.75 38.625C21.75 37.1614 20.8073 35.9239 19.5 35.457V34.125H27.375V35.457C26.0677 35.9239 25.125 37.1614 25.125 38.625C25.125 40.4858 26.6392 42 28.5 42C30.3608 42 31.875 40.4858 31.875 38.625C31.875 37.1614 30.9323 35.9239 29.625 35.457V34.125H37.5V35.457C36.1928 35.9239 35.25 37.1614 35.25 38.625C35.25 40.4858 36.7642 42 38.625 42C40.4858 42 42 40.4858 42 38.625C42 37.1614 41.0572 35.9239 39.75 35.457V31.875H29.625V30.66C33.4354 30.111 36.375 26.835 36.375 22.875C36.375 18.5325 32.8414 15 28.5 15C24.1586 15 20.625 18.5325 20.625 22.875C20.625 26.835 23.5646 30.111 27.375 30.66V31.875H17.25V35.457C15.9428 35.9239 15 37.1614 15 38.625C15 40.4858 16.5142 42 18.375 42ZM28.5 39.75C27.879 39.75 27.375 39.2449 27.375 38.625C27.375 38.0051 27.879 37.5 28.5 37.5C29.121 37.5 29.625 38.0051 29.625 38.625C29.625 39.2449 29.121 39.75 28.5 39.75ZM38.625 39.75C38.004 39.75 37.5 39.2449 37.5 38.625C37.5 38.0051 38.004 37.5 38.625 37.5C39.246 37.5 39.75 38.0051 39.75 38.625C39.75 39.2449 39.246 39.75 38.625 39.75ZM22.875 22.875C22.875 19.7734 25.3984 17.25 28.5 17.25C31.6016 17.25 34.125 19.7734 34.125 22.875C34.125 24.7054 33.2329 26.3186 31.875 27.3469V26.25C31.875 25.008 30.867 24 29.625 24H27.375C26.133 24 25.125 25.008 25.125 26.25V27.3469C23.7671 26.3186 22.875 24.7054 22.875 22.875ZM18.375 37.5C18.996 37.5 19.5 38.0051 19.5 38.625C19.5 39.2449 18.996 39.75 18.375 39.75C17.754 39.75 17.25 39.2449 17.25 38.625C17.25 38.0051 17.754 37.5 18.375 37.5Z" fill="#27C177"/>
</g>
<defs>
<clipPath id="clip0_6994_8611">
<rect width="27" height="27" fill="white" transform="translate(15 15)"/>
</clipPath>
</defs>
</svg>
