<svg width="48" height="48" viewBox="0 0 48 48" fill="none" xmlns="http://www.w3.org/2000/svg">
<rect width="48" height="48" rx="24" fill="#EDFCF5"/>
<g clip-path="url(#clip0_1001_9065)">
<mask id="mask0_1001_9065" style="mask-type:luminance" maskUnits="userSpaceOnUse" x="12" y="12" width="24" height="24">
<path d="M36 12H12V36H36V12Z" fill="white"/>
</mask>
<g mask="url(#mask0_1001_9065)">
<path d="M17.0737 12.0004H13.2488C12.9191 12.0086 12.6053 12.1436 12.3727 12.3774C12.1401 12.6111 12.0066 12.9256 12 13.2553V17.0195C12.0189 17.3585 12.1635 17.6782 12.4058 17.9161C12.648 18.1541 12.9703 18.293 13.3095 18.3058H17.0137C17.3491 18.2916 17.6669 18.1513 17.9032 17.9128C18.1396 17.6744 18.2772 17.3554 18.2884 17.0198V13.2151C18.2881 12.8931 18.1601 12.5843 17.9324 12.3566C17.7048 12.1289 17.3957 12.0008 17.0737 12.0004ZM17.0539 17.0195C17.0539 17.0297 17.0499 17.0396 17.0426 17.0468C17.0353 17.0541 17.0255 17.0582 17.0152 17.0582H13.2488C13.2385 17.0582 13.2287 17.0541 13.2214 17.0468C13.2141 17.0396 13.2101 17.0297 13.2101 17.0195V13.2553C13.2101 13.2451 13.2141 13.2352 13.2214 13.228C13.2287 13.2207 13.2385 13.2166 13.2488 13.2166H17.0133C17.0236 13.2166 17.0334 13.2207 17.0407 13.228C17.0479 13.2352 17.052 13.2451 17.052 13.2553L17.0539 17.0195Z" fill="#09BD51"/>
<path d="M17.0737 20.9036H13.2488C12.9191 20.9118 12.6053 21.0469 12.3727 21.2806C12.1401 21.5144 12.0066 21.8289 12 22.1586V25.9227C12.0189 26.2617 12.1635 26.5815 12.4058 26.8194C12.648 27.0573 12.9703 27.1962 13.3095 27.209H17.0137C17.3491 27.1949 17.6669 27.0545 17.9032 26.8161C18.1396 26.5776 18.2772 26.2587 18.2884 25.9231V22.1183C18.2881 21.7963 18.1601 21.4876 17.9324 21.2599C17.7048 21.0321 17.3957 20.904 17.0737 20.9036ZM17.0539 25.9227C17.0539 25.933 17.0499 25.9428 17.0426 25.9501C17.0353 25.9573 17.0255 25.9614 17.0152 25.9614H13.2488C13.2385 25.9614 13.2287 25.9573 13.2214 25.9501C13.2141 25.9428 13.2101 25.933 13.2101 25.9227V22.1586C13.2101 22.1483 13.2141 22.1385 13.2214 22.1312C13.2287 22.1239 13.2385 22.1199 13.2488 22.1199H17.0133C17.0236 22.1199 17.0334 22.1239 17.0407 22.1312C17.0479 22.1385 17.052 22.1483 17.052 22.1586L17.0539 25.9227Z" fill="#09BD51"/>
<path d="M17.0737 29.8068H13.2488C12.9191 29.815 12.6053 29.9501 12.3727 30.1838C12.1401 30.4176 12.0066 30.7321 12 31.0618V34.8259C12.0189 35.1649 12.1635 35.4847 12.4058 35.7226C12.648 35.9605 12.9703 36.0995 13.3095 36.1122H17.0137C17.3491 36.0981 17.6669 35.9577 17.9032 35.7193C18.1396 35.4808 18.2772 35.1619 18.2884 34.8263V31.0215C18.2881 30.6995 18.1601 30.3908 17.9324 30.1631C17.7048 29.9354 17.3957 29.8072 17.0737 29.8068ZM17.0539 34.8259C17.0539 34.8362 17.0499 34.846 17.0426 34.8533C17.0353 34.8606 17.0255 34.8646 17.0152 34.8646H13.2488C13.2385 34.8646 13.2287 34.8606 13.2214 34.8533C13.2141 34.846 13.2101 34.8362 13.2101 34.8259V31.0618C13.2101 31.0515 13.2141 31.0417 13.2214 31.0344C13.2287 31.0272 13.2385 31.0231 13.2488 31.0231H17.0133C17.0236 31.0231 17.0334 31.0272 17.0407 31.0344C17.0479 31.0417 17.052 31.0515 17.052 31.0618L17.0539 34.8259Z" fill="#09BD51"/>
<path d="M28.7153 13.2088H21.5002C21.311 13.1997 21.1259 13.2658 20.9853 13.3927C20.8447 13.5197 20.7601 13.6971 20.75 13.8863C20.7601 14.0754 20.8447 14.2529 20.9853 14.3798C21.1259 14.5067 21.311 14.5729 21.5002 14.5637H28.7157C28.9049 14.5729 29.09 14.5067 29.2306 14.3798C29.3712 14.2529 29.4558 14.0754 29.4659 13.8863C29.4558 13.6971 29.3712 13.5197 29.2306 13.3927C29.09 13.2658 28.9045 13.1997 28.7153 13.2088Z" fill="#09BD51"/>
<path d="M28.7153 22.1125H21.5002C21.311 22.1034 21.1259 22.1695 20.9853 22.2964C20.8447 22.4234 20.7601 22.6008 20.75 22.79C20.7601 22.9791 20.8447 23.1565 20.9853 23.2835C21.1259 23.4104 21.311 23.4765 21.5002 23.4674H28.7157C28.9049 23.4765 29.09 23.4104 29.2306 23.2835C29.3712 23.1565 29.4558 22.9791 29.4659 22.79C29.4558 22.6008 29.3712 22.4234 29.2306 22.2964C29.09 22.1695 28.9045 22.1034 28.7153 22.1125Z" fill="#09BD51"/>
<path d="M28.7153 31.0157H21.5002C21.311 31.0066 21.1259 31.0727 20.9853 31.1996C20.8447 31.3266 20.7601 31.504 20.75 31.6932C20.7601 31.8823 20.8447 32.0597 20.9853 32.1867C21.1259 32.3136 21.311 32.3797 21.5002 32.3706H28.7157C28.9049 32.3797 29.09 32.3136 29.2306 32.1867C29.3712 32.0597 29.4558 31.8823 29.4659 31.6932C29.4558 31.504 29.3712 31.3266 29.2306 31.1996C29.09 31.0727 28.9045 31.0066 28.7153 31.0157Z" fill="#09BD51"/>
<path d="M34.7809 15.8082H21.4806C21.3873 15.8012 21.2936 15.8134 21.2053 15.8443C21.117 15.8751 21.036 15.9239 20.9675 15.9875C20.8989 16.0511 20.8441 16.1281 20.8067 16.2139C20.7693 16.2996 20.75 16.3921 20.75 16.4856C20.75 16.5792 20.7693 16.6717 20.8067 16.7574C20.8441 16.8431 20.8989 16.9202 20.9675 16.9838C21.036 17.0474 21.117 17.0961 21.2053 17.127C21.2936 17.1578 21.3873 17.1701 21.4806 17.163H34.7809C34.8741 17.1701 34.9678 17.1578 35.0561 17.127C35.1444 17.0961 35.2254 17.0474 35.294 16.9838C35.3626 16.9202 35.4173 16.8431 35.4547 16.7574C35.4921 16.6717 35.5115 16.5792 35.5115 16.4856C35.5115 16.3921 35.4921 16.2996 35.4547 16.2139C35.4173 16.1281 35.3626 16.0511 35.294 15.9875C35.2254 15.9239 35.1444 15.8751 35.0561 15.8443C34.9678 15.8134 34.8741 15.8012 34.7809 15.8082Z" fill="#09BD51"/>
<path d="M34.7809 24.7119H21.4806C21.3873 24.7048 21.2936 24.7171 21.2053 24.748C21.117 24.7788 21.036 24.8276 20.9675 24.8912C20.8989 24.9547 20.8441 25.0318 20.8067 25.1175C20.7693 25.2033 20.75 25.2958 20.75 25.3893C20.75 25.4828 20.7693 25.5754 20.8067 25.6611C20.8441 25.7468 20.8989 25.8239 20.9675 25.8875C21.036 25.9511 21.117 25.9998 21.2053 26.0307C21.2936 26.0615 21.3873 26.0738 21.4806 26.0667H34.7809C34.8741 26.0738 34.9678 26.0615 35.0561 26.0307C35.1444 25.9998 35.2254 25.9511 35.294 25.8875C35.3626 25.8239 35.4173 25.7468 35.4547 25.6611C35.4921 25.5754 35.5115 25.4828 35.5115 25.3893C35.5115 25.2958 35.4921 25.2033 35.4547 25.1175C35.4173 25.0318 35.3626 24.9547 35.294 24.8912C35.2254 24.8276 35.1444 24.7788 35.0561 24.748C34.9678 24.7171 34.8741 24.7048 34.7809 24.7119Z" fill="#09BD51"/>
<path d="M34.7809 33.6151H21.4806C21.3873 33.608 21.2936 33.6203 21.2053 33.6512C21.117 33.682 21.036 33.7308 20.9675 33.7943C20.8989 33.8579 20.8441 33.935 20.8067 34.0207C20.7693 34.1065 20.75 34.199 20.75 34.2925C20.75 34.386 20.7693 34.4786 20.8067 34.5643C20.8441 34.65 20.8989 34.7271 20.9675 34.7907C21.036 34.8543 21.117 34.903 21.2053 34.9339C21.2936 34.9647 21.3873 34.977 21.4806 34.9699H34.7809C34.8741 34.977 34.9678 34.9647 35.0561 34.9339C35.1444 34.903 35.2254 34.8543 35.294 34.7907C35.3626 34.7271 35.4173 34.65 35.4547 34.5643C35.4921 34.4786 35.5115 34.386 35.5115 34.2925C35.5115 34.199 35.4921 34.1065 35.4547 34.0207C35.4173 33.935 35.3626 33.8579 35.294 33.7943C35.2254 33.7308 35.1444 33.682 35.0561 33.6512C34.9678 33.6203 34.8741 33.608 34.7809 33.6151Z" fill="#09BD51"/>
</g>
</g>
<defs>
<clipPath id="clip0_1001_9065">
<rect width="24" height="24" fill="white" transform="translate(12 12)"/>
</clipPath>
</defs>
</svg>
