<?xml version="1.0"?>
<svg xmlns="http://www.w3.org/2000/svg" width="40" height="40" viewBox="0 0 58 58" fill="none">
<rect width="58" height="58" rx="11.6" fill="#FBF2F2"/>
<path d="M35.8233 17.3008C36.4275 17.331 36.941 17.5425 37.364 17.9352C37.7567 18.3581 37.9681 18.8717 37.9983 19.4758V38.3258C37.9681 38.93 37.7567 39.4435 37.364 39.8665C36.941 40.2592 36.4275 40.4706 35.8233 40.5008H31.4733V36.8758C31.4431 36.2717 31.2317 35.7581 30.839 35.3352C30.416 34.9425 29.9025 34.731 29.2983 34.7008C28.6942 34.731 28.1806 34.9425 27.7577 35.3352C27.365 35.7581 27.1535 36.2717 27.1233 36.8758V40.5008H22.7733C22.1692 40.4706 21.6556 40.2592 21.2327 39.8665C20.84 39.4435 20.6285 38.93 20.5983 38.3258V19.4758C20.6285 18.8717 20.84 18.3581 21.2327 17.9352C21.6556 17.5425 22.1692 17.331 22.7733 17.3008H35.8233ZM23.4983 29.6258C23.5285 30.079 23.7702 30.3206 24.2233 30.3508H25.6733C26.1265 30.3206 26.3681 30.079 26.3983 29.6258V28.1758C26.3681 27.7227 26.1265 27.481 25.6733 27.4508H24.2233C23.7702 27.481 23.5285 27.7227 23.4983 28.1758V29.6258ZM28.5733 27.4508C28.1202 27.481 27.8785 27.7227 27.8483 28.1758V29.6258C27.8785 30.079 28.1202 30.3206 28.5733 30.3508H30.0233C30.4765 30.3206 30.7181 30.079 30.7483 29.6258V28.1758C30.7181 27.7227 30.4765 27.481 30.0233 27.4508H28.5733ZM32.1983 29.6258C32.2285 30.079 32.4702 30.3206 32.9233 30.3508H34.3733C34.8265 30.3206 35.0681 30.079 35.0983 29.6258V28.1758C35.0681 27.7227 34.8265 27.481 34.3733 27.4508H32.9233C32.4702 27.481 32.2285 27.7227 32.1983 28.1758V29.6258ZM24.2233 21.6508C23.7702 21.681 23.5285 21.9227 23.4983 22.3758V23.8258C23.5285 24.279 23.7702 24.5206 24.2233 24.5508H25.6733C26.1265 24.5206 26.3681 24.279 26.3983 23.8258V22.3758C26.3681 21.9227 26.1265 21.681 25.6733 21.6508H24.2233ZM27.8483 23.8258C27.8785 24.279 28.1202 24.5206 28.5733 24.5508H30.0233C30.4765 24.5206 30.7181 24.279 30.7483 23.8258V22.3758C30.7181 21.9227 30.4765 21.681 30.0233 21.6508H28.5733C28.1202 21.681 27.8785 21.9227 27.8483 22.3758V23.8258ZM32.9233 21.6508C32.4702 21.681 32.2285 21.9227 32.1983 22.3758V23.8258C32.2285 24.279 32.4702 24.5206 32.9233 24.5508H34.3733C34.8265 24.5206 35.0681 24.279 35.0983 23.8258V22.3758C35.0681 21.9227 34.8265 21.681 34.3733 21.6508H32.9233Z" fill="#FF1414"/>
</svg>
