<?xml version="1.0"?>
<svg xmlns="http://www.w3.org/2000/svg" width="42" height="42" viewBox="0 0 58 58" fill="none">
<circle opacity="0.1" cx="29" cy="29" r="29" fill="#4C49E1"/>
<path d="M32.7776 24.2882C32.4473 23.9578 31.9115 23.9578 31.581 24.2882C31.2506 24.6186 31.2506 25.1544 31.581 25.4848L32.7776 26.6815C32.9429 26.8467 33.1594 26.9293 33.3759 26.9293C33.5924 26.9293 33.8091 26.8467 33.9742 26.6815L36.3675 24.2882C36.6979 23.9578 36.6979 23.422 36.3675 23.0916C36.0371 22.7611 35.5014 22.7612 35.1709 23.0916L33.376 24.8865L32.7776 24.2882Z" fill="#4C49E1"/>
<path d="M35.171 27.3768L33.376 29.1717L32.7776 28.5734C32.4473 28.243 31.9115 28.243 31.581 28.5734C31.2506 28.9038 31.2506 29.4396 31.581 29.77L32.7776 30.9667C32.9429 31.1319 33.1594 31.2145 33.3759 31.2145C33.5924 31.2145 33.8091 31.1319 33.9742 30.9667L36.3675 28.5734C36.6979 28.243 36.6979 27.7072 36.3675 27.3768C36.0371 27.0462 35.5014 27.0463 35.171 27.3768Z" fill="#4C49E1"/>
<path d="M29 24.043H22.2308C21.7635 24.043 21.3846 24.4218 21.3846 24.8891C21.3846 25.3564 21.7635 25.7353 22.2308 25.7353H29C29.4673 25.7353 29.8462 25.3564 29.8462 24.8891C29.8462 24.4218 29.4673 24.043 29 24.043Z" fill="#4C49E1"/>
<path d="M29 28.3281H22.2308C21.7635 28.3281 21.3846 28.707 21.3846 29.1743C21.3846 29.6416 21.7635 30.0204 22.2308 30.0204H29C29.4673 30.0204 29.8462 29.6416 29.8462 29.1743C29.8462 28.707 29.4673 28.3281 29 28.3281Z" fill="#4C49E1"/>
<path d="M29 32.6133H22.2308C21.7635 32.6133 21.3846 32.9921 21.3846 33.4594C21.3846 33.9267 21.7635 34.3056 22.2308 34.3056H29C29.4673 34.3056 29.8462 33.9267 29.8462 33.4594C29.8462 32.9921 29.4673 32.6133 29 32.6133Z" fill="#4C49E1"/>
<path d="M29 36.9023H22.2308C21.7635 36.9023 21.3846 37.2812 21.3846 37.7485C21.3846 38.2158 21.7635 38.5947 22.2308 38.5947H29C29.4673 38.5947 29.8462 38.2158 29.8462 37.7485C29.8462 37.2812 29.4673 36.9023 29 36.9023Z" fill="#4C49E1"/>
<path d="M39.1538 17.3846H34.3418C34.0229 16.7081 33.339 16.2564 32.5571 16.2564H31.7761L32.0773 15.0514C32.1405 14.7987 32.0837 14.5308 31.9234 14.3254C31.763 14.12 31.517 14 31.2564 14H26.7436C26.483 14 26.237 14.12 26.0767 14.3254C25.9163 14.5308 25.8595 14.7987 25.9227 15.0514L26.224 16.2564H25.4429C24.6611 16.2564 23.9772 16.7081 23.6583 17.3846H18.8462C18.3789 17.3846 18 17.7635 18 18.2308V42.0359C18 42.5032 18.3789 42.8821 18.8462 42.8821H39.1538C39.6211 42.8821 40 42.5032 40 42.0359V18.2308C40 17.7635 39.6211 17.3846 39.1538 17.3846ZM25.4429 17.9487H27.3077C27.5683 17.9487 27.8143 17.8287 27.9746 17.6233C28.1349 17.4179 28.1918 17.1501 28.1286 16.8973L27.8273 15.6923H30.1727L29.8714 16.8973C29.8082 17.1501 29.865 17.418 30.0253 17.6233C30.1857 17.8287 30.4317 17.9487 30.6923 17.9487H32.5571C32.6955 17.9487 32.8125 18.0478 32.8353 18.1844L33.0781 19.641H24.9219L25.1647 18.1844C25.1875 18.0478 25.3045 17.9487 25.4429 17.9487ZM38.3077 41.1897H19.6923V19.0769H23.3003L23.0884 20.3481C23.0475 20.5934 23.1166 20.8443 23.2775 21.0341C23.4383 21.2238 23.6744 21.3333 23.9231 21.3333H34.0769C34.3256 21.3333 34.5618 21.2239 34.7225 21.0341C34.8833 20.8443 34.9525 20.5933 34.9116 20.3481L34.6997 19.0769H38.3077V41.1897Z" fill="#4C49E1"/>
</svg>
