<?xml version="1.0"?>
<svg xmlns="http://www.w3.org/2000/svg" width="42" height="42" viewBox="0 0 58 58" fill="none">
<circle cx="29" cy="29" r="29" fill="#EDEDFC"/>
<g clip-path="url(#clip0_7053_9070)">
<path d="M19.375 27.25C20.6176 27.25 21.625 26.2426 21.625 25C21.625 23.7574 20.6176 22.75 19.375 22.75C18.1324 22.75 17.125 23.7574 17.125 25C17.125 26.2426 18.1324 27.25 19.375 27.25Z" fill="#4C49E1"/>
<path d="M17.125 43H19.375V36.25H20.5V43H22.75V36.25V34V32.2191L25.3296 34.7965L26.9204 33.2046L22.0862 28.375H18.25C17.0091 28.375 16 29.3841 16 30.625V36.25H17.125V43Z" fill="#4C49E1"/>
<path d="M30.625 16C27.5234 16 25 18.5234 25 21.625C25 23.3834 25.8483 25.045 27.25 26.1014V28.375H34V26.1014C35.4018 25.045 36.25 23.3834 36.25 21.625C36.25 18.5234 33.7266 16 30.625 16ZM32.3091 24.5297L31.75 24.8549V26.125H29.5V24.8549L28.9409 24.5297C27.8823 23.9121 27.25 22.8265 27.25 21.625C27.25 19.7642 28.7643 18.25 30.625 18.25C32.4858 18.25 34 19.7642 34 21.625C34 22.8265 33.3678 23.9121 32.3091 24.5297Z" fill="#4C49E1"/>
<path d="M33.9989 29.5H27.2489V31.75H33.9989V29.5Z" fill="#4C49E1"/>
<path d="M39.625 27.25C40.8676 27.25 41.875 26.2426 41.875 25C41.875 23.7574 40.8676 22.75 39.625 22.75C38.3824 22.75 37.375 23.7574 37.375 25C37.375 26.2426 38.3824 27.25 39.625 27.25Z" fill="#4C49E1"/>
<path d="M40.75 28.375H38.5C37.2591 28.375 36.25 29.3841 36.25 30.625V35.125H37.375V43H41.875V35.125H43V30.625C43 29.3841 41.9909 28.375 40.75 28.375Z" fill="#4C49E1"/>
</g>
<defs>
<clipPath id="clip0_7053_9070">
<rect width="27" height="27" fill="white" transform="translate(16 16)"/>
</clipPath>
</defs>
</svg>
