<?xml version="1.0"?>
<svg xmlns="http://www.w3.org/2000/svg" width="40" height="40" viewBox="0 0 58 58" fill="none">
<rect width="58" height="58" rx="11.6" fill="#F1F2E8"/>
<path d="M17.8541 25.6047V25.3328C17.8843 23.7016 18.3978 22.312 19.3947 21.1641C20.3916 19.9859 21.6754 19.2458 23.2463 18.9438C24.2734 18.7927 25.2853 18.8682 26.2822 19.1703C27.2791 19.4724 28.1551 20.001 28.9103 20.7563L29.4541 21.3L29.9525 20.7563C30.7379 20.001 31.614 19.4724 32.5807 19.1703C33.5775 18.8682 34.6046 18.7927 35.6619 18.9438C37.2327 19.2458 38.5166 19.9859 39.5135 21.1641C40.5103 22.312 41.0239 23.7016 41.0541 25.3328V25.6047C41.0239 27.5682 40.2989 29.2146 38.8791 30.5438L30.7228 38.2016C30.3603 38.5339 29.9374 38.7 29.4541 38.7C28.9708 38.7 28.5478 38.5339 28.1853 38.2016L20.0291 30.5438C18.6093 29.2146 17.8843 27.5682 17.8541 25.6047Z" fill="#C2D020"/>
</svg>
