<svg xmlns="http://www.w3.org/2000/svg" width="77" height="89" viewBox="0 0 77 89" fill="none">
<path fill-rule="evenodd" clip-rule="evenodd" d="M29.0085 67.0526C28.2767 67.0526 27.6495 66.3283 27.6495 65.423C27.6495 48.7052 15.8893 35.1256 1.41122 35.1256C0.62721 35.1256 0 34.4014 0 33.4961C0 32.6512 0.62721 31.9269 1.41122 31.9269C15.8893 31.9269 27.6495 18.2871 27.6495 1.62954C27.6495 0.72424 28.2767 0 29.0085 0C29.7925 0 30.4197 0.72424 30.4197 1.62954C30.4197 18.2871 42.1799 31.9269 56.658 31.9269C57.442 31.9269 58.0692 32.6512 58.0692 33.4961C58.0692 34.4014 57.442 35.1256 56.658 35.1256C42.1799 35.1256 30.4197 48.7052 30.4197 65.423C30.4197 66.3283 29.7925 67.0526 29.0085 67.0526Z" fill="white"/>
<path fill-rule="evenodd" clip-rule="evenodd" d="M41.5983 88.5871C41.4199 88.5871 41.267 88.4038 41.267 88.1745C41.267 83.9416 38.3996 80.5032 34.8695 80.5032C34.6783 80.5032 34.5254 80.3198 34.5254 80.0906C34.5254 79.8767 34.6783 79.6933 34.8695 79.6933C38.3996 79.6933 41.267 76.2397 41.267 72.022C41.267 71.7928 41.4199 71.6094 41.5983 71.6094C41.7895 71.6094 41.9424 71.7928 41.9424 72.022C41.9424 76.2397 44.8098 79.6933 48.3399 79.6933C48.5311 79.6933 48.684 79.8767 48.684 80.0906C48.684 80.3198 48.5311 80.5032 48.3399 80.5032C44.8098 80.5032 41.9424 83.9416 41.9424 88.1745C41.9424 88.4038 41.7895 88.5871 41.5983 88.5871Z" fill="white"/>
<path fill-rule="evenodd" clip-rule="evenodd" d="M65.0086 77.2572C64.7067 77.2572 64.4479 76.9516 64.4479 76.5695C64.4479 69.5146 59.5954 63.784 53.6214 63.784C53.2979 63.784 53.0391 63.4784 53.0391 63.0963C53.0391 62.7398 53.2979 62.4341 53.6214 62.4341C59.5954 62.4341 64.4479 56.6781 64.4479 49.6486C64.4479 49.2666 64.7067 48.9609 65.0086 48.9609C65.3321 48.9609 65.5909 49.2666 65.5909 49.6486C65.5909 56.6781 70.4435 62.4341 76.4175 62.4341C76.741 62.4341 76.9998 62.7398 76.9998 63.0963C76.9998 63.4784 76.741 63.784 76.4175 63.784C70.4435 63.784 65.5909 69.5146 65.5909 76.5695C65.5909 76.9516 65.3321 77.2572 65.0086 77.2572Z" fill="white"/>
</svg>