<?xml version="1.0"?>
<svg xmlns="http://www.w3.org/2000/svg" width="42" height="42" viewBox="0 0 50 50" fill="none">
<rect width="49.5" height="49.5" rx="16.5" fill="#4C49E1"/>
<path d="M33.7273 27.9091C33.017 27.9091 32.3523 28.0875 31.7534 28.3795L27.242 20.2591C28.4114 19.4364 29.1818 18.0818 29.1818 16.5455C29.1818 14.0386 27.1432 12 24.6364 12C22.1295 12 20.0909 14.0386 20.0909 16.5455C20.0909 18.0818 20.8614 19.4364 22.0307 20.2591L17.5193 28.3795C16.9205 28.0875 16.2557 27.9091 15.5455 27.9091C13.0386 27.9091 11 29.9477 11 32.4545C11 34.9614 13.0386 37 15.5455 37C17.6568 37 19.4216 35.5455 19.9284 33.5909H29.3432C29.85 35.5455 31.6148 37 33.7261 37C36.233 37 38.2716 34.9614 38.2716 32.4545C38.2716 29.9477 36.2341 27.9091 33.7273 27.9091ZM24.6364 14.2727C25.8898 14.2727 26.9091 15.292 26.9091 16.5455C26.9091 17.7989 25.8898 18.8182 24.6364 18.8182C23.383 18.8182 22.3636 17.7989 22.3636 16.5455C22.3636 15.292 23.383 14.2727 24.6364 14.2727ZM24.6364 21.0909C24.7886 21.0909 24.9318 21.0614 25.0795 21.0455L29.9875 29.8795C29.6898 30.3102 29.4784 30.7977 29.3443 31.317H19.9284C19.7943 30.7977 19.5818 30.3102 19.2852 29.8795L24.1932 21.0455C24.3409 21.0614 24.4841 21.0909 24.6364 21.0909ZM15.5455 34.7273C14.292 34.7273 13.2727 33.708 13.2727 32.4545C13.2727 31.2011 14.292 30.1818 15.5455 30.1818C16.7989 30.1818 17.8182 31.2011 17.8182 32.4545C17.8182 33.708 16.7989 34.7273 15.5455 34.7273ZM33.7273 34.7273C32.4739 34.7273 31.4545 33.708 31.4545 32.4545C31.4545 31.2011 32.4739 30.1818 33.7273 30.1818C34.9807 30.1818 36 31.2011 36 32.4545C36 33.708 34.9807 34.7273 33.7273 34.7273Z" fill="white"/>
</svg>
