<?xml version="1.0"?>
<svg xmlns="http://www.w3.org/2000/svg" width="40" height="40" viewBox="0 0 58 58" fill="none">
<rect width="58" height="58" rx="11.6" fill="#E9EEF7"/>
<path d="M28.0041 22.8859C26.0708 23.2182 24.4093 24.0188 23.0197 25.2875L17.99 18.0828C17.839 17.8411 17.8239 17.5995 17.9447 17.3578C18.0655 17.1161 18.277 16.9802 18.5791 16.95H24.0166C24.2885 16.95 24.4848 17.0708 24.6057 17.3125L28.0041 22.8859ZM29.4541 24.2C31.7197 24.2604 33.5926 25.0458 35.0728 26.5563C36.5833 28.0365 37.3687 29.9094 37.4291 32.175C37.3687 34.4406 36.5833 36.3135 35.0728 37.7937C33.5926 39.3042 31.7197 40.0896 29.4541 40.15C27.1885 40.0896 25.3155 39.3042 23.8353 37.7937C22.3249 36.3135 21.5395 34.4406 21.4791 32.175C21.5395 29.9094 22.3249 28.0365 23.8353 26.5563C25.3155 25.0458 27.1885 24.2604 29.4541 24.2ZM33.6682 31.3141C33.8192 31.163 33.8494 30.9818 33.7588 30.7703C33.6984 30.5891 33.5624 30.4833 33.351 30.4531L30.9947 30.0906L29.9072 27.9609C29.8166 27.7495 29.6655 27.6438 29.4541 27.6438C29.2426 27.6438 29.0916 27.7495 29.001 27.9609L27.9135 30.0906L25.5572 30.4531C25.3458 30.4833 25.2098 30.5891 25.1494 30.7703C25.0588 30.9818 25.089 31.163 25.24 31.3141L26.9619 32.9906L26.5541 35.3922C26.5541 35.6036 26.6296 35.7698 26.7807 35.8906C26.9317 36.0115 27.1129 36.0266 27.3244 35.9359L29.4541 34.8031L31.5838 35.9359C31.7952 36.0266 31.9765 36.0115 32.1275 35.8906C32.2786 35.7698 32.339 35.6036 32.3088 35.3922L31.9463 32.9906L33.6682 31.3141ZM40.2838 16.95C40.6161 16.9802 40.8426 17.1161 40.9635 17.3578C41.0843 17.5693 41.0692 17.7958 40.9182 18.0375L35.8885 25.2422C34.4989 23.9734 32.8374 23.1729 30.9041 22.8406L34.2572 17.3125C34.4083 17.0708 34.6197 16.95 34.8916 16.95H40.2838Z" fill="#4788F5"/>
</svg>
