<?xml version="1.0"?>
<svg xmlns="http://www.w3.org/2000/svg" width="42" height="42" viewBox="0 0 58 58" fill="none">
<circle opacity="0.1" cx="29" cy="29" r="29" fill="#FF7816"/>
<g clip-path="url(#clip0_6994_8538)">
<path d="M33.6667 39.918H19.0833V38.8763C19.0833 37.1534 20.4854 35.7513 22.2083 35.7513H29.5V33.668H22.2083C19.3365 33.668 17 36.0044 17 38.8763V42.0013H33.6667V39.918Z" fill="#FF7816"/>
<path d="M25.8542 32.625C28.4386 32.625 30.5417 30.5229 30.5417 27.9375C30.5417 25.3531 28.4386 23.25 25.8542 23.25C23.2698 23.25 21.1667 25.3531 21.1667 27.9375C21.1667 30.5229 23.2698 32.625 25.8542 32.625ZM25.8542 25.3333C27.2906 25.3333 28.4584 26.501 28.4584 27.9375C28.4584 29.374 27.2906 30.5417 25.8542 30.5417C24.4177 30.5417 23.25 29.374 23.25 27.9375C23.25 26.501 24.4177 25.3333 25.8542 25.3333Z" fill="#FF7816"/>
<path d="M39.9167 17H29.5C28.3511 17 27.4167 17.9333 27.4167 19.0833V22.2083H29.5V19.0833H39.9167V30.5417H35.4396L33.6688 31.7219L33.6667 30.5396L31.5834 30.5438L31.5917 35.6115L36.0709 32.625H39.9167C41.0656 32.625 42 31.6906 42 30.5417V19.0833C42 17.9333 41.0656 17 39.9167 17Z" fill="#FF7816"/>
<path d="M32.841 27.6336L36.4869 23.9878L37.8337 25.3346V21.168H33.6671L35.0139 22.5148L31.3681 26.1607L32.841 27.6336Z" fill="#FF7816"/>
</g>
<defs>
<clipPath id="clip0_6994_8538">
<rect width="25" height="25" fill="white" transform="translate(17 17)"/>
</clipPath>
</defs>
</svg>
