<?xml version="1.0"?>
<svg xmlns="http://www.w3.org/2000/svg" width="42" height="42" viewBox="0 0 50 50" fill="none">
<rect width="49.5" height="49.5" rx="16.5" fill="#2493ED"/>
<path d="M31.25 11.25H18.25C17.5729 11.2839 16.9974 11.5208 16.5234 11.9609C16.0833 12.4349 15.8464 13.0104 15.8125 13.6875V34.8125C15.8464 35.4896 16.0833 36.0651 16.5234 36.5391C16.9974 36.9792 17.5729 37.2161 18.25 37.25H31.25C31.9271 37.2161 32.5026 36.9792 32.9766 36.5391C33.4167 36.0651 33.6536 35.4896 33.6875 34.8125V13.6875C33.6536 13.0104 33.4167 12.4349 32.9766 11.9609C32.5026 11.5208 31.9271 11.2839 31.25 11.25ZM27.1875 33.9492C27.1536 34.4909 26.8828 34.7786 26.375 34.8125H23.0742C22.6341 34.7786 22.3802 34.5078 22.3125 34C22.3464 33.4922 22.6172 33.2214 23.125 33.1875H26.375C26.8828 33.2552 27.1536 33.5091 27.1875 33.9492ZM30.4375 30.75H19.0625V14.5H30.4375V30.75Z" fill="white"/>
</svg>
