<svg width="48" height="48" viewBox="0 0 48 48" fill="none" xmlns="http://www.w3.org/2000/svg">
<circle opacity="0.1" cx="24" cy="24" r="24" fill="#4C49E1"/>
<path d="M34 24.4609C34 24.513 33.987 24.5521 33.9609 24.5781C33.9609 24.5781 33.9609 24.5911 33.9609 24.6172C33.9609 25.3203 33.6875 25.8932 33.1406 26.3359C32.6198 26.7526 31.9948 26.9609 31.2656 26.9609H27.4375C26.9167 26.987 26.474 27.1823 26.1094 27.5469C25.7708 27.9115 25.5885 28.3542 25.5625 28.875C25.5625 29.0052 25.5755 29.1354 25.6016 29.2656C25.6797 29.5781 25.7839 29.8906 25.9141 30.2031C25.9661 30.2812 26.0052 30.3594 26.0312 30.4375C26.0312 30.4375 26.0312 30.4505 26.0312 30.4766C26.3177 30.9974 26.474 31.5312 26.5 32.0781C26.5 32.7031 26.3047 33.25 25.9141 33.7188C25.5495 34.1875 25.0547 34.4479 24.4297 34.5C24.2734 34.5 24.1302 34.5 24 34.5C22.125 34.474 20.4453 34.0182 18.9609 33.1328C17.4505 32.2474 16.2526 31.0495 15.3672 29.5391C14.4818 28.0547 14.026 26.375 14 24.5C14.026 22.625 14.4818 20.9453 15.3672 19.4609C16.2526 17.9505 17.4505 16.7526 18.9609 15.8672C20.4453 14.9818 22.125 14.526 24 14.5C25.875 14.526 27.5547 14.9818 29.0391 15.8672C30.5495 16.7526 31.7474 17.9505 32.6328 19.4609C33.5182 20.9453 33.974 22.625 34 24.5V24.4609ZM17.75 24.4609C17.3854 24.487 17.0859 24.6172 16.8516 24.8516C16.6172 25.0859 16.5 25.3724 16.5 25.7109C16.5 26.0755 16.6172 26.375 16.8516 26.6094C17.0859 26.8438 17.3854 26.9609 17.75 26.9609C18.1146 26.9609 18.4141 26.8438 18.6484 26.6094C18.8828 26.375 19 26.0755 19 25.7109C19 25.3724 18.8828 25.0859 18.6484 24.8516C18.4141 24.6172 18.1146 24.487 17.75 24.4609ZM19 21.9609C19.3646 21.9609 19.6641 21.8438 19.8984 21.6094C20.1328 21.375 20.25 21.0755 20.25 20.7109C20.25 20.3724 20.1328 20.0859 19.8984 19.8516C19.6641 19.6172 19.3646 19.487 19 19.4609C18.6354 19.487 18.3359 19.6172 18.1016 19.8516C17.8672 20.0859 17.75 20.3724 17.75 20.7109C17.75 21.0755 17.8672 21.375 18.1016 21.6094C18.3359 21.8438 18.6354 21.9609 19 21.9609ZM24 16.9609C23.6354 16.987 23.3359 17.1172 23.1016 17.3516C22.8672 17.5859 22.75 17.8724 22.75 18.2109C22.75 18.5755 22.8672 18.875 23.1016 19.1094C23.3359 19.3438 23.6354 19.4609 24 19.4609C24.3646 19.4609 24.6641 19.3438 24.8984 19.1094C25.1328 18.875 25.25 18.5755 25.25 18.2109C25.25 17.8724 25.1328 17.5859 24.8984 17.3516C24.6641 17.1172 24.3646 16.987 24 16.9609ZM29 21.9609C29.3646 21.9609 29.6641 21.8438 29.8984 21.6094C30.1328 21.375 30.25 21.0755 30.25 20.7109C30.25 20.3724 30.1328 20.0859 29.8984 19.8516C29.6641 19.6172 29.3646 19.487 29 19.4609C28.6354 19.487 28.3359 19.6172 28.1016 19.8516C27.8672 20.0859 27.75 20.3724 27.75 20.7109C27.75 21.0755 27.8672 21.375 28.1016 21.6094C28.3359 21.8438 28.6354 21.9609 29 21.9609Z" fill="#4C49E1"/>
</svg>
