<?xml version="1.0"?>
<svg xmlns="http://www.w3.org/2000/svg" width="42" height="42" viewBox="0 0 58 59" fill="none">
<circle opacity="0.1" cx="29" cy="29.2031" r="29" fill="#49E198"/>
<path d="M26.3125 20.875C26.3125 21.7051 26.0967 22.4355 25.665 23.0664C25.2334 23.6973 24.6523 24.1787 23.9219 24.5107V28.8936C24.8848 28.3291 25.9473 28.0469 27.1094 28.0469H31.8906C32.7871 28.0137 33.5342 27.6982 34.1318 27.1006C34.7295 26.5029 35.0449 25.7559 35.0781 24.8594V24.5107C34.3477 24.1787 33.7666 23.6973 33.335 23.0664C32.9033 22.4355 32.6875 21.7051 32.6875 20.875C32.7207 19.7461 33.1025 18.7998 33.833 18.0361C34.5967 17.3057 35.543 16.9238 36.6719 16.8906C37.8008 16.9238 38.7471 17.3057 39.5107 18.0361C40.2412 18.7998 40.623 19.7461 40.6562 20.875C40.6562 21.7051 40.4404 22.4355 40.0088 23.0664C39.5771 23.6973 38.9961 24.1787 38.2656 24.5107V24.8594C38.2324 26.6523 37.6182 28.1631 36.4229 29.3916C35.1943 30.5869 33.6836 31.2012 31.8906 31.2344H27.1094C26.2129 31.2676 25.4658 31.583 24.8682 32.1807C24.2705 32.7783 23.9551 33.5254 23.9219 34.4219V34.7705C24.6523 35.0693 25.2334 35.5508 25.665 36.2148C26.0967 36.8457 26.3125 37.5762 26.3125 38.4062C26.2793 39.5352 25.8975 40.4814 25.167 41.2451C24.4033 41.9756 23.457 42.3574 22.3281 42.3906C21.1992 42.3574 20.2529 41.9756 19.4893 41.2451C18.7588 40.4814 18.377 39.5352 18.3438 38.4062C18.3438 37.5762 18.5596 36.8457 18.9912 36.2148C19.4229 35.5508 20.0039 35.0693 20.7344 34.7705V24.5107C20.0039 24.1787 19.4229 23.6973 18.9912 23.0664C18.5596 22.4355 18.3438 21.7051 18.3438 20.875C18.377 19.7461 18.7588 18.7998 19.4893 18.0361C20.2529 17.3057 21.1992 16.9238 22.3281 16.8906C23.457 16.9238 24.4033 17.3057 25.167 18.0361C25.8975 18.7998 26.2793 19.7461 26.3125 20.875ZM22.3281 22.0703C23.0586 22.0039 23.457 21.6055 23.5234 20.875C23.457 20.1445 23.0586 19.7461 22.3281 19.6797C21.5977 19.7461 21.1992 20.1445 21.1328 20.875C21.1992 21.6055 21.5977 22.0039 22.3281 22.0703ZM36.6719 19.6797C35.9414 19.7461 35.543 20.1445 35.4766 20.875C35.543 21.6055 35.9414 22.0039 36.6719 22.0703C37.4023 22.0039 37.8008 21.6055 37.8672 20.875C37.8008 20.1445 37.4023 19.7461 36.6719 19.6797ZM22.3281 39.6016C23.0586 39.5352 23.457 39.1367 23.5234 38.4062C23.457 37.6758 23.0586 37.2773 22.3281 37.2109C21.5977 37.2773 21.1992 37.6758 21.1328 38.4062C21.1992 39.1367 21.5977 39.5352 22.3281 39.6016Z" fill="#27C177"/>
</svg>
