<?xml version="1.0"?>
<svg xmlns="http://www.w3.org/2000/svg" width="40" height="40" viewBox="0 0 40 40" fill="none">
<rect width="40" height="40" rx="8" fill="#EDEDFC"/>
<path d="M13.25 18.1562L14.3438 15C14.5521 14.3958 14.9167 13.9167 15.4375 13.5625C15.9375 13.1875 16.5104 13 17.1562 13H22.8438C23.4896 13 24.0625 13.1875 24.5625 13.5625C25.0833 13.9167 25.4479 14.3958 25.6562 15L26.75 18.1562C27.125 18.3021 27.4271 18.5417 27.6562 18.875C27.8854 19.2083 28 19.5833 28 20V26C28 26.2917 27.9062 26.5312 27.7188 26.7188C27.5312 26.9062 27.2917 27 27 27H26C25.7083 27 25.4688 26.9062 25.2812 26.7188C25.0938 26.5312 25 26.2917 25 26V24.5H15V26C15 26.2917 14.9062 26.5312 14.7188 26.7188C14.5312 26.9062 14.2917 27 14 27H13C12.7083 27 12.4688 26.9062 12.2812 26.7188C12.0938 26.5312 12 26.2917 12 26V20C12 19.5833 12.1146 19.2083 12.3438 18.875C12.5729 18.5417 12.875 18.3021 13.25 18.1562ZM15.4062 18H24.5938L23.7812 15.6562C23.6146 15.2396 23.3021 15.0208 22.8438 15H17.1562C16.6979 15.0208 16.3854 15.2396 16.2188 15.6562L15.4062 18ZM15 20C14.7083 20 14.4688 20.0938 14.2812 20.2812C14.0938 20.4688 14 20.7083 14 21C14 21.2917 14.0938 21.5312 14.2812 21.7188C14.4688 21.9062 14.7083 22 15 22C15.2917 22 15.5312 21.9062 15.7188 21.7188C15.9062 21.5312 16 21.2917 16 21C16 20.7083 15.9062 20.4688 15.7188 20.2812C15.5312 20.0938 15.2917 20 15 20ZM25 22C25.2917 22 25.5312 21.9062 25.7188 21.7188C25.9062 21.5312 26 21.2917 26 21C26 20.7083 25.9062 20.4688 25.7188 20.2812C25.5312 20.0938 25.2917 20 25 20C24.7083 20 24.4688 20.0938 24.2812 20.2812C24.0938 20.4688 24 20.7083 24 21C24 21.2917 24.0938 21.5312 24.2812 21.7188C24.4688 21.9062 24.7083 22 25 22Z" fill="#4C49E1"/>
</svg>
