<?xml version="1.0"?>
<svg xmlns="http://www.w3.org/2000/svg" width="42" height="42" viewBox="0 0 58 58" fill="none">
<circle opacity="0.1" cx="29" cy="29" r="29" fill="#C2D020"/>
<path d="M38.3086 30.0889C38.3086 28.1468 36.7282 26.5664 34.7861 26.5664C32.8441 26.5664 31.2637 28.1468 31.2637 30.0889C31.2637 32.0309 32.8441 33.6113 34.7861 33.6113C36.7282 33.6113 38.3086 32.0309 38.3086 30.0889ZM33.612 30.0889C33.612 29.4419 34.138 28.9147 34.7861 28.9147C35.4343 28.9147 35.9603 29.4419 35.9603 30.0889C35.9603 30.7358 35.4343 31.263 34.7861 31.263C34.138 31.263 33.612 30.7358 33.612 30.0889Z" fill="#AAB716"/>
<path d="M31.2643 38.3076C31.2643 37.6607 31.7903 37.1335 32.4385 37.1335H37.1351C37.7832 37.1335 38.3093 37.6607 38.3093 38.3076V41.8301H40.6576V38.3076C40.6576 36.3656 39.0772 34.7852 37.1351 34.7852H32.4385C30.4964 34.7852 28.916 36.3656 28.916 38.3076V41.8301H31.2643V38.3076Z" fill="#AAB716"/>
<path d="M24.2191 16V19.5225H21.8708V18.3483H19.5225V19.5225H18.3483C17.0532 19.5225 16 20.5745 16 21.8708V35.9606C16 37.2557 17.0532 38.3089 18.3483 38.3089H27.7416V35.9606H18.3483V21.8708H39.4831V33.6123H41.8314V21.8708C41.8314 20.5745 40.7782 19.5225 39.4831 19.5225H38.3089V18.3483H35.9606V19.5225H33.6123V16H24.2191ZM26.5674 18.3483H31.264V19.5225H26.5674V18.3483Z" fill="#AAB716"/>
<path d="M21.8708 27.7422H19.5225V33.613H21.8708V27.7422Z" fill="#AAB716"/>
<path d="M25.3932 30.0898H23.0449V33.6123H25.3932V30.0898Z" fill="#AAB716"/>
<path d="M28.9167 24.2188H26.5684V33.612H28.9167V24.2188Z" fill="#AAB716"/>
</svg>
