<?xml version="1.0"?>
<svg xmlns="http://www.w3.org/2000/svg" width="42" height="42" viewBox="0 0 58 58" fill="none">
<circle opacity="0.1" cx="29" cy="29" r="29" fill="#DA2587"/>
<path d="M30.4004 19.5664L26.833 23.1338L25.4322 21.7331L23.9004 23.2649L26.833 26.1975L31.9322 21.0982L30.4004 19.5664Z" fill="#DA2587"/>
<path d="M39.8333 26.8333H37.6667V18.1667C37.6667 16.9707 36.6949 16 35.5 16H18.1667C16.9717 16 16 16.9707 16 18.1667V32.25C16 33.4449 16.9717 34.4167 18.1667 34.4167H25.75V36.5833H23.5833V38.75H30.0833V36.5833H27.9167V34.4167H30.0877V32.25H18.1667V30.0833H23.5833H27.9167H30.0833V27.9167H18.1667V18.1667H35.5V26.8333H33.3333C32.1384 26.8333 31.1667 27.804 31.1667 29V39.8333C31.1667 41.0283 32.1384 42 33.3333 42H39.8333C41.0283 42 42 41.0283 42 39.8333V29C42 27.804 41.0283 26.8333 39.8333 26.8333ZM33.3333 39.8333V34.4167H35.5C36.6949 34.4167 37.6667 33.4449 37.6667 32.25V30.0833H35.5V32.25H33.3333V29H39.8333L39.8344 39.8333H33.3333Z" fill="#DA2587"/>
</svg>
