<?xml version="1.0"?>
<svg xmlns="http://www.w3.org/2000/svg" width="42" height="42" viewBox="0 0 58 58" fill="none">
<circle opacity="0.1" cx="29" cy="29" r="29" fill="#E14949"/>
<path d="M27.458 28.9893C27.126 29.2881 26.7441 29.4375 26.3125 29.4375C25.8809 29.4375 25.499 29.2881 25.167 28.9893L21.1826 25.0049C20.8838 24.6729 20.7344 24.291 20.7344 23.8594C20.7344 23.4277 20.8838 23.0459 21.1826 22.7139C21.5146 22.415 21.8965 22.2656 22.3281 22.2656C22.7598 22.2656 23.1416 22.415 23.4736 22.7139L26.2627 25.6025L33.1357 18.7295C33.4678 18.4307 33.8496 18.2812 34.2812 18.2812C34.7129 18.2812 35.0947 18.4307 35.4268 18.7295C35.7256 19.0615 35.875 19.4434 35.875 19.875C35.875 20.3066 35.7256 20.6885 35.4268 21.0205L27.458 28.9893ZM27.458 40.1455C27.126 40.4443 26.7441 40.5938 26.3125 40.5938C25.8809 40.5938 25.499 40.4443 25.167 40.1455L18.792 33.7705C18.4932 33.4385 18.3438 33.0566 18.3438 32.625C18.3438 32.1934 18.4932 31.8115 18.792 31.4795C19.124 31.1807 19.5059 31.0312 19.9375 31.0312C20.3691 31.0312 20.751 31.1807 21.083 31.4795L26.2627 36.7588L37.917 25.1045C38.249 24.8057 38.6309 24.6562 39.0625 24.6562C39.4941 24.6562 39.876 24.8057 40.208 25.1045C40.5068 25.4365 40.6562 25.8184 40.6562 26.25C40.6562 26.6816 40.5068 27.0635 40.208 27.3955L27.458 40.1455Z" fill="#D82C2C"/>
</svg>
