<?xml version="1.0"?>
<svg xmlns="http://www.w3.org/2000/svg" width="42" height="42" viewBox="0 0 58 58" fill="none">
<circle opacity="0.1" cx="29" cy="29" r="29" fill="#4C49E1"/>
<path d="M37.1705 38.7555C37.8519 37.7238 38.126 36.4758 37.9396 35.2535C37.7532 34.0312 37.1197 32.9216 36.1618 32.1398C35.2039 31.358 33.9899 30.9596 32.755 31.022C31.5202 31.0843 30.3524 31.6029 29.4781 32.4772C28.6039 33.3515 28.0853 34.5192 28.023 35.7541C27.9606 36.9889 28.359 38.203 29.1408 39.1609C29.9226 40.1187 31.0322 40.7523 32.2545 40.9386C33.4768 41.125 34.7248 40.8509 35.7565 40.1695L38.2925 42.7055C38.4811 42.8877 38.7337 42.9885 38.9959 42.9862C39.2581 42.9839 39.5089 42.8788 39.6943 42.6934C39.8797 42.5079 39.9849 42.2571 39.9872 41.9949C39.9895 41.7327 39.8887 41.4801 39.7065 41.2915L37.1705 38.7555ZM30.8775 38.1195C30.4581 37.6999 30.1726 37.1653 30.057 36.5835C29.9414 36.0016 30.0009 35.3985 30.2281 34.8504C30.4552 34.3023 30.8397 33.8339 31.333 33.5044C31.8263 33.1748 32.4063 32.9989 32.9995 32.9989C33.5928 32.9989 34.1727 33.1748 34.666 33.5044C35.1593 33.8339 35.5438 34.3023 35.771 34.8504C35.9981 35.3985 36.0576 36.0016 35.942 36.5835C35.8264 37.1653 35.5409 37.6999 35.1215 38.1195C34.8443 38.4008 34.514 38.6242 34.1497 38.7767C33.7854 38.9292 33.3944 39.0077 32.9995 39.0077C32.6046 39.0077 32.2136 38.9292 31.8493 38.7767C31.485 38.6242 31.1547 38.4008 30.8775 38.1195Z" fill="#4C49E1"/>
<path d="M23 23H29C29.2652 23 29.5196 22.8946 29.7071 22.7071C29.8946 22.5196 30 22.2652 30 22C30 21.7348 29.8946 21.4804 29.7071 21.2929C29.5196 21.1054 29.2652 21 29 21H23C22.7348 21 22.4804 21.1054 22.2929 21.2929C22.1054 21.4804 22 21.7348 22 22C22 22.2652 22.1054 22.5196 22.2929 22.7071C22.4804 22.8946 22.7348 23 23 23Z" fill="#4C49E1"/>
<path d="M34 26C34 25.7348 33.8946 25.4804 33.7071 25.2929C33.5196 25.1054 33.2652 25 33 25H23C22.7348 25 22.4804 25.1054 22.2929 25.2929C22.1054 25.4804 22 25.7348 22 26C22 26.2652 22.1054 26.5196 22.2929 26.7071C22.4804 26.8946 22.7348 27 23 27H33C33.2652 27 33.5196 26.8946 33.7071 26.7071C33.8946 26.5196 34 26.2652 34 26Z" fill="#4C49E1"/>
<path d="M23 29C22.7348 29 22.4804 29.1054 22.2929 29.2929C22.1054 29.4804 22 29.7348 22 30C22 30.2652 22.1054 30.5196 22.2929 30.7071C22.4804 30.8946 22.7348 31 23 31H26C26.2652 31 26.5196 30.8946 26.7071 30.7071C26.8946 30.5196 27 30.2652 27 30C27 29.7348 26.8946 29.4804 26.7071 29.2929C26.5196 29.1054 26.2652 29 26 29H23Z" fill="#4C49E1"/>
<path d="M38.536 19.121L35.878 16.465C35.4149 15.9993 34.864 15.63 34.2572 15.3785C33.6504 15.127 32.9998 14.9984 32.343 15H23C21.6744 15.0016 20.4036 15.5289 19.4662 16.4662C18.5289 17.4036 18.0016 18.6744 18 20V38C18.0016 39.3256 18.5289 40.5965 19.4662 41.5338C20.4036 42.4711 21.6744 42.9984 23 43H28C28.2652 43 28.5196 42.8947 28.7071 42.7071C28.8946 42.5196 29 42.2652 29 42C29 41.7348 28.8946 41.4804 28.7071 41.2929C28.5196 41.1054 28.2652 41 28 41H23C22.2044 41 21.4413 40.6839 20.8787 40.1213C20.3161 39.5587 20 38.7957 20 38V20C20 19.2044 20.3161 18.4413 20.8787 17.8787C21.4413 17.3161 22.2044 17 23 17H32V20C32 20.7957 32.3161 21.5587 32.8787 22.1213C33.4413 22.6839 34.2044 23 35 23H38V31C38 31.2652 38.1054 31.5196 38.2929 31.7071C38.4804 31.8947 38.7348 32 39 32C39.2652 32 39.5196 31.8947 39.7071 31.7071C39.8946 31.5196 40 31.2652 40 31V22.657C40.0019 22.0001 39.8735 21.3493 39.6222 20.7424C39.3709 20.1354 39.0017 19.5843 38.536 19.121ZM34 20V17.5C34.1671 17.6095 34.3226 17.7359 34.464 17.877L37.122 20.533C37.2628 20.6761 37.3894 20.8325 37.5 21H35C34.7348 21 34.4804 20.8947 34.2929 20.7071C34.1054 20.5196 34 20.2652 34 20Z" fill="#4C49E1"/>
</svg>
