<svg width="48" height="48" viewBox="0 0 48 48" fill="none" xmlns="http://www.w3.org/2000/svg">
<rect width="48" height="48" rx="24" fill="#EDEDFC"/>
<path d="M36.3645 14H12.6355C11.7345 14 11 14.7344 11 15.6355V32.9031C11 33.8041 11.7344 34.5386 12.6355 34.5386H36.3645C37.2655 34.5386 38 33.8042 38 32.9031V15.6355C38 14.7345 37.2656 14.0001 36.3645 14.0001V14ZM12.6355 15.5429H36.3645C36.417 15.5429 36.4571 15.5829 36.4571 15.6355V18.7829H12.5429V15.6355C12.5428 15.5829 12.5861 15.5429 12.6355 15.5429ZM36.3645 32.9956H12.6355C12.583 32.9956 12.5429 32.9555 12.5429 32.903L12.543 19.7085H36.4572V32.903C36.4572 32.9554 36.414 32.9955 36.3645 32.9955L36.3645 32.9956Z" fill="#4C49E1"/>
<path d="M14.2374 18.0021C14.7187 18.0021 15.1075 17.6133 15.1075 17.132C15.1075 16.6506 14.7187 16.2618 14.2374 16.2618C13.756 16.2618 13.3672 16.6506 13.3672 17.132C13.3672 17.6133 13.7559 18.0021 14.2374 18.0021Z" fill="#4C49E1"/>
<path d="M17.7325 17.132C17.7325 17.6125 17.3429 18.0021 16.8624 18.0021C16.3818 18.0021 15.9922 17.6125 15.9922 17.132C15.9922 16.6514 16.3818 16.2618 16.8624 16.2618C17.3429 16.2618 17.7325 16.6513 17.7325 17.132Z" fill="#4C49E1"/>
<path d="M20.3575 17.132C20.3575 17.6125 19.968 18.0021 19.4874 18.0021C19.0068 18.0021 18.6172 17.6125 18.6172 17.132C18.6172 16.6514 19.0068 16.2618 19.4874 16.2618C19.968 16.2618 20.3575 16.6513 20.3575 17.132Z" fill="#4C49E1"/>
<path d="M22.0702 24.1985C21.9478 24.0454 21.7029 24.0149 21.5498 24.1372L19.5599 25.8211C19.468 25.8824 19.4375 26.0048 19.4375 26.0966C19.4375 26.219 19.4988 26.311 19.5599 26.3721L21.5498 28.056C21.611 28.1173 21.7029 28.1478 21.7947 28.1478C21.9171 28.1478 22.0091 28.0865 22.0702 28.0255C22.1926 27.8723 22.1926 27.6274 22.0089 27.505L20.3558 26.1274L22.0089 24.7498C22.1928 24.5964 22.1928 24.3516 22.0702 24.1985Z" fill="#4C49E1" stroke="#4C49E1" stroke-width="0.5625"/>
<path d="M28.7128 25.9131L26.7229 24.2292C26.5698 24.1068 26.3248 24.1373 26.2025 24.2905C26.0801 24.4436 26.0801 24.6885 26.2638 24.8109L27.9169 26.1885L26.2638 27.5662C26.1106 27.6885 26.0801 27.9335 26.2025 28.0866C26.2638 28.1784 26.3861 28.209 26.4779 28.209C26.5698 28.209 26.6616 28.1784 26.7229 28.1171L28.7128 26.4332C28.8046 26.3719 28.8352 26.2496 28.8352 26.1577C28.8354 26.0661 28.8046 26.0048 28.7128 25.913L28.7128 25.9131Z" fill="#4C49E1" stroke="#4C49E1" stroke-width="0.5625"/>
<path d="M25.1657 22.4535C24.9821 22.3922 24.7677 22.5148 24.7066 22.6984L22.5941 29.4644C22.5328 29.6481 22.6554 29.8625 22.839 29.9236C22.8696 29.9236 22.9003 29.9541 22.9614 29.9541C23.1145 29.9541 23.2676 29.8623 23.3287 29.6786L25.4104 22.9432C25.4717 22.7288 25.3799 22.5146 25.1657 22.4533L25.1657 22.4535Z" fill="#4C49E1" stroke="#4C49E1" stroke-width="0.5625"/>
</svg>
