<?xml version="1.0"?>
<svg xmlns="http://www.w3.org/2000/svg" width="42" height="42" viewBox="0 0 58 58" fill="none">
<circle cx="29" cy="29" r="29" fill="#EDF9F9"/>
<path d="M16 24H42" stroke="#1784B2" stroke-width="2" stroke-miterlimit="10" stroke-linecap="round" stroke-linejoin="round"/>
<path d="M20 22C19.7 22 19.5 21.9 19.3 21.7C19.1 21.5 19 21.3 19 21C19 20.7 19.1 20.5 19.3 20.3L19.4 20.2C19.5 20.2 19.5 20.1 19.6 20.1C19.7 20 19.7 20 19.8 20C19.9 20 20.1 20 20.2 20C20.3 20 20.3 20 20.4 20.1C20.5 20.1 20.5 20.2 20.6 20.2L20.7 20.3C20.8 20.4 20.9 20.5 20.9 20.6C21 20.7 21 20.9 21 21C21 21.1 21 21.3 20.9 21.4C20.9 21.5 20.8 21.6 20.7 21.7C20.5 21.9 20.3 22 20 22Z" fill="#1784B2"/>
<path d="M23 22.0001C22.7 22.0001 22.5 21.9001 22.3 21.7001C22.1 21.5001 22 21.3001 22 21.0001C22 20.9001 22 20.7001 22.1 20.6001C22.2 20.5001 22.2 20.4001 22.3 20.3001C22.4 20.2001 22.5 20.1001 22.6 20.1001C23 19.9001 23.4 20.0001 23.7 20.3001C23.8 20.4001 23.9 20.5001 23.9 20.6001C24 20.7001 24 20.9001 24 21.0001C24 21.3001 23.9 21.5001 23.7 21.7001C23.5 21.9001 23.3 22.0001 23 22.0001Z" fill="#1784B2"/>
<path d="M26 22C25.9 22 25.7 22 25.6 21.9C25.5 21.8 25.4 21.8 25.3 21.7C25.2 21.6 25.1 21.5 25.1 21.4C25 21.3 25 21.1 25 21C25 20.9 25 20.7 25.1 20.6C25.2 20.5 25.2 20.4 25.3 20.3C25.7 19.9 26.3 19.9 26.7 20.3C26.8 20.4 26.9 20.5 26.9 20.6C27 20.7 27 20.9 27 21C27 21.1 27 21.3 26.9 21.4C26.8 21.5 26.8 21.6 26.7 21.7C26.5 21.9 26.3 22 26 22Z" fill="#1784B2"/>
<path d="M40 18H18C16.9 18 16 18.9 16 20V38C16 39.1 16.9 40 18 40H40C41.1 40 42 39.1 42 38V20C42 18.9 41.1 18 40 18Z" stroke="#1784B2" stroke-width="2" stroke-miterlimit="10" stroke-linecap="round" stroke-linejoin="round"/>
<path d="M24 29L21 32L24 35" stroke="#1784B2" stroke-width="2" stroke-miterlimit="10" stroke-linecap="round" stroke-linejoin="round"/>
<path d="M34 29L37 32L34 35" stroke="#1784B2" stroke-width="2" stroke-miterlimit="10" stroke-linecap="round" stroke-linejoin="round"/>
<path d="M31 28L27 36" stroke="#1784B2" stroke-width="2" stroke-miterlimit="10" stroke-linecap="round" stroke-linejoin="round"/>
</svg>
