<?xml version="1.0"?>
<svg xmlns="http://www.w3.org/2000/svg" width="42" height="42" viewBox="0 0 50 50" fill="none">
<rect width="49.5" height="49.5" rx="16.5" fill="#4C49E1"/>
<path d="M22.7033 21.5171C22.5622 21.3406 22.2798 21.3054 22.1033 21.4464L19.8091 23.388C19.7032 23.4586 19.668 23.5997 19.668 23.7056C19.668 23.8467 19.7386 23.9528 19.8091 24.0232L22.1033 25.9647C22.1739 26.0354 22.2798 26.0706 22.3857 26.0706C22.5268 26.0706 22.6329 25.9999 22.7033 25.9295C22.8444 25.753 22.8444 25.4706 22.6326 25.3295L20.7267 23.7411L22.6326 22.1527C22.8446 21.9759 22.8446 21.6937 22.7033 21.5171Z" fill="white" stroke="white" stroke-width="0.50624"/>
<path d="M30.3676 23.4973L28.0733 21.5558C27.8968 21.4147 27.6144 21.4499 27.4733 21.6265C27.3322 21.803 27.3322 22.0854 27.544 22.2265L29.4499 23.8149L27.544 25.4033C27.3674 25.5444 27.3322 25.8268 27.4733 26.0034C27.544 26.1093 27.6851 26.1445 27.7909 26.1445C27.8968 26.1445 28.0027 26.1093 28.0734 26.0386L30.3676 24.0971C30.4735 24.0264 30.5087 23.8853 30.5087 23.7794C30.5089 23.6738 30.4735 23.6031 30.3676 23.4973L30.3676 23.4973Z" fill="white" stroke="white" stroke-width="0.50624"/>
<path d="M26.2763 19.5067C26.0646 19.436 25.8174 19.5773 25.747 19.7891L23.3114 27.5902C23.2407 27.8019 23.382 28.0491 23.5938 28.1196C23.629 28.1196 23.6644 28.1548 23.7348 28.1548C23.9114 28.1548 24.0879 28.0489 24.1583 27.8371L26.5585 20.0713C26.6291 19.8241 26.5233 19.5772 26.2763 19.5065L26.2763 19.5067Z" fill="white" stroke="white" stroke-width="0.50624"/>
<path d="M32.1311 8H18.0473C16.9531 8 16 8.91771 16 10.0473V38.9573C16 40.0515 16.9177 41.0046 18.0473 41.0046H32.1311C33.2252 41.0046 34.1783 40.0869 34.1783 38.9573L34.1781 10.0473C34.1781 8.95314 33.225 8 32.1308 8H32.1311ZM33.0489 38.9573C33.0489 39.4866 32.6606 39.875 32.1312 39.875H18.0475C17.5181 39.875 17.1298 39.4867 17.1298 38.9573V35.8156H33.0843L33.0841 38.9573H33.0489ZM33.0489 34.7212H17.0944V12.0945H33.0489V34.7212ZM33.0489 10.9649H17.0944V10.0472C17.0944 9.51783 17.4826 9.12951 18.012 9.12951H23.0595C23.0947 9.34126 23.2712 9.4826 23.483 9.4826H26.5892C26.801 9.4826 26.9775 9.30605 27.0127 9.12951H32.0602C32.5895 9.12951 32.9779 9.51781 32.9779 10.0472L32.9783 10.9649H33.0489Z" fill="white" stroke="white" stroke-width="0.50624"/>
<path d="M26.0231 37.8669C26.0231 38.3934 25.5964 38.8201 25.07 38.8201C24.5439 38.8201 24.1172 38.3934 24.1172 37.8669C24.1172 37.3408 24.5439 36.9141 25.07 36.9141C25.5965 36.9141 26.0231 37.3408 26.0231 37.8669Z" fill="white" stroke="white" stroke-width="0.50624"/>
</svg>
