<?xml version="1.0"?>
<svg xmlns="http://www.w3.org/2000/svg" width="42" height="42" viewBox="0 0 50 51" fill="none">
<rect y="0.796875" width="49.5" height="49.5" rx="16.5" fill="#4C49E1"/>
<path d="M14.75 16.9219H34.25V29.9219H37.5V16.1094C37.4661 15.4323 37.2292 14.8568 36.7891 14.3828C36.3151 13.9427 35.7396 13.7057 35.0625 13.6719H13.9375C13.2604 13.7057 12.6849 13.9427 12.2109 14.3828C11.7708 14.8568 11.5339 15.4323 11.5 16.1094V29.9219H14.75V16.9219ZM39.9375 31.5469H9.0625C8.55469 31.5807 8.28385 31.8516 8.25 32.3594V33.1719C8.28385 34.0859 8.60547 34.8477 9.21484 35.457C9.82422 36.0664 10.5859 36.388 11.5 36.4219H37.5C38.4141 36.388 39.1758 36.0664 39.7852 35.457C40.3945 34.8477 40.7161 34.0859 40.75 33.1719V32.3594C40.7161 31.8516 40.4453 31.5807 39.9375 31.5469ZM26.8359 26.5703C27.0391 26.7734 27.276 26.875 27.5469 26.875C27.8177 26.875 28.0547 26.7734 28.2578 26.5703L30.6953 24.1328C31.1016 23.6589 31.1016 23.1849 30.6953 22.7109L28.2578 20.2734C27.7839 19.8672 27.3099 19.8672 26.8359 20.2734C26.4297 20.7474 26.4297 21.2214 26.8359 21.6953L28.5625 23.4219L26.8359 25.1484C26.4297 25.6224 26.4297 26.0964 26.8359 26.5703ZM22.1641 20.2734C21.6901 19.8672 21.2161 19.8672 20.7422 20.2734L18.3047 22.7109C17.8984 23.1849 17.8984 23.6589 18.3047 24.1328L20.7422 26.5703C20.9453 26.7734 21.1823 26.875 21.4531 26.875C21.724 26.875 21.9609 26.7734 22.1641 26.5703C22.5703 26.0964 22.5703 25.6224 22.1641 25.1484L20.4375 23.4219L22.1641 21.6953C22.5365 21.2214 22.5365 20.7474 22.1641 20.2734Z" fill="white"/>
</svg>
