<?xml version="1.0"?>
<svg xmlns="http://www.w3.org/2000/svg" width="42" height="42" viewBox="0 0 50 51" fill="none">
<rect y="0.796875" width="49.5" height="49.5" rx="16.5" fill="#2493ED"/>
<path d="M23.4766 25.1484C23.0026 24.7422 22.5286 24.7422 22.0547 25.1484L19.6172 27.5859C19.2109 28.0599 19.2109 28.5339 19.6172 29.0078L22.0547 31.4453C22.2578 31.6484 22.4948 31.75 22.7656 31.75C23.0365 31.75 23.2734 31.6484 23.4766 31.4453C23.8828 30.9714 23.8828 30.4974 23.4766 30.0234L21.75 28.2969L23.4766 26.5703C23.849 26.0964 23.849 25.6224 23.4766 25.1484ZM33.7852 16.7695L30.0273 13.0117C29.3841 12.3685 28.6055 12.0469 27.6914 12.0469H18.5C17.5859 12.0807 16.8242 12.4023 16.2148 13.0117C15.6055 13.6211 15.2839 14.3828 15.25 15.2969V34.7969C15.2839 35.7109 15.6055 36.4727 16.2148 37.082C16.8242 37.6914 17.5859 38.013 18.5 38.0469H31.5C32.4141 38.013 33.1758 37.6914 33.7852 37.082C34.3945 36.4727 34.7161 35.7109 34.75 34.7969V19.1055C34.75 18.1914 34.4284 17.4128 33.7852 16.7695ZM32.3125 34.7969C32.2786 35.3047 32.0078 35.5755 31.5 35.6094H18.5C17.9922 35.5755 17.7214 35.3047 17.6875 34.7969V15.2969C17.7214 14.8229 17.9922 14.5521 18.5 14.4844H26.625V18.5469C26.625 19.0208 26.7773 19.4102 27.082 19.7148C27.3867 20.0195 27.776 20.1719 28.25 20.1719H32.2617V34.7969H32.3125ZM26.5234 25.1484C26.1172 25.6224 26.1172 26.0964 26.5234 26.5703L28.25 28.2969L26.5234 30.0234C26.1172 30.4974 26.1172 30.9714 26.5234 31.4453C26.7266 31.6484 26.9635 31.75 27.2344 31.75C27.5052 31.75 27.7422 31.6484 27.9453 31.4453L30.3828 29.0078C30.7891 28.5339 30.7891 28.0599 30.3828 27.5859L27.9453 25.1484C27.4714 24.7422 26.9974 24.7422 26.5234 25.1484Z" fill="white"/>
</svg>
