<?xml version="1.0"?>
<svg xmlns="http://www.w3.org/2000/svg" width="42" height="42" viewBox="0 0 50 51" fill="none">
<rect y="0.796875" width="49.5" height="49.5" rx="16.5" fill="#AAB716"/>
<path d="M34.375 16.1094C34.3411 15.4323 34.1042 14.8568 33.6641 14.3828C33.1901 13.9427 32.6146 13.7057 31.9375 13.6719H17.3125C16.6354 13.7057 16.0599 13.9427 15.5859 14.3828C15.1458 14.8568 14.9089 15.4323 14.875 16.1094V31.5469H34.375V16.1094ZM29.2461 20.5273L24.7773 26.2148C24.5742 26.4857 24.2865 26.638 23.9141 26.6719C23.8802 26.638 23.8294 26.6211 23.7617 26.6211C23.457 26.6211 23.2031 26.5195 23 26.3164L20.1562 23.8789C19.6484 23.4049 19.6146 22.8464 20.0547 22.2031C20.5964 21.6953 21.1719 21.6615 21.7812 22.1016L23.6602 23.6758L27.3164 19.0039C27.8242 18.4622 28.3997 18.3945 29.043 18.8008C29.5846 19.3086 29.6523 19.8841 29.2461 20.5273ZM36.8125 26.6719H36V32.3594C35.9661 32.8672 35.6953 33.138 35.1875 33.1719H14.0625C13.5547 33.138 13.2839 32.8672 13.25 32.3594V26.6719H12.4375C11.7604 26.7057 11.1849 26.9427 10.7109 27.3828C10.2708 27.8568 10.0339 28.4323 10 29.1094V33.9844C10.0339 34.6615 10.2708 35.237 10.7109 35.7109C11.1849 36.151 11.7604 36.388 12.4375 36.4219H36.8125C37.4896 36.388 38.0651 36.151 38.5391 35.7109C38.9792 35.237 39.2161 34.6615 39.25 33.9844V29.1094C39.2161 28.4323 38.9792 27.8568 38.5391 27.3828C38.0651 26.9427 37.4896 26.7057 36.8125 26.6719Z" fill="white"/>
</svg>
