<?xml version="1.0"?>
<svg xmlns="http://www.w3.org/2000/svg" width="42" height="42" viewBox="0 0 50 51" fill="none">
<rect y="0.796875" width="49.5" height="49.5" rx="16.5" fill="#DA2587"/>
<path d="M33.9453 18.4961C33.4714 17.9206 32.7096 17.2604 31.6602 16.5156C30.6107 15.737 29.2904 15.1953 27.6992 14.8906C26.5143 14.7552 25.4479 15.0599 24.5 15.8047C23.5521 15.0938 22.4857 14.806 21.3008 14.9414C19.9128 15.1784 18.7279 15.6185 17.7461 16.2617C16.7643 16.9049 16.0026 17.5143 15.4609 18.0898C14.9193 18.6992 14.6315 19.0378 14.5977 19.1055C14.1914 19.7487 14.276 20.3242 14.8516 20.832C15.0547 20.9674 15.2917 21.0352 15.5625 21.0352C15.9688 21.0352 16.2904 20.8828 16.5273 20.5781C16.5612 20.4427 17.0352 19.9518 17.9492 19.1055C18.8633 18.2591 20.099 17.6667 21.6562 17.3281C22.0286 17.2943 22.3841 17.3789 22.7227 17.582L19.7773 20.5781C19.1341 21.2214 18.7956 22.0169 18.7617 22.9648C18.7617 23.8789 19.0833 24.6576 19.7266 25.3008C20.4375 25.9102 21.2331 26.2148 22.1133 26.2148C23.0273 26.2148 23.8229 25.8932 24.5 25.25L25.0586 24.6914L31.3555 29.7695C31.4909 29.9049 31.5078 30.0404 31.4062 30.1758L29.9844 32.0039C29.8828 32.1393 29.7643 32.1562 29.6289 32.0547L28.5117 31.1406L27.1914 32.5117C27.0221 32.6471 26.9036 32.7148 26.8359 32.7148C26.7344 32.7487 26.6159 32.7148 26.4805 32.6133L24.8047 31.2422L24.043 31.9531L23.8906 32.1055C23.5859 32.4779 23.1966 32.6979 22.7227 32.7656C22.2148 32.7995 21.7917 32.681 21.4531 32.4102L16.8828 28.2969H13.125V18.5469H8.25V31.5469H11.5C12.1094 31.513 12.5664 31.2422 12.8711 30.7344H15.9688L19.8789 34.2383C20.6576 34.8815 21.5378 35.2031 22.5195 35.2031C22.6549 35.2031 22.7904 35.2031 22.9258 35.2031C23.6367 35.1016 24.2799 34.8646 24.8555 34.4922L24.9062 34.543C25.5495 35.0508 26.2773 35.2708 27.0898 35.2031C27.7669 35.1016 28.3255 34.8307 28.7656 34.3906C29.3411 34.5938 29.8997 34.6276 30.4414 34.4922C31.0169 34.3568 31.5078 34.0521 31.9141 33.5781L33.2852 31.75C33.7591 31.1406 33.9622 30.4805 33.8945 29.7695C33.8268 29.0586 33.5052 28.4492 32.9297 27.9414L26.7852 22.9648L27.2422 22.5586C27.7161 21.9831 27.7161 21.4076 27.2422 20.832C26.6667 20.3581 26.0911 20.3581 25.5156 20.832L22.7734 23.5742C22.3333 23.9128 21.9102 23.9128 21.5039 23.5742C21.3346 23.4049 21.25 23.1849 21.25 22.9141C21.25 22.6771 21.3346 22.474 21.5039 22.3047L25.8711 17.8359C26.3112 17.4297 26.8021 17.2604 27.3438 17.3281C28.901 17.6667 30.1367 18.2591 31.0508 19.1055C31.9648 19.9518 32.4388 20.4427 32.4727 20.5781C32.6419 20.7812 32.8451 20.9167 33.082 20.9844H35.875V29.8711C35.875 30.3451 36.0273 30.7344 36.332 31.0391C36.6367 31.3438 37.0091 31.4961 37.4492 31.4961L40.75 31.5469V18.5469L33.9453 18.4961ZM10.6875 29.9219C10.1797 29.888 9.90885 29.6172 9.875 29.1094C9.90885 28.6016 10.1797 28.3307 10.6875 28.2969C11.1953 28.3307 11.4661 28.6016 11.5 29.1094C11.4661 29.6172 11.1953 29.888 10.6875 29.9219ZM38.3125 29.9219C37.8047 29.888 37.5339 29.6172 37.5 29.1094C37.5339 28.6016 37.8047 28.3307 38.3125 28.2969C38.8203 28.3307 39.0911 28.6016 39.125 29.1094C39.0911 29.6172 38.8203 29.888 38.3125 29.9219Z" fill="white"/>
</svg>
