<?xml version="1.0"?>
<svg xmlns="http://www.w3.org/2000/svg" width="42" height="42" viewBox="0 0 58 58" fill="none">
<circle opacity="0.1" cx="29" cy="29" r="29" fill="#367FEE"/>
<path d="M30 27.75H31.25V25.25H26.25V27.75H27.5V29H21.25V32.75H20V35.25H25V32.75H23.75V31.5H27.5V32.75H26.25V35.25H31.25V32.75H30V31.5H33.75V32.75H32.5V35.25H37.5V32.75H36.25V29H30V27.75Z" fill="#367FEE"/>
<path d="M42.5 24.7325L36.7675 19H15V39H42.5V24.7325ZM36.25 22.0175L39.4825 25.25H36.25V22.0175ZM40 36.5H17.5V21.5H33.75V27.75H40V36.5Z" fill="#367FEE"/>
</svg>
